<svg id="Layer_1" data-name="Layer 1" xmlns="http://www.w3.org/2000/svg" viewBox="0 0 261.61 366"><defs><style>.cls-1{fill:#fff;}.cls-1,.cls-4{stroke:#000;stroke-miterlimit:10;}.cls-2,.cls-3{fill:red;}.cls-3{font-size:55.76px;font-family:MyriadPro-Regular, Myriad Pro;}.cls-4{fill:none;}</style></defs><g id="_10Diamonds" data-name="10Diamonds"><rect id="cardBorder" class="cls-1" x="0.5" y="0.5" width="260.61" height="365" rx="8.5"/><g id="details"><g id="face"><path id="diamond" class="cls-2" d="M288.83,364.42a168.34,168.34,0,0,0,26.55-35.78c6.92,13.8,15.67,25.26,25.09,35.58L315,399.35A137,137,0,0,0,288.83,364.42Z" transform="translate(-119.19 -67)"/><path id="diamond-2" data-name="diamond" class="cls-2" d="M159.53,364.42a167.69,167.69,0,0,0,26.55-35.77c6.92,13.8,15.67,25.26,25.09,35.58l-25.49,35.13A137,137,0,0,0,159.53,364.42Z" transform="translate(-119.19 -67)"/><path id="diamond-3" data-name="diamond" class="cls-2" d="M224.18,175.58a168.34,168.34,0,0,0,26.55-35.78c6.92,13.8,15.67,25.26,25.09,35.58l-25.49,35.13A136.74,136.74,0,0,0,224.18,175.58Z" transform="translate(-119.19 -67)"/><path id="diamond-4" data-name="diamond" class="cls-2" d="M288.83,289.42a168.34,168.34,0,0,0,26.55-35.78c6.92,13.8,15.67,25.26,25.09,35.58L315,324.35A137,137,0,0,0,288.83,289.42Z" transform="translate(-119.19 -67)"/><path id="diamond-5" data-name="diamond" class="cls-2" d="M159.53,289.42a167.69,167.69,0,0,0,26.55-35.77c6.92,13.8,15.67,25.26,25.09,35.58l-25.49,35.13A137,137,0,0,0,159.53,289.42Z" transform="translate(-119.19 -67)"/><path id="diamond-6" data-name="diamond" class="cls-2" d="M288.83,211.42a168.34,168.34,0,0,0,26.55-35.78c6.92,13.8,15.67,25.26,25.09,35.58L315,246.35A137,137,0,0,0,288.83,211.42Z" transform="translate(-119.19 -67)"/><path id="diamond-7" data-name="diamond" class="cls-2" d="M159.53,211.42a167.69,167.69,0,0,0,26.55-35.77c6.92,13.8,15.67,25.26,25.09,35.58l-25.49,35.13A137,137,0,0,0,159.53,211.42Z" transform="translate(-119.19 -67)"/><path id="diamond-8" data-name="diamond" class="cls-2" d="M224.18,324.58a168.34,168.34,0,0,0,26.55-35.78c6.92,13.8,15.67,25.26,25.09,35.58l-25.49,35.13A136.74,136.74,0,0,0,224.18,324.58Z" transform="translate(-119.19 -67)"/><path id="diamond-9" data-name="diamond" class="cls-2" d="M288.83,136.42a168.34,168.34,0,0,0,26.55-35.78c6.92,13.8,15.67,25.26,25.09,35.58L315,171.35A137,137,0,0,0,288.83,136.42Z" transform="translate(-119.19 -67)"/><path id="diamond-10" data-name="diamond" class="cls-2" d="M159.53,136.42a167.69,167.69,0,0,0,26.55-35.77c6.92,13.8,15.67,25.26,25.09,35.58l-25.49,35.13A137,137,0,0,0,159.53,136.42Z" transform="translate(-119.19 -67)"/></g><g id="bottomRightDetail"><text class="cls-3" transform="translate(257.1 308.32) rotate(180) scale(0.5 1)">10</text><path id="diamond-11" data-name="diamond" class="cls-2" d="M371.49,353.36a67.61,67.61,0,0,0-10.69,14.39,63.23,63.23,0,0,0-10.1-14.31L361,339.29A55,55,0,0,0,371.49,353.36Z" transform="translate(-119.19 -67)"/></g><g id="topLeftDetail"><text class="cls-3" transform="translate(4.51 57.68) scale(0.5 1)">10</text><path id="diamond-12" data-name="diamond" class="cls-2" d="M128.51,146.64a67.61,67.61,0,0,0,10.69-14.39,63.23,63.23,0,0,0,10.1,14.31L139,160.71A55,55,0,0,0,128.51,146.64Z" transform="translate(-119.19 -67)"/></g></g></g><rect id="cardBorder-2" data-name="cardBorder" class="cls-4" x="119.7" y="67.5" width="260.61" height="365" rx="8.5" transform="translate(380.8 433) rotate(-180)"/></svg>