<svg id="Layer_1" data-name="Layer 1" xmlns="http://www.w3.org/2000/svg" viewBox="0 0 261.61 366"><defs><style>.cls-1{fill:#fff;stroke:#000;stroke-miterlimit:10;}.cls-2{fill:#070707;}.cls-3{font-size:54.52px;font-family:MyriadPro-Regular, Myriad Pro;}</style></defs><g id="_6Spades" data-name="6Spades"><rect id="cardBorder" class="cls-1" x="0.5" y="0.5" width="260.61" height="365" rx="8.5"/><g id="details"><g id="face"><path class="cls-2" d="M178.1,173.22h16.17a42,42,0,0,1-6-21.9h1.21s1.71,13.14,11.93,13.14,13.14-11.68,13.14-16.06-5-14.93-13.46-24.26-14.94-22.46-14.94-22.46-4.8,9.89-15.94,22.46-12.6,19.88-12.6,22.8S159.12,163,169.34,163,181,157.16,181,151.32h1.46S183.94,158.62,178.1,173.22Z" transform="translate(-119.2 -67)"/><path class="cls-2" d="M305.7,173.22h16.18a42,42,0,0,1-6-21.9h1.21s1.71,13.14,11.93,13.14,13.14-11.68,13.14-16.06-5-14.93-13.46-24.26-14.93-22.46-14.93-22.46-4.8,9.89-15.95,22.46-12.6,19.88-12.6,22.8S286.72,163,296.94,163s11.68-5.84,11.68-11.68h1.46S311.54,158.62,305.7,173.22Z" transform="translate(-119.2 -67)"/><path class="cls-2" d="M178.1,285h16.17a42,42,0,0,1-6-21.9h1.21s1.71,13.14,11.93,13.14,13.14-11.68,13.14-16.06-5-14.94-13.46-24.26S186.2,213.5,186.2,213.5s-4.8,9.88-15.94,22.46-12.6,19.88-12.6,22.8,1.46,16.06,11.68,16.06S181,269,181,263.14h1.46S183.94,270.44,178.1,285Z" transform="translate(-119.2 -67)"/><path class="cls-2" d="M305.7,285h16.18a42,42,0,0,1-6-21.9h1.21s1.71,13.14,11.93,13.14,13.14-11.68,13.14-16.06-5-14.94-13.46-24.26-14.93-22.46-14.93-22.46S309,223.38,297.86,236s-12.6,19.88-12.6,22.8,1.46,16.06,11.68,16.06,11.68-5.84,11.68-11.68h1.46S311.54,270.44,305.7,285Z" transform="translate(-119.2 -67)"/><path class="cls-2" d="M321.76,328.84H305.58a42,42,0,0,1,6,21.9h-1.22s-1.7-13.14-11.92-13.14-13.14,11.68-13.14,16.06,5,14.94,13.46,24.26,14.93,22.46,14.93,22.46,4.8-9.88,15.94-22.46S342.2,358,342.2,355.12s-1.46-16.06-11.68-16.06-11.68,5.84-11.68,11.68h-1.46S315.92,343.44,321.76,328.84Z" transform="translate(-119.2 -67)"/><path class="cls-2" d="M194.16,328.84H178a42,42,0,0,1,6,21.9h-1.22S181,337.6,170.8,337.6s-13.14,11.68-13.14,16.06,5,14.94,13.45,24.26,14.94,22.46,14.94,22.46,4.8-9.88,15.94-22.46S214.6,358,214.6,355.12s-1.46-16.06-11.68-16.06-11.68,5.84-11.68,11.68h-1.46S188.32,343.44,194.16,328.84Z" transform="translate(-119.2 -67)"/></g><g id="bottomRightDetail"><path class="cls-2" d="M136.17,160.3h7a18.17,18.17,0,0,1-2.59-9.5h.53s.74,5.7,5.17,5.7,5.71-5.07,5.71-7S149.84,143,146.18,139a49.83,49.83,0,0,1-6.49-9.75,48.25,48.25,0,0,1-6.92,9.75c-4.84,5.46-5.47,8.63-5.47,9.89s.63,7,5.07,7,5.07-2.54,5.07-5.07h.63S138.71,154,136.17,160.3Z" transform="translate(-119.2 -67)"/><text class="cls-3" transform="translate(6.48 53.43)">6</text></g><g id="topLeftDetail"><path class="cls-2" d="M362.8,344.5h-7a18.28,18.28,0,0,1,2.58,9.51h-.52s-.74-5.7-5.18-5.7-5.7,5.07-5.7,7,2.17,6.48,5.84,10.53a50.06,50.06,0,0,1,6.48,9.75,48.77,48.77,0,0,1,6.92-9.75c4.84-5.46,5.48-8.63,5.48-9.9s-.64-7-5.08-7-5.07,2.53-5.07,5.07h-.63S360.27,350.84,362.8,344.5Z" transform="translate(-119.2 -67)"/><text class="cls-3" transform="translate(254.11 314.12) rotate(180)">6</text></g></g></g></svg>