<svg id="Layer_1" data-name="Layer 1" xmlns="http://www.w3.org/2000/svg" viewBox="0 0 261.61 366"><defs><style>.cls-1{fill:#fff;stroke:#000;stroke-miterlimit:10;}.cls-2,.cls-3{fill:red;}.cls-3{font-size:55.76px;font-family:MyriadPro-Regular, Myriad Pro;}</style></defs><g id="_7Hearts" data-name="7Hearts"><rect id="cardBorder" class="cls-1" x="0.5" y="0.5" width="260.61" height="365" rx="8.5"/><g id="details"><g id="face"><path class="cls-2" d="M187.32,166.61s8-17,16-25,11-15,11-24-4-18-14-18-13,12.31-13,12.31" transform="translate(-119.2 -67)"/><path class="cls-2" d="M187.32,166.61s-8-17-16-25-11-15-11-24,4-18,14-18,13,12.31,13,12.31" transform="translate(-119.2 -67)"/><path class="cls-2" d="M312.68,167.39s8-17,16-25,11-15,11-24-4-18-14-18-13,12.32-13,12.32" transform="translate(-119.2 -67)"/><path class="cls-2" d="M312.68,167.39s-8-17-16-25-11-15-11-24,4-18,14-18,13,12.32,13,12.32" transform="translate(-119.2 -67)"/><path class="cls-2" d="M250.68,225.39s8-17,16-25,11-15,11-24-4-18-14-18-13,12.32-13,12.32" transform="translate(-119.2 -67)"/><path class="cls-2" d="M250.68,225.39s-8-17-16-25-11-15-11-24,4-18,14-18,13,12.32,13,12.32" transform="translate(-119.2 -67)"/><path class="cls-2" d="M312.68,333.39s-8,17-16,25-11,15-11,24,4,18,14,18,13-12.31,13-12.31" transform="translate(-119.2 -67)"/><path class="cls-2" d="M312.68,333.39s8,17,16,25,11,15,11,24-4,18-14,18-13-12.31-13-12.31" transform="translate(-119.2 -67)"/><path class="cls-2" d="M312.68,279.39s8-17,16-25,11-15,11-24-4-18-14-18-13,12.32-13,12.32" transform="translate(-119.2 -67)"/><path class="cls-2" d="M312.68,279.39s-8-17-16-25-11-15-11-24,4-18,14-18,13,12.32,13,12.32" transform="translate(-119.2 -67)"/><path class="cls-2" d="M187.68,333.39s-8,17-16,25-11,15-11,24,4,18,14,18,13-12.31,13-12.31" transform="translate(-119.2 -67)"/><path class="cls-2" d="M187.68,333.39s8,17,16,25,11,15,11,24-4,18-14,18-13-12.31-13-12.31" transform="translate(-119.2 -67)"/><path class="cls-2" d="M187.68,279.39s8-17,16-25,11-15,11-24-4-18-14-18-13,12.32-13,12.32" transform="translate(-119.2 -67)"/><path class="cls-2" d="M187.68,279.39s-8-17-16-25-11-15-11-24,4-18,14-18,13,12.32,13,12.32" transform="translate(-119.2 -67)"/></g><g id="bottomRightDetail"><g id="heart"><path class="cls-2" d="M362.61,340.23s-3.62,7.7-7.25,11.33-5,6.8-5,10.88,1.82,8.16,6.35,8.16,5.89-5.59,5.89-5.59" transform="translate(-119.2 -67)"/><path class="cls-2" d="M362.61,340.23s3.63,7.7,7.25,11.33,5,6.8,5,10.88-1.81,8.16-6.35,8.16-5.89-5.59-5.89-5.59" transform="translate(-119.2 -67)"/></g><text class="cls-3" transform="translate(257.4 309.32) rotate(180) scale(0.98 1)">7</text></g><g id="topLeftDetail"><g id="heart-2" data-name="heart"><path class="cls-2" d="M137.39,159.77s3.62-7.7,7.25-11.33,5-6.8,5-10.88-1.82-8.16-6.35-8.16-5.89,5.59-5.89,5.59" transform="translate(-119.2 -67)"/><path class="cls-2" d="M137.39,159.77s-3.63-7.7-7.25-11.33-5-6.8-5-10.88,1.81-8.16,6.35-8.16,5.89,5.59,5.89,5.59" transform="translate(-119.2 -67)"/></g><text class="cls-3" transform="translate(4.21 56.68) scale(0.98 1)">7</text></g></g></g></svg>