<svg id="Layer_1" data-name="Layer 1" xmlns="http://www.w3.org/2000/svg" viewBox="0 0 261.61 366"><defs><style>.cls-1{fill:#fff;stroke:#000;stroke-miterlimit:10;}.cls-2{font-size:55.76px;font-family:MyriadPro-Regular, Myriad Pro;}</style></defs><g id="_8Clubs" data-name="8Clubs"><rect id="cardBorder" class="cls-1" x="0.5" y="0.5" width="260.61" height="365" rx="8.5"/><g id="details"><g id="face"><g id="club"><path d="M194.21,332.14h-12.9a38.23,38.23,0,0,1,8.3,24.12h-1.16s-2.28-13.79-14.92-13.79-13.78,12.64-13.78,16.08,2.3,13.78,12.64,13.78,10.33-3.44,10.33-3.44l1.15,1.15S177,373.48,177,382.67s5.74,13.78,14.93,13.78" transform="translate(-119.2 -67)"/><path d="M189,332.14h12.9a38.21,38.21,0,0,0-8.31,24.12h1.16s2.29-13.79,14.92-13.79,13.78,12.64,13.78,16.08-2.3,13.78-12.63,13.78-10.34-3.44-10.34-3.44L199.37,370s6.9,3.44,6.9,12.63-5.75,13.78-14.93,13.78" transform="translate(-119.2 -67)"/></g><g id="club-2" data-name="club"><path d="M311,332.55h-12.9a38.21,38.21,0,0,1,8.31,24.12h-1.16s-2.29-13.79-14.92-13.79S276.51,355.52,276.51,359s2.3,13.78,12.63,13.78,10.34-3.44,10.34-3.44l1.15,1.15s-6.9,3.44-6.9,12.63,5.75,13.78,14.93,13.78" transform="translate(-119.2 -67)"/><path d="M305.79,332.55h12.9a38.23,38.23,0,0,0-8.3,24.12h1.16s2.28-13.79,14.92-13.79,13.78,12.64,13.78,16.08-2.3,13.78-12.64,13.78-10.33-3.44-10.33-3.44l-1.15,1.15s6.89,3.44,6.89,12.63-5.74,13.78-14.93,13.78" transform="translate(-119.2 -67)"/></g><g id="club-3" data-name="club"><path d="M254,274.55h-12.9a38.21,38.21,0,0,1,8.31,24.12h-1.16s-2.29-13.79-14.92-13.79S219.51,297.52,219.51,301s2.3,13.78,12.63,13.78,10.34-3.44,10.34-3.44l1.15,1.15s-6.9,3.44-6.9,12.63,5.75,13.78,14.93,13.78" transform="translate(-119.2 -67)"/><path d="M248.79,274.55h12.9a38.23,38.23,0,0,0-8.3,24.12h1.16s2.28-13.79,14.92-13.79,13.78,12.64,13.78,16.08-2.3,13.78-12.64,13.78-10.33-3.44-10.33-3.44l-1.15,1.15s6.89,3.44,6.89,12.63-5.74,13.78-14.93,13.78" transform="translate(-119.2 -67)"/></g><g id="club-4" data-name="club"><path d="M305.79,284.86h12.9a38.23,38.23,0,0,1-8.3-24.12h1.16s2.28,13.79,14.92,13.79,13.78-12.64,13.78-16.08-2.3-13.78-12.64-13.78-10.33,3.44-10.33,3.44L316.13,247s6.89-3.44,6.89-12.63-5.74-13.78-14.93-13.78" transform="translate(-119.2 -67)"/><path d="M311,284.86h-12.9a38.21,38.21,0,0,0,8.31-24.12h-1.16s-2.29,13.79-14.92,13.79-13.78-12.64-13.78-16.08,2.3-13.78,12.63-13.78,10.34,3.44,10.34,3.44l1.15-1.15s-6.9-3.44-6.9-12.63,5.75-13.78,14.93-13.78" transform="translate(-119.2 -67)"/></g><g id="club-5" data-name="club"><path d="M189,284.45h12.9a38.21,38.21,0,0,1-8.31-24.12h1.16s2.29,13.79,14.92,13.79,13.78-12.64,13.78-16.08-2.3-13.78-12.63-13.78-10.34,3.44-10.34,3.44l-1.15-1.15s6.9-3.44,6.9-12.63-5.75-13.78-14.93-13.78" transform="translate(-119.2 -67)"/><path d="M194.21,284.45h-12.9a38.23,38.23,0,0,0,8.3-24.12h-1.16s-2.28,13.79-14.92,13.79S159.75,261.48,159.75,258s2.3-13.78,12.64-13.78,10.33,3.44,10.33,3.44l1.15-1.15S177,243.11,177,233.92s5.74-13.78,14.93-13.78" transform="translate(-119.2 -67)"/></g><g id="club-6" data-name="club"><path d="M246.79,225.86h12.9a38.23,38.23,0,0,1-8.3-24.12h1.16s2.28,13.79,14.92,13.79,13.78-12.64,13.78-16.08-2.3-13.78-12.64-13.78-10.33,3.44-10.33,3.44L257.13,188s6.89-3.44,6.89-12.63-5.74-13.78-14.93-13.78" transform="translate(-119.2 -67)"/><path d="M252,225.86h-12.9a38.21,38.21,0,0,0,8.31-24.12h-1.16s-2.29,13.79-14.92,13.79-13.78-12.64-13.78-16.08,2.3-13.78,12.63-13.78,10.34,3.44,10.34,3.44l1.15-1.15s-6.9-3.44-6.9-12.63,5.75-13.78,14.93-13.78" transform="translate(-119.2 -67)"/></g><g id="club-7" data-name="club"><path d="M305.79,167.86h12.9a38.23,38.23,0,0,1-8.3-24.12h1.16s2.28,13.79,14.92,13.79,13.78-12.64,13.78-16.08-2.3-13.78-12.64-13.78-10.33,3.44-10.33,3.44L316.13,130s6.89-3.44,6.89-12.63-5.74-13.78-14.93-13.78" transform="translate(-119.2 -67)"/><path d="M311,167.86h-12.9a38.21,38.21,0,0,0,8.31-24.12h-1.16s-2.29,13.79-14.92,13.79-13.78-12.64-13.78-16.08,2.3-13.78,12.63-13.78,10.34,3.44,10.34,3.44l1.15-1.15s-6.9-3.44-6.9-12.63,5.75-13.78,14.93-13.78" transform="translate(-119.2 -67)"/></g><g id="club-8" data-name="club"><path d="M189,167.45h12.9a38.21,38.21,0,0,1-8.31-24.12h1.16s2.29,13.79,14.92,13.79,13.78-12.64,13.78-16.08-2.3-13.78-12.63-13.78-10.34,3.44-10.34,3.44l-1.15-1.15s6.9-3.44,6.9-12.63-5.75-13.78-14.93-13.78" transform="translate(-119.2 -67)"/><path d="M194.21,167.45h-12.9a38.23,38.23,0,0,0,8.3-24.12h-1.16s-2.28,13.79-14.92,13.79S159.75,144.48,159.75,141s2.3-13.78,12.64-13.78,10.33,3.44,10.33,3.44l1.15-1.15S177,126.11,177,116.92s5.74-13.78,14.93-13.78" transform="translate(-119.2 -67)"/></g></g><g id="bottomRightDetail"><g id="club-9" data-name="club"><path d="M362.74,343.46h-5.51a16.34,16.34,0,0,1,3.55,10.31h-.5s-1-5.89-6.38-5.89-5.89,5.4-5.89,6.88,1,5.89,5.4,5.89,4.42-1.48,4.42-1.48l.49.5a6,6,0,0,0-2.94,5.4c0,3.92,2.45,5.89,6.38,5.89" transform="translate(-119.2 -67)"/><path d="M360.53,343.46h5.52a16.34,16.34,0,0,0-3.55,10.31H363s1-5.89,6.38-5.89,5.89,5.4,5.89,6.88-1,5.89-5.4,5.89-4.42-1.48-4.42-1.48l-.49.5a6,6,0,0,1,2.95,5.4c0,3.92-2.46,5.89-6.39,5.89" transform="translate(-119.2 -67)"/></g><text class="cls-2" transform="translate(257.4 309.32) rotate(180) scale(0.98 1)">8</text></g><g id="topLeftDetail"><g id="club-10" data-name="club"><path d="M137.26,156.54h5.51a16.34,16.34,0,0,1-3.55-10.31h.5s1,5.89,6.38,5.89,5.89-5.4,5.89-6.88-1-5.89-5.4-5.89-4.42,1.48-4.42,1.48l-.49-.5a6,6,0,0,0,2.94-5.4c0-3.92-2.45-5.89-6.38-5.89" transform="translate(-119.2 -67)"/><path d="M139.47,156.54H134a16.34,16.34,0,0,0,3.55-10.31H137s-1,5.89-6.38,5.89-5.89-5.4-5.89-6.88,1-5.89,5.4-5.89,4.42,1.48,4.42,1.48l.49-.5a6,6,0,0,1-3-5.4c0-3.92,2.46-5.89,6.39-5.89" transform="translate(-119.2 -67)"/></g><text class="cls-2" transform="translate(4.21 56.68) scale(0.98 1)">8</text></g></g></g></svg>