<svg id="Layer_1" data-name="Layer 1" xmlns="http://www.w3.org/2000/svg" viewBox="0 0 261.61 366"><defs><style>.cls-1{fill:#fff;stroke:#000;stroke-miterlimit:10;}.cls-2{font-size:8.6px;}.cls-2,.cls-28,.cls-29{font-family:MyriadPro-Regular, Myriad Pro;}.cls-3{letter-spacing:0em;}.cls-4{letter-spacing:0em;}.cls-5{letter-spacing:-0.03em;}.cls-6{letter-spacing:-0.01em;}.cls-7{letter-spacing:-0.01em;}.cls-8{letter-spacing:-0.01em;}.cls-9{letter-spacing:-0.01em;}.cls-10{letter-spacing:0em;}.cls-11{letter-spacing:0em;}.cls-12{letter-spacing:0em;}.cls-13{letter-spacing:0em;}.cls-14{font-size:5.73px;}.cls-15{letter-spacing:0em;}.cls-16{letter-spacing:0em;}.cls-17{letter-spacing:0em;}.cls-18{letter-spacing:0em;}.cls-19{letter-spacing:-0.01em;}.cls-20{letter-spacing:-0.01em;}.cls-21{letter-spacing:-0.01em;}.cls-22{letter-spacing:-0.01em;}.cls-23{fill:#070707;}.cls-24{font-size:26.47px;}.cls-24,.cls-27{font-family:Noteworthy-Light, Noteworthy;font-weight:300;}.cls-25{letter-spacing:-0.04em;}.cls-26{letter-spacing:-0.09em;}.cls-27{font-size:47.48px;}.cls-28{font-size:17.7px;}.cls-29{font-size:54.52px;}</style></defs><g id="ASpades"><rect id="cardBorder" class="cls-1" x="0.5" y="0.5" width="260.61" height="365" rx="8.5"/><g id="details"><g id="face"><text id="Please_don_t_sue_me_for_copyright_infingement._All_tradmarked_items_can_be_removed_on_request" data-name="Please don’t sue me for copyright infingement. All tradmarked items can be removed on request" class="cls-2" transform="translate(71.33 277.2)"><tspan class="cls-3">P</tspan><tspan class="cls-4" x="4.53" y="0">lease do</tspan><tspan class="cls-5" x="34.12" y="0">n</tspan><tspan class="cls-6" x="38.61" y="0">’</tspan><tspan x="40.29" y="0">t sue me </tspan><tspan class="cls-7" x="72.54" y="0">f</tspan><tspan class="cls-4" x="74.94" y="0">or </tspan><tspan class="cls-8" x="84.29" y="0">c</tspan><tspan x="88.09" y="0">o</tspan><tspan class="cls-9" x="92.81" y="0">p</tspan><tspan x="97.64" y="0">y</tspan><tspan class="cls-10" x="101.69" y="0">r</tspan><tspan class="cls-11" x="104.54" y="0">ig</tspan><tspan class="cls-12" x="111.36" y="0">h</tspan><tspan x="116.1" y="0">t</tspan><tspan x="36.48" y="10.32">infingeme</tspan><tspan class="cls-12" x="73.13" y="10.32">n</tspan><tspan class="cls-13" x="77.86" y="10.32">t</tspan><tspan x="80.68" y="10.32">.</tspan><tspan class="cls-14"><tspan class="cls-15" x="1.33" y="17.2">A</tspan><tspan class="cls-16" x="4.83" y="17.2">ll t</tspan><tspan class="cls-17" x="10.64" y="17.2">r</tspan><tspan class="cls-16" x="12.49" y="17.2">adma</tspan><tspan class="cls-18" x="26.03" y="17.2">r</tspan><tspan x="27.93" y="17.2">ked i</tspan><tspan class="cls-19" x="39.28" y="17.2">t</tspan><tspan class="cls-16" x="41.14" y="17.2">ems can be </tspan><tspan class="cls-20" x="69.35" y="17.2">r</tspan><tspan x="71.17" y="17.2">em</tspan><tspan class="cls-21" x="78.82" y="17.2">o</tspan><tspan class="cls-20" x="81.93" y="17.2">v</tspan><tspan x="84.63" y="17.2">ed on </tspan><tspan class="cls-22" x="99.49" y="17.2">r</tspan><tspan x="101.31" y="17.2">equest</tspan></tspan></text><path class="cls-23" d="M233.05,324h34.16s-12.59-18.49-12.59-46.24h2.57s3.6,27.75,25.18,27.75,27.74-24.66,27.74-33.91-10.6-31.53-28.42-51.22S250.17,173,250.17,173,240,193.87,216.5,220.42s-26.61,42-26.61,48.14,3.08,33.9,24.66,33.9,24.66-12.33,24.66-24.66h3.08S245.38,293.22,233.05,324Z" transform="translate(-119.2 -67)"/><text class="cls-24" transform="translate(106.95 77.72)">I<tspan class="cls-25" x="5.69" y="0">C</tspan><tspan class="cls-26" x="20.35" y="0">Y</tspan><tspan x="34.18" y="0">CLE</tspan></text><text class="cls-27" transform="translate(76.74 95.34)">B</text><text class="cls-28" transform="translate(117.19 98.26)">808</text></g><g id="bottomRight"><path class="cls-23" d="M362.8,344.5h-7a18.28,18.28,0,0,1,2.58,9.51h-.52s-.74-5.7-5.18-5.7-5.7,5.07-5.7,7,2.17,6.48,5.84,10.53a50.06,50.06,0,0,1,6.48,9.75,48.77,48.77,0,0,1,6.92-9.75c4.84-5.46,5.48-8.63,5.48-9.9s-.64-7-5.08-7-5.07,2.53-5.07,5.07h-.63S360.27,350.84,362.8,344.5Z" transform="translate(-119.2 -67)"/><text class="cls-29" transform="translate(254.11 314.12) rotate(180)">A</text></g><g id="topLeft"><path class="cls-23" d="M136.17,160.3h7a18.17,18.17,0,0,1-2.59-9.5h.53s.74,5.7,5.17,5.7,5.71-5.07,5.71-7S149.84,143,146.18,139a49.83,49.83,0,0,1-6.49-9.75,48.25,48.25,0,0,1-6.92,9.75c-4.84,5.46-5.47,8.63-5.47,9.89s.63,7,5.07,7,5.07-2.54,5.07-5.07h.63S138.71,154,136.17,160.3Z" transform="translate(-119.2 -67)"/><text class="cls-29" transform="translate(6.48 53.43)">A</text></g></g></g></svg>