<svg id="Layer_1" data-name="Layer 1" xmlns="http://www.w3.org/2000/svg" viewBox="0 0 261.61 366"><defs><style>.cls-1,.cls-23{fill:#fff;}.cls-1{stroke:#000;stroke-miterlimit:10;}.cls-2{font-size:8.6px;}.cls-2,.cls-29{font-family:MyriadPro-Regular, Myriad Pro;}.cls-3{letter-spacing:0em;}.cls-4{letter-spacing:0em;}.cls-5{letter-spacing:-0.03em;}.cls-6{letter-spacing:-0.01em;}.cls-7{letter-spacing:-0.01em;}.cls-8{letter-spacing:-0.01em;}.cls-9{letter-spacing:-0.01em;}.cls-10{letter-spacing:0em;}.cls-11{letter-spacing:0em;}.cls-12{letter-spacing:0em;}.cls-13{letter-spacing:0em;}.cls-14{font-size:5.73px;}.cls-15{letter-spacing:0em;}.cls-16{letter-spacing:0em;}.cls-17{letter-spacing:0em;}.cls-18{letter-spacing:0em;}.cls-19{letter-spacing:-0.01em;}.cls-20{letter-spacing:-0.01em;}.cls-21{letter-spacing:-0.01em;}.cls-22{letter-spacing:-0.01em;}.cls-24{font-size:36.01px;}.cls-24,.cls-27{font-family:Noteworthy-Light, Noteworthy;font-weight:300;}.cls-25{letter-spacing:-0.07em;}.cls-26{letter-spacing:0em;}.cls-27{font-size:64.6px;}.cls-28{font-size:63.29px;font-family:TimesNewRomanPSMT, Times New Roman;}.cls-29{font-size:90.34px;}</style></defs><g id="Joker"><rect id="cardBorder" class="cls-1" x="0.5" y="0.5" width="260.61" height="365" rx="8.5"/><g id="details"><g id="face"><text id="Please_don_t_sue_me_for_copyright_infingement._All_tradmarked_items_can_be_removed_on_request" data-name="Please don’t sue me for copyright infingement. All tradmarked items can be removed on request" class="cls-2" transform="translate(71.33 308.2)"><tspan class="cls-3">P</tspan><tspan class="cls-4" x="4.53" y="0">lease do</tspan><tspan class="cls-5" x="34.12" y="0">n</tspan><tspan class="cls-6" x="38.61" y="0">’</tspan><tspan x="40.29" y="0">t sue me </tspan><tspan class="cls-7" x="72.54" y="0">f</tspan><tspan class="cls-4" x="74.94" y="0">or </tspan><tspan class="cls-8" x="84.29" y="0">c</tspan><tspan x="88.09" y="0">o</tspan><tspan class="cls-9" x="92.81" y="0">p</tspan><tspan x="97.64" y="0">y</tspan><tspan class="cls-10" x="101.69" y="0">r</tspan><tspan class="cls-11" x="104.54" y="0">ig</tspan><tspan class="cls-12" x="111.36" y="0">h</tspan><tspan x="116.1" y="0">t</tspan><tspan x="36.48" y="10.32">infingeme</tspan><tspan class="cls-12" x="73.13" y="10.32">n</tspan><tspan class="cls-13" x="77.86" y="10.32">t</tspan><tspan x="80.68" y="10.32">.</tspan><tspan class="cls-14"><tspan class="cls-15" x="1.33" y="17.2">A</tspan><tspan class="cls-16" x="4.83" y="17.2">ll t</tspan><tspan class="cls-17" x="10.64" y="17.2">r</tspan><tspan class="cls-16" x="12.49" y="17.2">adma</tspan><tspan class="cls-18" x="26.03" y="17.2">r</tspan><tspan x="27.93" y="17.2">ked i</tspan><tspan class="cls-19" x="39.28" y="17.2">t</tspan><tspan class="cls-16" x="41.14" y="17.2">ems can be </tspan><tspan class="cls-20" x="69.35" y="17.2">r</tspan><tspan x="71.17" y="17.2">em</tspan><tspan class="cls-21" x="78.82" y="17.2">o</tspan><tspan class="cls-20" x="81.93" y="17.2">v</tspan><tspan x="84.63" y="17.2">ed on </tspan><tspan class="cls-22" x="99.49" y="17.2">r</tspan><tspan x="101.31" y="17.2">equest</tspan></tspan></text><g id="j"><path class="cls-23" d="M300.7,347.08m-6.44-8.25-.64-.36c.24-.71.45-1.43.72-2.12,1.39-3.52,3-7,4.15-10.57,3.3-10.71,3.74-21.82,3.47-32.86-.26-10.76-3.18-20.83-11.26-28.71a3.17,3.17,0,0,1-.56-2c-.18-4.46,1-9.08-1.6-13.09,1.76-2.54,4.13-3,7-2.85,2.46.15,4.53-.65,5.46-3.66a11,11,0,0,1,3.9-4.89c1.83-1.41,2.95-2.87,2.77-5.16-.2-2.65,1.14-4.08,3.41-5.18,4.89-2.39,5.69-6,2.7-10.56a3.32,3.32,0,0,1-.4-2.73,3.76,3.76,0,0,0-.76-4.69c-1.82-2-3-4.26-1.39-7a6.47,6.47,0,0,0,.35-1.76c.64-3-.55-4-3.49-3.28a14.35,14.35,0,0,1-3.77.57c-3.44-.09-7-.89-10.29-.39s-6.25-.48-9.23-1.57a18,18,0,0,0-3-.69c-2.19-.4-4.39-.75-5.79-1l-2.34-3.22a9.72,9.72,0,0,0-2.85-.28,2,2,0,0,0-1.24,1.53,2.73,2.73,0,0,0,1.29,1.93c.49.21,1.36-.46,2.52-.93a15.19,15.19,0,0,1-2.66-.28c-.19-.06-.36-1-.2-1.11a4.45,4.45,0,0,1,1.67-.87,6,6,0,0,1,1.53-.06c1,2,1,3.69-1.3,4.73-2.08,1-3.2.08-5-4-.16,3.06-1.09,6,1.52,8.21.49.42,1.64.06,2.87.06l-2.32-1.84c.36-.43.79-1.25,1.07-1.21a3.91,3.91,0,0,1,2.38,1c1.12,1.59-.55,4-2.65,3.84a4.1,4.1,0,0,1-4-3.08c-.48-1.64-.83-3.32-1.26-5.08-.1.88-.2,1.68-.36,3.06l-1.27-1.86-2.61-.71-1.31,2.07-.58-2a43.9,43.9,0,0,1-1.84,6.55c-.34.79-1.93,1.42-2.95,1.42a2.88,2.88,0,0,1-2.17-1.77c-.14-.81.71-1.85,1.31-2.65.09-.12,1.17.51,1.79.79l-2.51,2.16c1.56-.19,2.74,0,3.43-.49,1.48-1.09,1.47-4.27-.11-5.64-.56-.5-1.93-.08-3.07-.08l-.12-.9-3.77,2.16c.46-6.72.86-13.24,1.45-19.75.06-.59,1.39-1.51,2.15-1.53,4.75-.1,9.5,0,14.25.11.62,0,1.22.75,1.83,1.15l-.31.69c-2.06,0-4.86-1-5.23,2.09-.25,2.1.5,4.32.83,6.67l-4,.21-.32-.76,1-.81-.29-.21-1.46,1.62c.66.38,1.31,1.07,2,1.1,4.3.19,4.3.14,3.4-4a2.15,2.15,0,0,1,.11-.63h4.16c-.18,2-.35,3.89-.52,5.76l1.76,1.15-.34.87-5.86-2.61-.3.77a44.2,44.2,0,0,0,5.26,2.38c.49.15,2-.9,2-1.39,0-4.2-.32-8.4-.37-12.6a9.06,9.06,0,0,1,.77-4.42c1.88-3.29,4.14-6.36,6.2-9.55.65-1,1.13-2.16,1.88-3.63-3.13,1.12-5.75,2.9-8.22,2.71-2.68-.21-5.22-2.25-8-3.59-2.42,2.25-4.89,4.85-8.89,5s-6.88-2-8.91-4.29c-2.87,1.86-5.24,3.78-7.93,5a8.51,8.51,0,0,1-8.91-.86,64.38,64.38,0,0,0,5.37,7.7c3,3.79,5.06,7.79,3.55,12.86-.44,1.47-.44,3.08-.84,4.57a2.49,2.49,0,0,1-1.32,1.47c-2.9,1.1-3.7,2.43-3.35,5.52.09.84,0,2.12-.45,2.51-2.06,1.58-4.17,2.86-7.07,1.44-3.35-1.64-6.08-.9-8.6,2a37.67,37.67,0,0,0-4,5.41,12.08,12.08,0,0,0-1.43,4c-.55,2.95-1,5.93-1.3,8.91A4.91,4.91,0,0,0,209,222c1.49,2,3.34,3.63,3.8,6.25.06.37.93.67,1.47.88.88.33,1.79.57,3.19,1-.45,2.27-.9,4.45-1.3,6.65a8.25,8.25,0,0,0-.15,2.32c.26,2.29.82,4.56.9,6.85.12,3.41.75,6.84-2.75,9.55-2.52,2-4.43,4.82-6.3,7.5-2.89,4.16-2.59,8.48.32,12.44a3.05,3.05,0,0,1,.12,2.47c-.68,1.86-1.76,3.57-2.41,5.43a98.24,98.24,0,0,0-4.91,35.23c.44,14.29,1.25,28.52,12.68,39.25a13.72,13.72,0,0,0,4.13,2.52,8,8,0,0,0,2.91.07v.3l-3.26.21,0,.3,16.82,1,0,.56-8.07.38,0,.5,13.49-.73v-.25l-3.21-.36,0-.48H246v-.52H237.4v-.72h12.85v-.72H240l15.51-4.36-1.24-.62.11-.31,4.27.55.1-.5-5.3-2.5.22-.65h2.48c6-.05,12.13,1.74,18.75-1.23-5,0-9.35.34-13.61-.08A57.37,57.37,0,0,0,238.83,352l.9,1.46-4.29,1.35a9.09,9.09,0,0,1,.73-1.21A51.11,51.11,0,0,0,245.63,338c.82-2,2.83-3.66,4.62-5.08,1.4-1.1,3.1-1.25,3.66,1.29.11.49,1.32,1.24,1.64,1.09a61.28,61.28,0,0,0,7.44-4,23.31,23.31,0,0,0,3.5-3.52l.75.28c1.48,9.38,6.56,16.05,14.78,20.55l-1.41.41h14.82l-3.16-.51,6.08-2.14c0-.88-.25-1.67,0-2.05M252.21,180.46c3.19.7,6.15,2,8.93-.36C259.6,177.34,256,177.42,252.21,180.46ZM216.61,364l.08.6h27V364Zm30-17.86a24,24,0,0,0,13.25-2.92l-6.85.69c-.68,2.16-2.49,2.34-5.58.28Zm.56,20,0-.37H223.85v.37Zm9-17.2.05-1H244.17v.11Zm-2.64-160.87c.44.43,1,1.27,1.31,1.21,2-.34,3.93-.9,5.89-1.38C258.34,186.5,256.43,190.31,253.54,188.13Zm22.73,161.7v-.28H264v.28ZM261.06,176.67a6,6,0,0,0-6.84.62Z" transform="translate(-119.2 -67)"/><path d="M298.39,344.31c-.29.38,0,1.17,0,2.05l-6.08,2.14,3.16.51H280.61l1.41-.41c-8.22-4.5-13.3-11.17-14.78-20.55l-.75-.28a23.31,23.31,0,0,1-3.5,3.52,61.28,61.28,0,0,1-7.44,4c-.32.15-1.53-.6-1.64-1.09-.56-2.54-2.26-2.39-3.66-1.29-1.79,1.42-3.8,3.08-4.62,5.08a51.11,51.11,0,0,1-9.46,15.56,9.09,9.09,0,0,0-.73,1.21l4.29-1.35-.9-1.46a57.37,57.37,0,0,1,22.42-1.81c4.26.42,8.6.08,13.61.08-6.62,3-12.73,1.18-18.75,1.23h-2.48l-.22.65,5.3,2.5-.1.5-4.27-.55-.11.31,1.24.62L240,359.87h10.29v.72H237.41v.72H246v.52h-9.45l0,.48,3.21.36v.25l-13.49.73,0-.5,8.07-.38,0-.56-16.82-1,0-.3,3.26-.21v-.3a8,8,0,0,1-2.91-.07,13.72,13.72,0,0,1-4.13-2.52c-11.43-10.73-12.24-25-12.68-39.25a98.24,98.24,0,0,1,4.91-35.23c.65-1.86,1.73-3.57,2.41-5.43a3.05,3.05,0,0,0-.12-2.47c-2.91-4-3.21-8.28-.32-12.44,1.87-2.68,3.78-5.54,6.3-7.5,3.5-2.71,2.87-6.14,2.75-9.55-.08-2.29-.64-4.56-.9-6.85a8.25,8.25,0,0,1,.15-2.32c.4-2.2.85-4.38,1.3-6.65-1.4-.43-2.31-.67-3.19-1-.54-.21-1.41-.51-1.47-.88-.46-2.62-2.31-4.29-3.8-6.25a4.91,4.91,0,0,1-.44-3.17c.32-3,.75-6,1.3-8.91a12.08,12.08,0,0,1,1.43-4,37.67,37.67,0,0,1,4-5.41c2.52-2.87,5.25-3.61,8.6-2,2.9,1.42,5,.14,7.07-1.44.5-.39.54-1.67.45-2.51-.35-3.09.45-4.42,3.35-5.52A2.49,2.49,0,0,0,236,187.6c.4-1.49.4-3.1.84-4.57,1.51-5.07-.52-9.07-3.55-12.86a64.38,64.38,0,0,1-5.37-7.7,8.51,8.51,0,0,0,8.91.86c2.69-1.24,5.06-3.16,7.93-5,2,2.28,4.8,4.49,8.91,4.29s6.47-2.8,8.89-5c2.81,1.34,5.35,3.38,8,3.59,2.47.19,5.09-1.59,8.22-2.71-.75,1.47-1.23,2.61-1.88,3.63-2.06,3.19-4.32,6.26-6.2,9.55A9.06,9.06,0,0,0,270,176c0,4.2.37,8.4.37,12.6,0,.49-1.47,1.54-2,1.39a44.2,44.2,0,0,1-5.26-2.38l.3-.77,5.86,2.61.34-.87-1.76-1.15c.17-1.87.34-3.74.52-5.76h-4.16a2.15,2.15,0,0,0-.11.63c.9,4.16.9,4.21-3.4,4-.68,0-1.33-.72-2-1.1l1.46-1.62.29.21-1,.81.32.76,4-.21c-.33-2.35-1.08-4.57-.83-6.67.37-3.08,3.17-2.05,5.23-2.09l.31-.69c-.61-.4-1.21-1.13-1.83-1.15-4.75-.14-9.5-.21-14.25-.11-.76,0-2.09.94-2.15,1.53-.59,6.51-1,13-1.45,19.75l3.77-2.16.12.9c1.14,0,2.51-.42,3.07.08,1.58,1.37,1.59,4.55.11,5.64-.69.49-1.87.3-3.43.49l2.51-2.16c-.62-.28-1.7-.91-1.79-.79-.6.8-1.45,1.84-1.31,2.65a2.88,2.88,0,0,0,2.17,1.77c1,0,2.61-.63,2.95-1.42a43.9,43.9,0,0,0,1.84-6.55l.58,2,1.31-2.07,2.61.71,1.27,1.86c.16-1.38.26-2.18.36-3.06.43,1.76.78,3.44,1.26,5.08a4.1,4.1,0,0,0,4,3.08c2.1.12,3.77-2.25,2.65-3.84a3.91,3.91,0,0,0-2.38-1c-.28,0-.71.78-1.07,1.21l2.32,1.84c-1.23,0-2.38.36-2.87-.06-2.61-2.19-1.68-5.15-1.52-8.21,1.83,4.07,2.95,4.95,5,4,2.26-1,2.28-2.76,1.3-4.73l-.06.06,2.34,3.23c1.4.24,3.6.59,5.79,1a18,18,0,0,1,3,.69c3,1.09,5.79,2.1,9.23,1.57s6.85.3,10.29.39a14.35,14.35,0,0,0,3.77-.57c2.94-.76,4.13.33,3.49,3.28a6.47,6.47,0,0,1-.35,1.76c-1.57,2.78-.43,5,1.39,7a3.76,3.76,0,0,1,.76,4.69,3.32,3.32,0,0,0,.4,2.73c3,4.58,2.19,8.17-2.7,10.56-2.27,1.1-3.61,2.53-3.41,5.18.18,2.29-.94,3.75-2.77,5.16a11,11,0,0,0-3.9,4.89c-.93,3-3,3.81-5.46,3.66-2.9-.17-5.27.31-7,2.85,2.57,4,1.42,8.63,1.6,13.09a3.17,3.17,0,0,0,.56,2c8.08,7.88,11,18,11.26,28.71.27,11-.17,22.15-3.47,32.86-1.11,3.61-2.76,7.05-4.15,10.57-.27.69-.48,1.41-.72,2.12l.64.36m-15.58-138,4.1-3.68-5.8-.8c.75,2,1.22,3.23,1.7,4.49l-4.13-1.74c.26,1.45.44,2.4.63,3.4Zm-45,4.24,2.65,3.65,4.14,6.75c0,.09,0,.19,0,.25,1.11,2.12,1.86,4.6,3.48,6.18.89.86,3.29,0,5,.22a4.46,4.46,0,0,0,5-2.5l11-9.39-.07.07,6.74-5-4-1.53.06.07-.79-1.68c-2.19,1.75-4.3,3.35-6.31,5.07-2.59,2.2-5.09,4.48-7.63,6.73l-4.3,3.19c-1-1.56-1.75-3-2.65-4.31s-2-2.74-2.93-4.1l-5-8.79-.73.43a39.22,39.22,0,0,0,2.08,3.63c1.14,1.63,2.42,3.16,3.65,4.73l.57,2.57-5.51.62,3.08-3.86-4.91.71,2.58-4.12-5.21.47,3-3.71-5.09.46c.86-1.49,1.5-2.62,2.15-3.74l-.47-.55-3.68,2.13Zm68,33.54c-.95-.25-2.36-.2-2.78-.81-1.63-2.43-3.34-1-4.71-.75l2.59,4.22-.8.59-3.08-2.68-3.5,2.78c.34,2.4,1.74,3.12,3.86,2.87,1-.12,2.06-.18,3.1-.24a3.34,3.34,0,0,0,3.33-2.66,16.25,16.25,0,0,1,2-3.31c.74-.72,1.44-1.5,2.24-2.14,1.27-1,2.67-1.91,2.15-4l-1.52.64c-.18-4.66,4.17-5.48,6.85-8.06l-3.42-1.88.6.91c-1.32.94-2.63,1.92-4,2.82-3.88,2.61-4.17,4.15-1.37,7.51-1.22,1.35-1.22,1.35-3.46-.41C298.41,236.48,300.94,237.17,301.65,238.59Zm-83,70.79,1.77-.24c-.15-.63-.11-1.42-.49-1.85-1.54-1.74-3.21-3.36-4.82-5-1.45-1.51-2.89-3-4.33-4.54l-.74.25q-.69,9.12-1.38,18.23c-.06.82,0,1.65,0,2.92,4.18-2,8.24-3.24,11.69-5.64l-.31-.67H210v-.28l10.84-.74-2.12-2.46Zm58.86,23.88h0c1.15,1.36,2.07,3.11,3.52,4,2,1.2,3.35.09,3.39-2.34.07-4.32.1-8.64.13-13,0-2.69,0-5.38,0-8.16-3,2.58-6.06,5.12-9,7.71-.41.36-.93,1.06-.83,1.46C275.59,326.42,276.59,329.84,277.55,333.26Zm-54.64-15.87.05,0c-.61-1.65-1.22-.58-1.78,0-2.08,2.2-4.14,4.41-6.21,6.62-.82.88-1.64,1.77-2.47,2.65s-1.54,1.61-2.31,2.41c3.45-4.9,7.9-8.91,10.95-14.12a85.91,85.91,0,0,0-11.33,4.66,3,3,0,0,0-1.07,2.35c.12,3.27,0,6.64.83,9.77a104.72,104.72,0,0,0,4.78,14.05,7.88,7.88,0,0,0,5.84,4.89c1.56-11.21,3.08-22.19,4.61-33.23Zm-8.67-43.2.73.23c-.45.78-.91,1.55-1.35,2.33a56.86,56.86,0,0,0-3.5,6.33A79.27,79.27,0,0,0,204.36,308c-.79,12.68-.85,25.31,4.41,37.2a25,25,0,0,0,6.21,8.47c5.9,5.17,13.7,4.22,18.84-1.93,2.13-2.54,3.93-5.37,5.88-8.06l.39.22-4.77,7.94c5.37-4.75,7.83-11.16,10.27-17.58a.81.81,0,0,0,0-.51c-1.08-3.44.36-6.43,1.63-9.47a18.75,18.75,0,0,0,1.57-4.63,102.6,102.6,0,0,0-.32-31.24,36.38,36.38,0,0,0-8.15-18.23,7.2,7.2,0,0,0,.59,3.71c4.07,6.67,5.86,14.1,6.56,21.66,1.6,17.12-.44,33.64-9.39,48.81a22.07,22.07,0,0,1-8.87,8.79c-5.78,3-11.4,1.83-14.61-3.75a55,55,0,0,1-5.64-14c-2.66-10.69-2.4-21.6-1.08-32.49a71.22,71.22,0,0,1,6.89-23.79c3.9-7.69,9.79-12.89,19.27-12a4.76,4.76,0,0,0-6-3.14,32.1,32.1,0,0,0-7.71,2.89c-7,3.9-10.53,10.54-13.65,17.64-4.31,9.79-6.5,29.39-3.73,40.07C202.79,306.75,203.2,289.21,214.24,274.19Zm74.95,25.6-.57-.27c.69-1.92,1.39-3.84,2.07-5.77.77-2.19,1.44-4.43,2.29-6.6,1.73-4.37.19-10.86-3.61-14.4-.61,6.09-1.1,12.08-1.82,18-.55,4.54-.25,8.78,2.12,12.9a5.44,5.44,0,0,1-.31,4.79c-1.63,2.42-1.36,4.67-.7,7.14.21.8.38,1.61.56,2.42l-.37.09c-.55-2-1.09-4-1.64-6l-1.17.1c-1.34,8-1.1,16.08-.5,24.33a19.72,19.72,0,0,0,4.21-4.91c3.86-6.85,5.17-14.41,5.7-22.13.16-2.22-.19-4.48-.16-6.72.06-3.83.32-7.66.31-11.48a43.78,43.78,0,0,0-.68-5.43l-.63,0Zm-45-140.5c-3.05,4.68-7.63,5.87-12.76,5.88,1.94,3.51,5.29,5.67,8.75,4.64,3.18-1,6.41-.9,9.49-1.6s5.74-1.26,9-.65c2.79.52,5.8-.64,8.73.73.86.4,2.66-.26,3.53-1a45.93,45.93,0,0,0,4.41-5.2c-3.86,1-7.9.35-10.62-2-.62-.54-2.66-.59-3-.1C257.43,165.37,248.17,164.12,244.19,159.29Zm-23,191.78c4.33.69,5.29,0,5.27-3.73,0-6.92-.12-13.83-.16-20.75,0-3,0-5.95,0-8.93h.67v32.42c4-1.46,4.81-2.93,4.29-6.54C230,335.25,229,327,227.79,318.67a9.45,9.45,0,0,0-1-2.29c-.48.74-1.29,1.44-1.41,2.23-.95,6.32-1.79,12.65-2.62,19C222.22,342,221.71,346.48,221.15,351.07Zm66.63-8.68c3.39-2.09,6.52-7.32,8.68-13.17,4.59-12.44,5.44-25.35,4.39-38.34-.44-5.49-2.24-11-4.09-16.21a20.1,20.1,0,0,0-8.16-10.16,2.65,2.65,0,0,0,.54,2.22c4.86,3.74,7.49,9,8.7,14.65a85.86,85.86,0,0,1-.86,39.81c-1.41,5.43-3.13,10.78-6.65,15.33-4.51,5.84-11.07,5.37-14.31-1.23-1.32-2.68-2-5.69-2.89-8.56-.25-.74-.41-1.51-.66-2.49a7.66,7.66,0,0,0-1.16.84,1,1,0,0,0-.23.71c1.15,5.72,2.41,11.43,7.36,15.27a7.09,7.09,0,0,0,9.63-.87c.9-.94,1.78-1.9,2.67-2.86l.57.52Q289.55,340.13,287.78,342.39Zm-45.73-19.86-.46.51-9.18-7.27-.75.48c2.17,5.11,5.22,9.75,8.49,14.92a70.06,70.06,0,0,0,3.75-26l-.85-.41-3.57,4.47,3.81.45,0,.7a9.46,9.46,0,0,0-2.68.18,4.08,4.08,0,0,0-2.26,1.67c-.2.46.7,1.63,1.36,2.17a31.83,31.83,0,0,0,3.71,2.3,24.7,24.7,0,0,0-3.78.83c-1.85.76-2.7.07-2.61-1.74.11-2.27-1.31-2.69-3.15-3-.22.64-.73,1.52-.55,1.69C236.16,317.19,239.12,319.85,242.05,322.53Zm10.41.89c-6.12,4.63-7,6.25-5.54,9.12,2.89-1.12,5.72-2.23,8.55-3.31.87-.34,2-.37,2.58-1a6.58,6.58,0,0,0,1.84-3.54c.09-1.68-1.09-2.83-3-2.86-.32,0-.64-.3-1.42-.71l2.8-.52c-.37-2.38-.71-4.59-1.06-6.79l-.83-.18c.22,2.92-4.11,3.67-2.91,6.78l-4,2.42.3.57Zm-31.9-17.81c.59-1.73-3.18-14-6.58-20.18-1.11,3.72-2.11,7-3,10.23a1.43,1.43,0,0,0,.23,1.19C214.27,299.8,217.42,302.7,220.56,305.61Zm47-52.64.32.28-2.15,2.45.3.32,2.74-1.53.18.32-1.85,2.53,3.57-1.89-1.9,2.52c5-1.41,5.17-7.42,10.35-9.48l-4.85-3.73-.45.57.57,1.6L265,248.12c1.13,1.07,1.73,1.63,2.57,2.44l-3.39,3.82.19.33Zm18.64,39.68c.52-.55.72-.67.73-.8.62-6.6,1.29-13.21,1.72-19.82,0-.62-1.44-1.81-2.31-1.9s-4.09,5.45-3.83,6.57C283.64,281.9,284.87,287.09,286.16,292.65Zm-1.58-47L282.8,243l2.14-2.32-1.61-1.41c-1.62.45-2.89,1.27-3.67.93-1.6-.68-.77-1.87,0-2.94.14-.2-.5-1-1-1.87l-4,7,6.8,6.07c1.5-.45,3.27-.86,4.95-1.52,2-.8,2.06-1.55.3-3.24Zm-3.45,56.83.43-.62-6.5-8.36.59-.47,6.16,7.65.52-.31q-3-6.53-6.1-13l-.82.15c-.63,5.33-1.25,10.67-2,16.56l6.28-1.42L275,299.56l.25-.39Zm-50.56,14.38-.71.33q3.25,11.22,6.5,22.42a30.9,30.9,0,0,0,3.26-7.22c.11-.35-.26-.91-.5-1.32-2-3.24-3.94-6.47-5.91-9.71C232.31,319.87,231.45,318.36,230.57,316.86ZM232.3,346a48.61,48.61,0,0,0,2.81-4.06,3.46,3.46,0,0,0,.35-2.33c-1.22-4.48-2.57-8.93-3.88-13.39L229,317.45l-.61.15C229.68,326.9,231,336.19,232.3,346Zm5.55-150.19,3.29-.87c-.22-.62-.3-1.66-.67-1.78a3.71,3.71,0,0,0-2.76,0c-1.28.85-2.12,2.4-.89,3.76a10.08,10.08,0,0,0,4.33,3.15,4.7,4.7,0,0,0,5.42-2.67,20.4,20.4,0,0,0,2-6.34c.56-4.8.76-9.64,1.06-14.47a5.09,5.09,0,0,0-.39-1.47,2.14,2.14,0,0,0-1.11,1.54c-.37,4.73-.69,9.46-1,14.19-.18,2.65-.61,5.3-2.82,7a4.88,4.88,0,0,1-3.75.71C239.51,198.23,238.82,196.85,237.85,195.81ZM274.4,320.2c3.29-2.84,6.36-5.4,9.31-8.1.4-.36.36-1.44.19-2.1-.12-.45-1-1.15-1.23-1.05-2.88,1.32-6,2.41-8.4,4.36-.92.74-.21,3.53-.21,5.39A10.16,10.16,0,0,0,274.4,320.2Zm-53-18.39c3.11-5.3.77-9.84-.42-14.66-2.19,1.48-3.87.79-5.59-.83ZM250,319.15c2.46-2,3.22-4,2.94-6.48s-1-4.93-1.07-7.41a153,153,0,0,1,0-16.17c.23-3.33-2-4.89-3.54-7.12C251.85,294.08,251.84,306.32,250,319.15Zm33.49-18.37.69-.28q-3.15-10.42-6.32-20.86l-1.15.11c-.08,2.18-.8,4.58-.12,6.49a126.78,126.78,0,0,0,5.57,11.95C282.62,299.07,283.09,299.92,283.53,300.78ZM266.9,211.72l-.64-.21a11,11,0,0,0-.75,3,61.2,61.2,0,0,0,.71,8.23,11.8,11.8,0,0,0,10.13,10c.54.09,1.18-.41,1.78-.64C268.64,229.48,266.25,223.9,266.9,211.72Zm-5.21,36.82c-3.25-5.51-18.75-12.67-23.54-10.09a44,44,0,0,1,22.57,10.24C260.88,248.82,261.33,248.6,261.69,248.54Zm-32.77-15.3.72.39a25.8,25.8,0,0,0,10.24-12.79,7,7,0,0,0-.17-2.62H239a30.65,30.65,0,0,1-9.29,13.12C229.28,231.73,229.19,232.6,228.92,233.24Zm44.66,7.62c-10.66-3.27-15.77-10.45-16.93-20.8-.67,5.55,1.23,10.19,4.57,14.33C264.73,238.74,270.13,241.8,273.58,240.86Zm-20.16,20c-3,3.28-6.35.45-9.94,1.17l8.35,7.09C251.29,265.9,255,264.27,253.42,260.84Zm26.86,16.75-.86-.09c-.13,1-.58,2-.33,2.91,1.73,6.23,3.6,12.42,5.44,18.62.25.85.57,1.67.85,2.51l.91-.28Q283.27,289.43,280.28,277.59ZM240.5,197.26l.24.79c.92-.19,2.26-.07,2.67-.64,1.18-1.6,2.47-3.38,2.81-5.26a100.94,100.94,0,0,0,1-11.29c.11-1.77,0-3.55,0-5.33l-.63-.1a5.14,5.14,0,0,0-.55,1.43c-.35,4.62-.64,9.24-1,13.87C244.89,193.79,244.25,196.57,240.5,197.26ZM221.72,244.8c1.13.88,4.07-.26,3,2.12-.86,1.91.13,2.77.45,4.26,2.06-2.29,2.93-7.79,1.64-9.82a1.65,1.65,0,0,0-1.22-.63C223.7,240.75,222,242.59,221.72,244.8Zm8.94,45.06c-3.21,4.59-1.74,8.81-.87,13.09a45.58,45.58,0,0,0,2.24-9.61C232.16,292.25,231.15,291,230.66,289.86Zm50.6,14.21c-1.23.33-2.87.79-4.52,1.21-3.53.89-3.83,1.45-2.61,5.32,2.26-1.06,4.51-2.08,6.71-3.2a1.68,1.68,0,0,0,.68-1.18A11,11,0,0,0,281.26,304.07ZM239.47,298c-2,2.76-4.8,4.52-4.71,8.46,1.88-.7,3.43-1.34,5-1.85,2-.64,2.17-2,1.52-3.65A22.16,22.16,0,0,0,239.47,298Zm3-102.71c1.66-1.83,3.44-17.37,2.41-19.31C243.45,177.65,242.41,185.81,242.46,195.26Zm-23,51.1c.38-5,2.49-7.16,7.32-7.58,1.8-.15,3.61-.08,5.41-.21a6.78,6.78,0,0,0,1.72-.64l-.22-.67c-4.36-.35-8.68-.35-12.54,2.28C218.42,241.39,217.91,243.32,219.47,246.36Zm18.24,12-.79.93,13.89,11.73.82-1Zm12.76,1.13v-.84l-10.84-.95C241.19,260.31,248.56,261,250.47,259.52Zm-7.33-83.23c-2,1.83-2.89,14.12-1.23,16.41Zm-9.95,135-2.69-3c-.87,1.32-2.15,2.55-2.52,4a2.28,2.28,0,0,0,2.39,2.93C232.35,315.12,232.71,313.53,233.19,311.32Zm41.6-30c-.9.8-1.39,1-1.5,1.36-.86,2.69-1.71,5.39-2.4,8.12-.08.32.85.9,1.81,1.84Zm36.09-66.1c.06-.86.12-1.57.18-2.47l-3.65.16c-.08,4.83,0,4.9,5.26,5.82a12.81,12.81,0,0,0-2.14-2.44,8.69,8.69,0,0,0-2.56-.68l.17-.7ZM233.4,261.46c3.25.86,4.57,3.23,4.72,6.17.17,3.43,0,6.89-.12,10.32-.12,2.47-.51,4.92-.77,7.38a39,39,0,0,0,1.55-8.61,76.9,76.9,0,0,0-.07-10.07C238.42,263.05,236.48,261.29,233.4,261.46ZM241,177.31l-.88-.06c-.67,4.55-1.44,9.09-1.06,13.71l1,.07Q240.49,184.16,241,177.31Zm14.47,53.53a39.8,39.8,0,0,0-1.35-5.27c-.16-.4-1.39-.38-2.13-.55a22.66,22.66,0,0,0,.12,5C252.2,230.49,254.07,230.53,255.46,230.84ZM239.07,178l-.94-.11c-.46,3.63-.94,7.25-1.32,10.88,0,.4.58.87,1.26,1.84C238.45,185.86,238.76,181.93,239.07,178Zm33.2,117.57c-2.48,1.67-3,6.7-.85,9.34C271.72,301.6,272,298.72,272.27,295.56Zm-46-59.67c-2.76-1.66-5.07-2-7.15-.12-.64.57-.7,1.81-1,2.75l.65.17c.37-1.3-.12-3.32,2.36-3l-.35,2.08Zm21.33-5.34c2.46,1.1,2.94.84,3-1.44,0-1.38,0-2.75-.08-4.13-.09-2.22-.24-2.29-2.91-1.4l2.53,1L248.86,226C250.7,228.06,250.65,228.26,247.64,230.55Zm-10.59,12.6-1.21-.07a21,21,0,0,0-.45,10l.81,0Zm11.89,32.11c1.47-2.75.1-4.57-5.41-7.07Zm21.66,47.19c1.93-1.28,2-5,.39-8.42C269.19,316.93,270.77,319.59,270.6,322.45ZM228,298.93l-1,0a51.29,51.29,0,0,0-.5,5.37c0,.48.91,1,1.41,1.45.27-.6.79-1.21.75-1.78C228.54,302.3,228.21,300.62,228,298.93Zm5.56,9.57.35.78c3.89.88,4.35.61,5.85-3.84Zm74.12-89.45c1.08,2.79,2.83,3.7,5.16,4.52.13-1.06.24-1.85.34-2.67Zm-84.11,73.6.6,0c.24-1.09.48-2.18.7-3.27.55-2.69.25-3-2.85-2.24Zm10.93-95.84.57-.27,2.3-5.25c-1.15.12-2.54.59-2.84,1.44C234.06,193.94,234.43,195.44,234.46,196.81Zm6.63,32.66,1.48-1.69-2.28-1.62c.33,2.1.57,3.67.85,5.43l2.72-.34.06-.69ZM306.26,209c.77,3.88,3.06,2,4.84,2.34C310.58,207.84,308.14,209.94,306.26,209ZM264.78,311.08l-1.39-.06c-.1,1.3-.2,2.6-.29,3.91l2,0C265,313.66,264.89,312.37,264.78,311.08Zm40.1-105.68c1.32-1.16,4,.19,3.44-2.85l-4,.21C304.5,203.62,304.63,204.25,304.88,205.4Zm4.31,2.81c-.45-3.41-2.3-2.07-3.89-1.89C305.57,209.43,307.71,207.61,309.19,208.21ZM265.42,324.36c-1.1-.58-1.73-1.19-2.23-1.11s-1.17.8-1.74,1.24c.54.53,1.05,1.44,1.63,1.48S264.29,325.19,265.42,324.36Zm5.74-17.59h-.8v5.37h.8ZM261,227.28l-.26.74c.6.25,1.31.83,1.77.67a17.67,17.67,0,0,0,3-1.64l-.44-.85Zm10.27,6-.61-.77L267.41,236C269.66,236.58,269.73,236.52,271.29,233.3Zm-7-12.82c-3.8-.73-4.87-.14-4.2,2.2Zm9.82,13.68-.94-.47c-.68,1.08-1.41,2.15-2,3.27-.15.27,0,.76.17,1.1,0,.12.62.18.66.11C272.71,236.85,273.4,235.5,274.1,234.16Zm-9.11-.74.1.8c.56,0,1.38.16,1.65-.14a23.35,23.35,0,0,0,2-3l-.76-.45ZM302.94,200c2.3,1.58,5.08,1.42,6.41-.4Zm-39-22.42,0,.72,3.86.45-.18,1.8.58,0,.18-3.28Zm-28.84,12.65c-2.78.2-3.64,1.93-2.27,4.54Zm.92,90.06-.55,0-1.21,10.19.55.06C235.17,287.14,235.58,283.72,236,280.29Zm24.45-54.36,4.11-1.8C261.51,223.27,260.48,223.76,260.43,225.93Z" transform="translate(-119.2 -67)"/><path d="M252.21,180.46c3.8-3,7.39-3.12,8.93-.36C258.36,182.51,255.4,181.16,252.21,180.46Z" transform="translate(-119.2 -67)"/><path d="M216.61,364h27.11v.6h-27Z" transform="translate(-119.2 -67)"/><path d="M246.65,346.17l.82-1.95c3.09,2.06,4.9,1.88,5.58-.28l6.85-.69A24,24,0,0,1,246.65,346.17Z" transform="translate(-119.2 -67)"/><path d="M247.21,366.2H223.86v-.37h23.38Z" transform="translate(-119.2 -67)"/><path d="M256.18,349l-12-.86V348h12.06Z" transform="translate(-119.2 -67)"/><path d="M300.7,347.08" transform="translate(-119.2 -67)"/><path d="M253.54,188.13c2.89,2.18,4.8-1.63,7.2-.17-2,.48-3.91,1-5.89,1.38C254.49,189.4,254,188.56,253.54,188.13Z" transform="translate(-119.2 -67)"/><path d="M276.27,349.83H264v-.28h12.22Z" transform="translate(-119.2 -67)"/><path d="M261.06,176.67l-6.84.62A6,6,0,0,1,261.06,176.67Z" transform="translate(-119.2 -67)"/><path d="M273.75,191a6,6,0,0,0-1.53.06,4.45,4.45,0,0,0-1.67.87c-.16.13,0,1.05.2,1.11a15.19,15.19,0,0,0,2.66.28c-1.16.47-2,1.14-2.52.93a2.73,2.73,0,0,1-1.29-1.93,2,2,0,0,1,1.24-1.53,10,10,0,0,1,2.85.27Z" transform="translate(-119.2 -67)"/><path class="cls-23" d="M214.24,274.19c-11,15-11.45,32.56-11.34,50.32-2.77-10.68-.58-30.28,3.73-40.07,3.12-7.1,6.63-13.74,13.65-17.64a32.1,32.1,0,0,1,7.71-2.89,4.76,4.76,0,0,1,6,3.14c-9.48-.89-15.37,4.31-19.27,12a71.22,71.22,0,0,0-6.89,23.79c-1.32,10.89-1.58,21.8,1.08,32.49a55,55,0,0,0,5.64,14c3.21,5.58,8.83,6.74,14.61,3.75a22.07,22.07,0,0,0,8.87-8.79c8.95-15.17,11-31.69,9.39-48.81-.7-7.56-2.49-15-6.56-21.66a7.2,7.2,0,0,1-.59-3.71,36.38,36.38,0,0,1,8.15,18.23,102.6,102.6,0,0,1,.32,31.24,18.75,18.75,0,0,1-1.57,4.63c-1.27,3-2.71,6-1.63,9.47a.81.81,0,0,1,0,.51c-2.44,6.42-4.9,12.83-10.27,17.58l4.77-7.94-.39-.22c-1.95,2.69-3.75,5.52-5.88,8.06-5.14,6.15-12.94,7.1-18.84,1.93a25,25,0,0,1-6.21-8.47c-5.26-11.89-5.2-24.52-4.41-37.2a79.27,79.27,0,0,1,5.76-24.89,56.86,56.86,0,0,1,3.5-6.33c.44-.78.9-1.55,1.35-2.33Z" transform="translate(-119.2 -67)"/><path class="cls-23" d="M289.19,299.79l5.1-13.93.63,0a43.78,43.78,0,0,1,.68,5.43c0,3.82-.25,7.65-.31,11.48,0,2.24.32,4.5.16,6.72-.53,7.72-1.84,15.28-5.7,22.13a19.72,19.72,0,0,1-4.21,4.91c-.6-8.25-.84-16.33.5-24.33l1.17-.1c.55,2,1.09,4,1.64,6l.37-.09c-.18-.81-.35-1.62-.56-2.42-.66-2.47-.93-4.72.7-7.14a5.44,5.44,0,0,0,.31-4.79c-2.37-4.12-2.67-8.36-2.12-12.9.72-5.95,1.21-11.94,1.82-18,3.8,3.54,5.34,10,3.61,14.4-.85,2.17-1.52,4.41-2.29,6.6-.68,1.93-1.38,3.85-2.07,5.77Z" transform="translate(-119.2 -67)"/><path class="cls-23" d="M222.91,317.39l1.89.1c-1.53,11-3.05,22-4.61,33.23a7.88,7.88,0,0,1-5.84-4.89,104.72,104.72,0,0,1-4.78-14.05c-.79-3.13-.71-6.5-.83-9.77a3,3,0,0,1,1.07-2.35A85.91,85.91,0,0,1,221.14,315c-3,5.21-7.5,9.22-10.95,14.12.77-.8,1.55-1.6,2.31-2.41s1.65-1.77,2.47-2.65c2.07-2.21,4.13-4.42,6.21-6.62.56-.6,1.17-1.67,1.79,0q-4.87,12-9.76,24l.62.25a15.67,15.67,0,0,0,.88-1.54c2.74-6.69,5.49-13.36,8.14-20.08A7.71,7.71,0,0,0,222.91,317.39Z" transform="translate(-119.2 -67)"/><path class="cls-23" d="M244.19,159.29c4,4.83,13.24,6.08,17.44.66.38-.49,2.42-.44,3,.1,2.72,2.37,6.76,3,10.62,2a45.93,45.93,0,0,1-4.41,5.2c-.87.76-2.67,1.42-3.53,1-2.93-1.37-5.94-.21-8.73-.73-3.21-.61-5.9,0-9,.65s-6.31.64-9.49,1.6c-3.46,1-6.81-1.13-8.75-4.64C236.56,165.16,241.14,164,244.19,159.29Z" transform="translate(-119.2 -67)"/><path class="cls-23" d="M221.15,351.07c.56-4.59,1.07-9,1.65-13.48.83-6.33,1.67-12.66,2.62-19,.12-.79.93-1.49,1.41-2.23a9.45,9.45,0,0,1,1,2.29c1.17,8.28,2.24,16.58,3.42,24.87.52,3.61-.3,5.08-4.29,6.54V317.66h-.67c0,3,0,6,0,8.93,0,6.92.13,13.83.16,20.75C226.44,351,225.48,351.76,221.15,351.07Z" transform="translate(-119.2 -67)"/><path class="cls-23" d="M287.78,342.39q1.77-2.26,3.53-4.54l-.57-.52c-.89,1-1.77,1.92-2.67,2.86a7.09,7.09,0,0,1-9.63.87c-4.95-3.84-6.21-9.55-7.36-15.27a1,1,0,0,1,.23-.71,7.66,7.66,0,0,1,1.16-.84c.25,1,.41,1.75.66,2.49.93,2.87,1.57,5.88,2.89,8.56,3.24,6.6,9.8,7.07,14.31,1.23,3.52-4.55,5.24-9.9,6.65-15.33a85.86,85.86,0,0,0,.86-39.81c-1.21-5.69-3.84-10.91-8.7-14.65a2.65,2.65,0,0,1-.54-2.22,20.1,20.1,0,0,1,8.16,10.16c1.85,5.25,3.65,10.72,4.09,16.21,1,13,.2,25.9-4.39,38.34C294.3,335.07,291.17,340.3,287.78,342.39Z" transform="translate(-119.2 -67)"/><path class="cls-23" d="M277.55,333.26c-1-3.42-2-6.84-2.83-10.29-.1-.4.42-1.1.83-1.46,3-2.59,6-5.13,9-7.71,0,2.78,0,5.47,0,8.16,0,4.31-.06,8.63-.13,13,0,2.43-1.42,3.54-3.39,2.34-1.45-.88-2.37-2.63-3.52-4q1.92-6.08,3.85-12.17l-.77-.22Z" transform="translate(-119.2 -67)"/><path class="cls-23" d="M218.75,309.32l2.12,2.46-10.84.74v.28h10l.31.67c-3.45,2.4-7.51,3.63-11.69,5.64,0-1.27-.05-2.1,0-2.92q.68-9.12,1.38-18.23l.74-.25c1.44,1.51,2.88,3,4.33,4.54,1.61,1.68,3.28,3.3,4.82,5,.38.43.34,1.22.49,1.85l-1.77.24-8.07-4.26-.4.9Z" transform="translate(-119.2 -67)"/><path class="cls-23" d="M242.05,322.53c-2.93-2.68-5.89-5.34-8.75-8.1-.18-.17.33-1.05.55-1.69,1.84.32,3.26.74,3.15,3-.09,1.81.76,2.5,2.61,1.74a24.7,24.7,0,0,1,3.78-.83,31.83,31.83,0,0,1-3.71-2.3c-.66-.54-1.56-1.71-1.36-2.17a4.08,4.08,0,0,1,2.26-1.67,9.46,9.46,0,0,1,2.68-.18l0-.7-3.81-.45,3.57-4.47.85.41a70.06,70.06,0,0,1-3.75,26c-3.27-5.17-6.32-9.81-8.49-14.92l.75-.48,9.18,7.27Z" transform="translate(-119.2 -67)"/><path class="cls-23" d="M252.46,323.42h-2.73l-.3-.57,4-2.42c-1.2-3.11,3.13-3.86,2.91-6.78l.83.18c.35,2.2.69,4.41,1.06,6.79l-2.8.52c.78.41,1.1.71,1.42.71,1.91,0,3.09,1.18,3,2.86a6.58,6.58,0,0,1-1.84,3.54c-.53.61-1.71.64-2.58,1-2.83,1.08-5.66,2.19-8.55,3.31C245.51,329.67,246.34,328.05,252.46,323.42Z" transform="translate(-119.2 -67)"/><path class="cls-23" d="M220.56,305.61c-3.14-2.91-6.29-5.81-9.39-8.76a1.43,1.43,0,0,1-.23-1.19c.93-3.26,1.93-6.51,3-10.23C217.38,291.59,221.15,303.88,220.56,305.61Z" transform="translate(-119.2 -67)"/><path class="cls-23" d="M267.52,253l-3.12,1.74-.19-.33,3.39-3.82c-.84-.81-1.44-1.37-2.57-2.44l9.32-1.19-.57-1.6.45-.57,4.85,3.73c-5.18,2.06-5.36,8.07-10.35,9.48l1.9-2.52-3.57,1.89,1.85-2.53-.18-.32L266,256l-.3-.32,2.15-2.45Z" transform="translate(-119.2 -67)"/><path class="cls-23" d="M286.16,292.65c-1.29-5.56-2.52-10.75-3.69-15.95-.26-1.12,2.84-6.68,3.83-6.57s2.35,1.28,2.31,1.9c-.43,6.61-1.1,13.22-1.72,19.82C286.88,292,286.68,292.1,286.16,292.65Z" transform="translate(-119.2 -67)"/><path class="cls-23" d="M284.58,245.65l2.15-1.9c1.76,1.69,1.73,2.44-.3,3.24-1.68.66-3.45,1.07-4.95,1.52l-6.8-6.07,4-7c.49.9,1.13,1.67,1,1.87-.76,1.07-1.59,2.26,0,2.94.78.34,2-.48,3.67-.93l1.61,1.41L282.8,243Z" transform="translate(-119.2 -67)"/><path class="cls-23" d="M281.13,302.48l-5.88-3.31-.25.39,4.74,3.06L273.46,304c.7-5.89,1.32-11.23,2-16.56l.82-.15q3,6.53,6.1,13l-.52.31L275.65,293l-.59.47,6.5,8.36Z" transform="translate(-119.2 -67)"/><path class="cls-23" d="M230.57,316.86c.88,1.5,1.74,3,2.64,4.5,2,3.24,3.95,6.47,5.91,9.71.24.41.61,1,.5,1.32a30.9,30.9,0,0,1-3.26,7.22q-3.26-11.21-6.5-22.42Z" transform="translate(-119.2 -67)"/><path class="cls-23" d="M267.55,203.75l4,1.53-6.74,5c-.31-1.37-.63-2.73-1-4.47l-3.71,2.88,4.8,1.52-11,9.39,0,.07-1-4.75-.07.07,5.14,1.52c-.77-2-1.27-3.34-1.79-4.73l-3.33,2.11,0,.05c2.54-2.25,5-4.53,7.63-6.73,2-1.72,4.12-3.32,6.31-5.07.3.63.54,1.16.79,1.67l-3.43,1,0,.93,3.73,1.74Zm-6.28,9.7L260,208.89l-3.44,2.59Z" transform="translate(-119.2 -67)"/><path class="cls-23" d="M232.3,346c-1.34-9.81-2.62-19.1-3.89-28.4l.61-.15,2.56,8.77c1.31,4.46,2.66,8.91,3.88,13.39a3.46,3.46,0,0,1-.35,2.33A48.61,48.61,0,0,1,232.3,346Z" transform="translate(-119.2 -67)"/><path class="cls-23" d="M237.85,195.81c1,1,1.66,2.42,2.67,2.7a4.88,4.88,0,0,0,3.75-.71c2.21-1.67,2.64-4.32,2.82-7,.32-4.73.64-9.46,1-14.19a2.14,2.14,0,0,1,1.11-1.54,5.09,5.09,0,0,1,.39,1.47c-.3,4.83-.5,9.67-1.06,14.47a20.4,20.4,0,0,1-2,6.34,4.7,4.7,0,0,1-5.42,2.67,10.08,10.08,0,0,1-4.33-3.15c-1.23-1.36-.39-2.91.89-3.76a3.71,3.71,0,0,1,2.76,0c.37.12.45,1.16.67,1.78Z" transform="translate(-119.2 -67)"/><path class="cls-23" d="M274.4,320.2a10.16,10.16,0,0,1-.34-1.5c0-1.86-.71-4.65.21-5.39,2.4-1.95,5.52-3,8.4-4.36.22-.1,1.11.6,1.23,1.05.17.66.21,1.74-.19,2.1C280.76,314.8,277.69,317.36,274.4,320.2Z" transform="translate(-119.2 -67)"/><path class="cls-23" d="M301.63,238.59a16.59,16.59,0,0,0-2,3.32,3.34,3.34,0,0,1-3.33,2.66c-1,.06-2.07.12-3.1.24-2.12.25-3.52-.47-3.86-2.87l3.5-2.78,3.08,2.68.8-.59L294.16,237c1.37-.28,3.08-1.68,4.71.75.42.61,1.83.56,2.78.81Z" transform="translate(-119.2 -67)"/><path class="cls-23" d="M301.65,238.59c-.71-1.42-3.24-2.11-1.93-4.55,2.24,1.76,2.24,1.76,3.46.41-2.8-3.36-2.51-4.9,1.37-7.51,1.35-.9,2.66-1.88,4-2.82l-.6-.91,3.42,1.88c-2.68,2.58-7,3.4-6.85,8.06l1.52-.64c.52,2-.88,2.93-2.15,4-.8.64-1.5,1.42-2.24,2.14Z" transform="translate(-119.2 -67)"/><path class="cls-23" d="M221.39,301.81l-6-15.49c1.72,1.62,3.4,2.31,5.59.83C222.16,292,224.5,296.51,221.39,301.81Z" transform="translate(-119.2 -67)"/><path class="cls-23" d="M250,319.15c1.8-12.83,1.81-25.07-1.71-37.18,1.54,2.23,3.77,3.79,3.54,7.12a153,153,0,0,0,0,16.17c.09,2.48.79,4.93,1.07,7.41S252.5,317.18,250,319.15Z" transform="translate(-119.2 -67)"/><path class="cls-23" d="M283.53,300.78c-.44-.86-.91-1.71-1.33-2.59a126.78,126.78,0,0,1-5.57-11.95c-.68-1.91,0-4.31.12-6.49l1.15-.11q3.17,10.44,6.32,20.86Z" transform="translate(-119.2 -67)"/><path class="cls-23" d="M253.87,219.6a4.46,4.46,0,0,1-5,2.5c-1.69-.19-4.09.64-5-.22-1.62-1.58-2.37-4.06-3.48-6.18,0-.06,0-.16,0-.25l-.08.06,5.26-.52,0-.08-3.33,3.85c2.73-.59,4.85-1,5.63,2.31,1.79-2.77,3.87-2.43,6-1.4Z" transform="translate(-119.2 -67)"/><path class="cls-23" d="M266.9,211.72c-.65,12.18,1.74,17.76,11.23,20.38-.6.23-1.24.73-1.78.64a11.8,11.8,0,0,1-10.13-10,61.2,61.2,0,0,1-.71-8.23,11,11,0,0,1,.75-3Z" transform="translate(-119.2 -67)"/><path class="cls-23" d="M261.69,248.54c-.36.06-.81.28-1,.15a44,44,0,0,0-22.57-10.24C242.94,235.87,258.44,243,261.69,248.54Z" transform="translate(-119.2 -67)"/><path class="cls-23" d="M228.92,233.24c.27-.64.36-1.51.83-1.9A30.65,30.65,0,0,0,239,218.22h.67a7,7,0,0,1,.17,2.62,25.8,25.8,0,0,1-10.24,12.79Z" transform="translate(-119.2 -67)"/><path class="cls-23" d="M273.58,240.86c-3.45.94-8.85-2.12-12.36-6.47-3.34-4.14-5.24-8.78-4.57-14.33C257.81,230.41,262.92,237.59,273.58,240.86Z" transform="translate(-119.2 -67)"/><path class="cls-23" d="M253.42,260.84c1.62,3.43-2.13,5.06-1.59,8.26L243.48,262C247.07,261.29,250.45,264.12,253.42,260.84Z" transform="translate(-119.2 -67)"/><path class="cls-23" d="M280.28,277.59q3,11.84,6,23.67l-.91.28c-.28-.84-.6-1.66-.85-2.51-1.84-6.2-3.71-12.39-5.44-18.62-.25-.87.2-1.93.33-2.91Z" transform="translate(-119.2 -67)"/><path class="cls-23" d="M240.5,197.26c3.75-.69,4.39-3.47,4.6-6.53.31-4.63.6-9.25,1-13.87a5.14,5.14,0,0,1,.55-1.43l.63.1c0,1.78.1,3.56,0,5.33a100.94,100.94,0,0,1-1,11.29c-.34,1.88-1.63,3.66-2.81,5.26-.41.57-1.75.45-2.67.64Z" transform="translate(-119.2 -67)"/><path class="cls-23" d="M243,208.72c1,1.36,2,2.7,2.93,4.1s1.7,2.75,2.65,4.31l4.3-3.19,0-.05,0,1.1.07-.07-4.34,3.32-3-3.33,0,.08-1.58-4.25-3.68,4.77.08-.06q-2.07-3.37-4.15-6.75l-.07.07,4.91-.72-3.08,3.86,5.51-.62-.57-2.57Z" transform="translate(-119.2 -67)"/><path class="cls-23" d="M221.72,244.8c.26-2.21,2-4.05,3.86-4.07a1.65,1.65,0,0,1,1.22.63c1.29,2,.42,7.53-1.64,9.82-.32-1.49-1.31-2.35-.45-4.26C225.79,244.54,222.85,245.68,221.72,244.8Z" transform="translate(-119.2 -67)"/><path class="cls-23" d="M230.66,289.86c.49,1.16,1.5,2.39,1.37,3.48a45.58,45.58,0,0,1-2.24,9.61C228.92,298.67,227.45,294.45,230.66,289.86Z" transform="translate(-119.2 -67)"/><path class="cls-23" d="M281.26,304.07a11,11,0,0,1,.26,2.15,1.68,1.68,0,0,1-.68,1.18c-2.2,1.12-4.45,2.14-6.71,3.2-1.22-3.87-.92-4.43,2.61-5.32C278.39,304.86,280,304.4,281.26,304.07Z" transform="translate(-119.2 -67)"/><path class="cls-23" d="M239.47,298a22.16,22.16,0,0,1,1.83,3c.65,1.63.46,3-1.52,3.65-1.59.51-3.14,1.15-5,1.85C234.67,302.49,237.45,300.73,239.47,298Z" transform="translate(-119.2 -67)"/><path class="cls-23" d="M242.46,195.26c-.05-9.45,1-17.61,2.41-19.31C245.9,177.89,244.12,193.43,242.46,195.26Z" transform="translate(-119.2 -67)"/><path class="cls-23" d="M219.47,246.36c-1.56-3-1.05-5,1.69-6.82,3.86-2.63,8.18-2.63,12.54-2.28l.22.67a6.78,6.78,0,0,1-1.72.64c-1.8.13-3.61.06-5.41.21C222,239.2,219.85,241.32,219.47,246.36Z" transform="translate(-119.2 -67)"/><path class="cls-23" d="M237.71,258.39l13.92,11.7-.82,1-13.89-11.73Z" transform="translate(-119.2 -67)"/><path class="cls-23" d="M250.47,259.52c-1.91,1.51-9.28.79-10.84-1.79l10.84.95Z" transform="translate(-119.2 -67)"/><path class="cls-23" d="M243.14,176.29l-1.23,16.41C240.25,190.41,241.14,178.12,243.14,176.29Z" transform="translate(-119.2 -67)"/><path class="cls-23" d="M233.19,311.32c-.48,2.21-.84,3.8-2.82,3.92a2.28,2.28,0,0,1-2.39-2.93c.37-1.46,1.65-2.69,2.52-4Zm-1.15.57-1.66-1.41c-.45.6-1.14,1.16-1.28,1.84-.09.39.7,1,1.1,1.46Z" transform="translate(-119.2 -67)"/><path class="cls-23" d="M274.79,281.34l-2.09,11.32c-1-.94-1.89-1.52-1.81-1.84.69-2.73,1.54-5.43,2.4-8.12C273.4,282.36,273.89,282.14,274.79,281.34Z" transform="translate(-119.2 -67)"/><path class="cls-23" d="M233.66,205.05l-4.16-5.35,3.68-2.13.47.55c-.65,1.12-1.29,2.25-2.15,3.74l5.09-.46-3,3.71Z" transform="translate(-119.2 -67)"/><path class="cls-23" d="M310.88,215.24l-2.74-.31-.17.7a8.69,8.69,0,0,1,2.56.68,12.81,12.81,0,0,1,2.14,2.44c-5.28-.92-5.34-1-5.26-5.82l3.65-.16C311,213.67,310.94,214.38,310.88,215.24Z" transform="translate(-119.2 -67)"/><path class="cls-23" d="M233.4,261.46c3.08-.17,5,1.59,5.31,5.19a76.9,76.9,0,0,1,.07,10.07,39,39,0,0,1-1.55,8.61c.26-2.46.65-4.91.77-7.38.16-3.43.29-6.89.12-10.32C238,264.69,236.65,262.32,233.4,261.46Z" transform="translate(-119.2 -67)"/><path class="cls-23" d="M241,177.31q-.5,6.85-1,13.72l-1-.07c-.38-4.62.39-9.16,1.06-13.71Z" transform="translate(-119.2 -67)"/><path class="cls-23" d="M255.46,230.84c-1.39-.31-3.26-.35-3.36-.8a22.66,22.66,0,0,1-.12-5c.74.17,2,.15,2.13.55A39.8,39.8,0,0,1,255.46,230.84Z" transform="translate(-119.2 -67)"/><path class="cls-23" d="M239.07,178c-.31,3.94-.62,7.87-1,12.61-.68-1-1.3-1.44-1.26-1.84.38-3.63.86-7.25,1.32-10.88Z" transform="translate(-119.2 -67)"/><path class="cls-23" d="M272.27,295.56c-.29,3.16-.55,6-.85,9.34C269.29,302.26,269.79,297.23,272.27,295.56Z" transform="translate(-119.2 -67)"/><path class="cls-23" d="M226.31,235.89l-5.52,1.92.35-2.08c-2.48-.36-2,1.66-2.36,3l-.65-.17c.33-.94.39-2.18,1-2.75C221.24,233.93,223.55,234.23,226.31,235.89Z" transform="translate(-119.2 -67)"/><path class="cls-23" d="M247.64,230.55c3-2.29,3.06-2.49,1.22-4.55l1.29-1.38-2.53-1c2.67-.89,2.82-.82,2.91,1.4.06,1.38.1,2.75.08,4.13C250.58,231.39,250.1,231.65,247.64,230.55Z" transform="translate(-119.2 -67)"/><path class="cls-23" d="M237.05,243.15l-.85,9.94-.81,0a21,21,0,0,1,.45-10Z" transform="translate(-119.2 -67)"/><path class="cls-23" d="M248.94,275.26l-5.41-7.07C249,270.69,250.41,272.51,248.94,275.26Z" transform="translate(-119.2 -67)"/><path class="cls-23" d="M270.6,322.45c.17-2.86-1.41-5.52.39-8.42C272.62,317.43,272.53,321.17,270.6,322.45Z" transform="translate(-119.2 -67)"/><path class="cls-23" d="M228,298.93c.25,1.69.58,3.37.69,5.07,0,.57-.48,1.18-.75,1.78-.5-.49-1.41-1-1.41-1.45A51.29,51.29,0,0,1,227,299Z" transform="translate(-119.2 -67)"/><path class="cls-23" d="M233.52,308.5l6.2-3.06c-1.5,4.45-2,4.72-5.85,3.84Z" transform="translate(-119.2 -67)"/><path class="cls-23" d="M278.68,200.83c-.48-1.27-.95-2.54-1.7-4.5l5.8.8-4.1,3.68Z" transform="translate(-119.2 -67)"/><path class="cls-23" d="M307.64,219.05l5.5,1.85c-.1.82-.21,1.61-.34,2.67C310.47,222.75,308.72,221.84,307.64,219.05Z" transform="translate(-119.2 -67)"/><path class="cls-23" d="M223.53,292.65,222,287.09c3.1-.72,3.4-.45,2.85,2.24-.22,1.09-.46,2.18-.7,3.27Z" transform="translate(-119.2 -67)"/><path class="cls-23" d="M233.6,205.11l5.21-.47-2.58,4.12.07-.06-2.64-3.65Z" transform="translate(-119.2 -67)"/><path class="cls-23" d="M234.46,196.81c0-1.37-.4-2.87,0-4.08.3-.85,1.69-1.32,2.84-1.44l-2.3,5.25Z" transform="translate(-119.2 -67)"/><path class="cls-23" d="M241.09,229.47l2.83,1.09-.06.69-2.72.34c-.28-1.76-.52-3.33-.85-5.43l2.28,1.62Z" transform="translate(-119.2 -67)"/><path class="cls-23" d="M306.26,209c1.88,1,4.32-1.12,4.84,2.34C309.32,210.92,307,212.84,306.26,209Z" transform="translate(-119.2 -67)"/><path class="cls-23" d="M264.78,311.08c.11,1.29.23,2.58.34,3.87l-2,0c.09-1.31.19-2.61.29-3.91Z" transform="translate(-119.2 -67)"/><path class="cls-23" d="M304.88,205.4c-.25-1.15-.38-1.78-.57-2.64l4-.21C308.85,205.59,306.2,204.24,304.88,205.4Z" transform="translate(-119.2 -67)"/><path class="cls-23" d="M243,208.72c-1.23-1.57-2.51-3.1-3.65-4.73a39.22,39.22,0,0,1-2.08-3.63l.73-.43,5,8.79Z" transform="translate(-119.2 -67)"/><path class="cls-23" d="M309.19,208.21c-1.48-.6-3.62,1.22-3.89-1.89C306.89,206.14,308.74,204.8,309.19,208.21Z" transform="translate(-119.2 -67)"/><path class="cls-23" d="M265.42,324.36c-1.13.83-1.77,1.65-2.34,1.61s-1.09-1-1.63-1.48c.57-.44,1.11-1.13,1.74-1.24S264.32,323.78,265.42,324.36Z" transform="translate(-119.2 -67)"/><path class="cls-23" d="M271.16,306.77v5.37h-.8v-5.37Z" transform="translate(-119.2 -67)"/><path class="cls-23" d="M261,227.28l4-1.08.44.85a17.67,17.67,0,0,1-3,1.64c-.46.16-1.17-.42-1.77-.67Z" transform="translate(-119.2 -67)"/><path class="cls-23" d="M271.29,233.3c-1.56,3.22-1.63,3.28-3.88,2.66l3.27-3.43Z" transform="translate(-119.2 -67)"/><path class="cls-23" d="M264.28,220.48l-4.2,2.2C259.41,220.34,260.48,219.75,264.28,220.48Z" transform="translate(-119.2 -67)"/><path class="cls-23" d="M274.1,234.16c-.7,1.34-1.39,2.69-2.13,4,0,.07-.62,0-.66-.11-.14-.34-.32-.83-.17-1.1.61-1.12,1.34-2.19,2-3.27Z" transform="translate(-119.2 -67)"/><path class="cls-23" d="M265,233.42l3-2.74.76.45a23.35,23.35,0,0,1-2,3c-.27.3-1.09.11-1.65.14Z" transform="translate(-119.2 -67)"/><path class="cls-23" d="M302.94,200l6.41-.4C308,201.42,305.24,201.58,302.94,200Z" transform="translate(-119.2 -67)"/><path class="cls-23" d="M263.9,177.58l4.48-.28-.18,3.28-.58,0,.18-1.8-3.86-.45Z" transform="translate(-119.2 -67)"/><path class="cls-23" d="M235.06,190.23l-2.27,4.54C231.42,192.16,232.28,190.43,235.06,190.23Z" transform="translate(-119.2 -67)"/><path class="cls-23" d="M236,280.29c-.4,3.43-.81,6.85-1.21,10.27l-.55-.06,1.21-10.19Z" transform="translate(-119.2 -67)"/><path class="cls-23" d="M278.68,200.81l-3.5,1.67c-.19-1-.37-1.95-.63-3.4l4.13,1.75Z" transform="translate(-119.2 -67)"/><path class="cls-23" d="M260.43,225.93c.05-2.17,1.08-2.66,4.11-1.8Z" transform="translate(-119.2 -67)"/><path d="M222.91,317.39a7.71,7.71,0,0,1-.06,2.68c-2.65,6.72-5.4,13.39-8.14,20.08a15.67,15.67,0,0,1-.88,1.54l-.62-.25q4.89-12,9.76-24A.22.22,0,0,0,222.91,317.39Z" transform="translate(-119.2 -67)"/><path d="M277.55,333.26l3.08-12.4.77.22q-1.92,6.09-3.85,12.17Z" transform="translate(-119.2 -67)"/><path d="M218.75,309.32l-8.53-3.3.4-.9,8.07,4.26Z" transform="translate(-119.2 -67)"/><path d="M245.58,214.91l3,3.33,4.34-3.32,1,4.75c-2.17-1-4.25-1.37-6,1.4-.78-3.34-2.9-2.9-5.63-2.31Z" transform="translate(-119.2 -67)"/><path d="M252.81,215l0-1.1,3.33-2.11c.52,1.39,1,2.71,1.79,4.73Z" transform="translate(-119.2 -67)"/><path d="M264.88,210.21l-4.8-1.52,3.71-2.88c.39,1.74.71,3.1,1,4.47Z" transform="translate(-119.2 -67)"/><path d="M261.27,213.45l-4.76-2,3.44-2.59Z" transform="translate(-119.2 -67)"/><path d="M267.55,203.75l.38,3.69-3.73-1.74,0-.93,3.43-1Z" transform="translate(-119.2 -67)"/><path d="M240.37,215.51l3.68-4.77,1.58,4.25Z" transform="translate(-119.2 -67)"/><path d="M232,311.89l-1.84,1.89c-.4-.49-1.19-1.07-1.1-1.46.14-.68.83-1.24,1.28-1.84Z" transform="translate(-119.2 -67)"/></g><text class="cls-24" transform="translate(98.91 69.35) scale(1.79 1)">o<tspan class="cls-25" x="16.52" y="0">k</tspan><tspan class="cls-26" x="31.11" y="0">er</tspan></text><text id="J-2" data-name="J" class="cls-27" transform="translate(57.8 93.32)">J</text></g><g id="bottomRight"><text class="cls-28" transform="translate(257.81 291.41) rotate(180) scale(0.94 1)">S</text><text class="cls-29" transform="translate(250.13 281.58) rotate(180) scale(0.3 1)">U</text></g><g id="topLeft"><text class="cls-28" transform="translate(3.8 74.59) scale(0.94 1)">S</text><text class="cls-29" transform="translate(11.48 84.42) scale(0.3 1)">U</text></g></g></g></svg>