<svg id="Layer_1" data-name="Layer 1" xmlns="http://www.w3.org/2000/svg" viewBox="0 0 261.61 366"><defs><style>.cls-1,.cls-2{fill:#fff;}.cls-1{stroke:#000;}.cls-1,.cls-2,.cls-3{stroke-miterlimit:10;}.cls-2,.cls-3{stroke:red;}.cls-4,.cls-5{fill:red;}.cls-5{font-size:54.52px;font-family:MyriadPro-Regular, Myriad Pro;}</style></defs><g id="KDiamonds"><rect id="cardBorder" class="cls-1" x="0.5" y="0.5" width="260.61" height="365" rx="8.5"/><g id="details"><g id="face"><g id="trace"><path class="cls-2" d="M340.63,248.33h-.22c0-8.39,0-16.78,0-25.17q-.07-24.12-.19-48.26-.1-35.53-.13-71.08c0-2.2-.56-3-2.9-3q-39-.12-78.05-.42c-20.23-.14-40.45-.35-60.68-.48-12.54-.08-25.08-.09-37.62-.1-3.39,0-3.48.11-3.48,3.53q0,25.56,0,51.12.08,51.1.18,102.21c.06,18.86.34,37.71.44,56.57s.11,37.68.15,56.53c0,7.51,0,15,0,22.52,0,2.16.59,3.47,3.27,3.27,3.7-.27,7.44-.09,11.16-.07,19.87.1,39.75.26,59.63.31,8.47,0,16.94-.3,25.41-.27,17.43,0,34.86.29,52.29.35,9.33,0,18.67-.19,28-.17,2.33,0,3.12-.66,3.1-3.11q-.3-32.57-.34-65.14Q340.58,287.9,340.63,248.33Z" transform="translate(-119.2 -67)"/><path class="cls-3" d="M340.63,248.33q0,39.57,0,79.14.06,32.58.34,65.14c0,2.45-.77,3.12-3.1,3.11-9.34,0-18.68.21-28,.17-17.43-.06-34.86-.3-52.29-.35-8.47,0-16.94.29-25.41.27-19.88-.05-39.76-.21-59.63-.31-3.72,0-7.46-.2-11.16.07-2.68.2-3.27-1.11-3.27-3.27,0-7.51,0-15,0-22.52,0-18.85,0-37.69-.15-56.53s-.38-37.71-.44-56.57q-.18-51.1-.18-102.21,0-25.56,0-51.12c0-3.42.09-3.53,3.48-3.53,12.54,0,25.08,0,37.62.1,20.23.13,40.45.34,60.68.48q39,.25,78.05.42c2.34,0,2.9.8,2.9,3q0,35.54.13,71.08.07,24.14.19,48.26c0,8.39,0,16.78,0,25.17Zm-114.27,33,1.8-3.39c-2.29,0-3.89.11-5.47,0-2.28-.19-3.13.88-3,3-1.09,1.11-2.08,3-.57,3.6,1.73.73,4.09.35,6-.08C225.74,284.35,226,282.46,226.36,281.38Zm-3.68,8.95,2.14-4c-7-1.05-9,.18-10,5.92a28,28,0,0,1,4.85.06c1.89.32,2.78-.32,3.09-2.09Zm-.39-17.85-1.5,4.29c2.53,0,4.58.07,6.61,0a2.19,2.19,0,0,0,1.46-1.1c2.7-5.26,2.17-6-3.6-6-2.16,0-3.25.73-3,3Zm59.19-121.74c1.88,5.63,3.86,11.23,5.6,16.9a17,17,0,0,1-.61,12.74,5.53,5.53,0,0,0,2.82-2.16,12.15,12.15,0,0,0,.72-9.8c-2.62-8.31-5.35-16.59-8.12-24.85-.2-.61-1-1-1.52-1.53l-.78.41,2,8.36c-2.12-2.62-1.3-6.8-4.62-8.86a5,5,0,0,0,0,2.54c1.42,4.69,3,9.35,4.35,14,2.09,7.09,5.61,14.1,1.55,21.89,1.07-.26,2.18-.57,2.51-1.26.8-1.66,1.87-3.56,1.7-5.25a83,83,0,0,0-2.32-11.3C283.76,158.63,282.58,154.7,281.48,150.74Zm-7,7.94c2.22,7.11,5.05,14.17,1.84,22,1.26-.73,2.7-1.57,2.94-2.68.6-2.71,1.4-5.74.77-8.31-2.29-9.18-5.13-18.22-7.78-27.31-.42-1.45-1.25-2.18-3.14-1.37L274,156.55a10.46,10.46,0,0,1-1.35-2.13c-1.49-4.31-2.85-8.66-4.36-13a10.26,10.26,0,0,0-1.57-2.29l-.8.44a19,19,0,0,0,.42,3.49c1.59,5.1,3.5,10.1,4.87,15.26A94.22,94.22,0,0,1,274,172.46c.27,2.6-.65,5.32-1.16,8.87,1.25-1.2,2.71-1.92,2.89-2.89a36.3,36.3,0,0,0,.77-9.1C276.19,165.75,275.19,162.23,274.51,158.68ZM227.36,332.13c-2.86-5.59-4-11.29-.65-17.49-3.14.12-3.84,2.2-4.43,4.08-1.22,3.85.31,7.52,1.32,11.13,2.27,8,4.84,16,7.16,24,.47,1.66,1.24,2.22,3,2-.43-1.84-.76-3.53-1.22-5.18-1.74-6.22-3.52-12.44-5.28-18.65a8.38,8.38,0,0,1,.88,1.56c2.17,7.17,4.29,14.36,6.5,21.53a10.47,10.47,0,0,0,1.5,2.35l.7-.37a5.55,5.55,0,0,0,0-1.47c-2.41-8.53-4.79-17.07-7.32-25.57-1.46-4.89-2.71-9.69.34-14.44.13-.21,0-.6-.06-1.66-1.22,1-2.43,1.57-2.7,2.4a20.1,20.1,0,0,0-1.44,6.91C225.8,326.25,226.76,329.18,227.36,332.13Zm6.75,1.07c-2.28-6.13-4.74-12.25-.52-18.83a8.68,8.68,0,0,0-3.6,3.06c-2.26,4-1,8.11.16,12.08,2.59,9.13,5.3,18.22,8,27.3.25.82,1.15,1.45,1.74,2.17l.79-.48c-.3-1.58-.48-3.19-.9-4.74-1.89-6.89-3.85-13.77-5.78-20.64a12.93,12.93,0,0,1,1,2.05c2.16,7.36,4.26,14.73,6.46,22.08.36,1.18.3,3.13,2.77,2.48-1-4.37-1.93-8.65-2.88-12.92,1.19,4,2.45,8.05,3.52,12.12.38,1.43.79,2.42,2.66,2.21a9.45,9.45,0,0,0,0-2.26c-.94-3.76-1.86-7.53-3-11.25-1.84-6.19-4-12.29-5.63-18.54a28.32,28.32,0,0,1-.47-8.92c.15-2,2.79-3.72,4.6-3.37s3.31,1.62,2.94,3.58a4.08,4.08,0,0,1-2.49,2.62,2,2,0,0,1-2.69-1.82l3.72.58c.14-1,.71-2.19.34-2.91a2.4,2.4,0,0,0-3.93-.78c-.86.72-1.86,2.32-1.59,3.12a5.84,5.84,0,0,0,2.94,3.42c1.13.4,3.08-.25,4.13-1.1,1.94-1.58,1.81-4.9.12-6.8a5.67,5.67,0,0,0-7.9-.66c-3.49,2.69-3.45,6.4-2.79,10.14s1.64,7.23,2.48,10.84c-.84-2.51-1.85-5-2.47-7.53-1.2-5-2.49-10,2-14.25.06-.06-.05-.3-.2-1a12.43,12.43,0,0,0-2.82,1.49,8.28,8.28,0,0,0-2.55,7.55C232.78,326.62,233.51,329.9,234.11,333.2Zm9.28-31.55a47.09,47.09,0,0,1,17.05-11c2.5-.93,2.65-1.55,1-4.21l-1.4,2.66c-3.95-1.54-4.32-2.84-1.9-6.12l3.65,2.06-.92-4.9c-2.9,1.64-5.28,3.11-7.77,4.37a63.71,63.71,0,0,0-18.06,14.12,6.47,6.47,0,0,1-3.94,1.81c-3.53.27-7.09.07-10.63.18a3.14,3.14,0,0,0-2.25.83c-1.64,2.29-3.07,4.74-4.69,7.31a7.71,7.71,0,0,0,1.81.55c7.09,0,14.18,0,21.26-.12a4.44,4.44,0,0,0,2.58-1.76c1.53-1.86,2.87-3.88,4.29-5.84ZM169.85,185.81a16.93,16.93,0,0,0-1.55-2.31,15.17,15.17,0,0,0-2.12-1.58,11.77,11.77,0,0,0-1.12,2.66,3.43,3.43,0,0,0,.6,1.92c1.56,2.93,3.15,5.82,4.93,9.08-4-1-3.27-5.73-6.49-8,0,1.41-.24,2.23,0,2.8,2.19,4.58,4.47,9.13,6.74,13.68.64,1.3,1.58,1.39,2.78.68,4.46-2.64,9-5.2,13.38-7.91a2.4,2.4,0,0,0,.89-2c-1-3.16-2.19-6.25-3.32-9.36l-1.19,0A32.51,32.51,0,0,1,179.05,197c-.21.34-.14.85-.26,1.26s-.39,1.05-.59,1.58l-.49-.08V196.3l-3.05,2.09a2.84,2.84,0,0,1,.24-.6,39.48,39.48,0,0,0,3-3.16c1.25-1.63,3.61-3.85,3.21-5-1.3-3.75-3.61-7.15-5.67-10.6a1.47,1.47,0,0,0-2.37,1.75c.59,1.31,1.62,2.42,2.23,3.72a43.3,43.3,0,0,1,1.8,5,5.44,5.44,0,0,1-.92.53c-.23-.62-.37-1.11-.58-1.56-1.37-3-2.67-6-4.2-8.84-.64-1.22-2.07-2.05-3.17-.78a3.16,3.16,0,0,0,.26,3.1c1.59,1.13,1.17,2.55,1.25,4Zm96.42,121.46.06.05.68-1.81-.67-.5c-5.88,3.2-8.42,9.28-11.54,14.86l-.67-.45c2.48-4.15,5-8.29,7.63-12.75-3.21,1-4.8,3.39-6.32,5.73s-2.89,4.87-4.32,7.31l-.5-.26,4.41-8.39c-4.56,2.05-6.46,4.9-6.29,8.91.21,4.83-3.65,7.34-8,5.21a11.13,11.13,0,0,0-1.93-.45c.65,3,1.08,5.6,1.78,8.14q3.75,13.59,7.72,27.11a3.67,3.67,0,0,0,2.17,2.07,54.07,54.07,0,0,0,20.8,1.63c3.16-.31,3.64-1.14,3-4.31a25.62,25.62,0,0,0-.64-3,12.53,12.53,0,0,1,.92-9.77c1.23-2.56,2.11-5.29,3.13-7.95.63-1.64.56-2.94-1.38-3.77s-3.33-2.15-3.12-4.57a1.47,1.47,0,0,0-.76-1.15c-2.18-.79-4.36-1.85-6.62-2.08s-2-1.57-2.45-2.67a53.21,53.21,0,0,0,6.1,1.6c2.46.35,3.09-.65,3-3.09a6.87,6.87,0,0,1,1.09-3.81,45.42,45.42,0,0,1,3.67-4,31.48,31.48,0,0,0,1.95-2.83c-4.46.62-6.69,3.68-9,6.65,1.18-4.9,8.22-9.26,11.53-9.05a8,8,0,0,1,4.62,2.27c.57.56.33,2.85-.35,3.54a3.55,3.55,0,0,1-3.52.23c-.7-.56-.46-2.34-.53-3.59,0-.38.3-.77.57-1.42-2.69,1.31-3.51,3.17-2.47,5a4.54,4.54,0,0,0,6.28,1.66c1.79-1.25,3-2.93,2.5-5.27a5.37,5.37,0,0,0-5-4.6,14.09,14.09,0,0,0-6.5,1.1c-2.51,1.08-4.72,2.87-7.41,4.58,3.35-4.57,8.08-6,12.65-7.66-10.55-1.91-15.19,5.72-20.17,12.84a30.65,30.65,0,0,1,10.88-13.44,2,2,0,0,0-1.45-.25C270,305.67,268.15,306.48,266.27,307.27Zm-45.85-128.1c2.67-1.94,5.7-4,5.36-8.29-.13-1.65-.86-3.29-.78-4.91a4.89,4.89,0,0,0-2.05-4.64c-3.4-2.68-3.55-3.61-1.89-7.69,1-2.48,2.09-4.93,3.19-7.38s1.5-5,.3-7.47c-1.56-3.27-.54-7.12-2.67-10.34-1.08-1.62-.91-4-1.83-5.82-3.23-6.2-6.63-12.31-10.13-18.37a4,4,0,0,0-2.9-1.54q-12-.33-24.11-.33c-6.39,0-12.79.17-19.18.23-3.68,0-3.81.11-3.81,3.74q0,29.31,0,58.63c0,14.45-.09,28.89-.11,43.34,0,1.16.11,2.33.21,4.18l10.73-6c-.26-.62-.38-.93-.52-1.23-2.16-4.61-4.38-9.19-6.42-13.85a5,5,0,0,1-.21-3.43c1.15-3,.65-6.49,3.39-9.1,1.14-1.08,1.7-1.82,3.26-1.41a4.79,4.79,0,0,0,2.54.09,2.75,2.75,0,0,1,3.6,1.08c1,1.42,2,2.83,2.9,4.28.79,1.26,1.48,2.57,2.48,4.34,1.41-3,2.67-5.53,5.57-4.91.4,3.94.67,7.43,1.16,10.88.22,1.57,1.09,2.18,2.76,1.15q7.92-4.9,16-9.6a3.76,3.76,0,0,0,2.11-3.48c.18-3.8,3.24-6.12,6.8-5.05C217.63,176.7,218.81,178,220.42,179.17ZM310,299.64a19.13,19.13,0,0,0-2.14.72c-5.54,3.19-11.1,6.34-16.56,9.66a3.8,3.8,0,0,0-1.22,2.72c-.16,2.79-1.5,5.06-3.82,5.95a4.91,4.91,0,0,1-6.36-1.89c-.85-1.2-1.64-1.17-2.79-.34a9.48,9.48,0,0,0-3.77,10.22c.74,3,.89,6.32,4.89,7.39,1.58.42,1.64,2.08.92,3.72-1.58,3.64-3.08,7.33-4.36,11.09a13.86,13.86,0,0,0-.68,5.31,52.76,52.76,0,0,0,1.31,8.67c.37,1.51,1.51,2.81,2.2,4.25s1.23,2.72,1.75,4.12a18.94,18.94,0,0,0,.49,2.22c3.08,6,6.16,12,9.42,17.89A3.9,3.9,0,0,0,292,393.1c14.7.09,29.4,0,44.09.06,2.23,0,2.53-1,2.53-2.8q-.09-52.42-.12-104.84a25,25,0,0,0-.35-2.81l-9.57,5.8c3,6.86,7.31,12.86,5.39,20.74-.47,1.94-.61,3.64-1.72,5.54-1.31,2.23-3,1.87-4.71,2.63-3.43,1.49-4.54-.32-6-2.43l-4.6-6.72c-1.34,2.76-2.51,5.05-5.39,3.91C311,308,310.53,304,310,299.64ZM187.7,377.49c-.26-1.15-.44-2-.62-2.8-1.17-5.48-3.78-10-8.72-12.89-2.05-1.21-2.78-.81-2.81,1.59a26.8,26.8,0,0,0,0,4.91c.54,3.14-1,5.1-3.11,7.1-3.71,3.48-7.17,7.24-10.82,10.79-1.91,1.86-1.31,4.07-.77,6,.17.61,2.3.94,3.53.94,7.95.06,15.91-.1,23.85,0a4,4,0,0,0,4.07-2.34c4.7-8.55,9.51-17,14.24-25.58a5.48,5.48,0,0,0,.49-2.18c.25-3.33-.78-7,2.76-9.42.39-.27.29-1.62,0-2.34-1.92-6-3.77-12-6-17.9-2.26-6.05-4.49-12-1.42-18.87-1.36,0-2.36,0-3.36,0-4,.06-8,.08-11.92.22a5.67,5.67,0,0,1-5-2.06c-1.84-2.25-3.81-4.4-5.73-6.59l-.81.67v40.57c7.56-3.27,10.31-9.47,12.55-16.09C200.47,341.93,202.88,363.49,187.7,377.49ZM323.13,188.66v-41c-8.06,2.83-9.81,9.53-11.43,16.37-14.74-12.59-14.13-35.15-.15-44.86.27.85.56,1.64.77,2.46a21.07,21.07,0,0,0,8.43,11.76,7.11,7.11,0,0,0,2.12.66,11,11,0,0,0,.55-2.12,35.33,35.33,0,0,0,.08-5.44,6.84,6.84,0,0,1,2.44-5.93c3.59-3.49,7-7.2,10.57-10.69,2-2,2.29-4.08,1.14-7.17-9.26,0-18.66,0-28.06.08A3.81,3.81,0,0,0,307,104.6q-7.12,11.9-14,23.93c-.6,1.05-.32,2.56-.6,3.82-.6,2.74-.88,5.68-2.15,8.08-.62,1.16-1.37,2-.95,3.29,2.2,6.91,4.07,14,6.76,20.68,2.11,5.26,3.21,10.16.29,15.35-.06.1.08.31.2.67a15.92,15.92,0,0,0,1.9.15c4.49-.1,9-.38,13.47-.26a7.69,7.69,0,0,1,4.26,1.73C318.56,184,320.63,186.23,323.13,188.66Zm-107.21-4.9c2.16,0,2.66-.33,2.85-2a4.12,4.12,0,0,0-3.47-4.69,4.71,4.71,0,0,0-5.13,3.76,5.87,5.87,0,0,0,5.87,6.69,36.3,36.3,0,0,0,5.44-.69l.14.4L216.36,189c3.38,1.8,6.09.63,8.8-.35.5,2,1.12,2.48,3,1.58a55,55,0,0,0,5.7-3.64l-1.75,2.58.63.53c5.37-2.24,7.26-7.76,11-11.73q-2.92,4.6-5.83,9.21l.84.66c1.09-1.11,2.28-2.14,3.25-3.34s1.84-2.72,2.73-4.1,1.63-2.56,2.44-3.84l.49.35-4.46,7.83.63.48a51.4,51.4,0,0,0,4.48-4.5,8,8,0,0,0,2-4.22c.18-6.43,3.59-8.54,9.25-5.47.12.07.33,0,.88-.08a37.32,37.32,0,0,0-.75-4.77c-2.6-9-5.62-18-7.81-27.09-1.08-4.49-3.12-6.51-7.57-7.08-5.74-.73-11.44-1.84-17.23-.7-2.46.48-3.17,1.71-2.62,4.1a12.22,12.22,0,0,0,.77,2.47,10,10,0,0,1-.3,9.19c-1.4,2.86-2.49,5.88-3.63,8.86-.63,1.67-.42,3.08,1.61,3.19a8.32,8.32,0,0,1,3.65-1.05c.76,0,1.49.9,2.31,1.05a9.91,9.91,0,0,0,2.64-.17c-.08-.83-.13-1.67-.25-2.5a4.58,4.58,0,0,0-.52-1.12c2.51,1.63,2.69,2.8,1.12,5-1,1.42-3.44,1.44-5,.24a8.89,8.89,0,0,0-2.51-1c.58,2.28,1,4.06,1.52,5.8a1.54,1.54,0,0,0,.89.8,50.91,50.91,0,0,0,7,2.12c2.07.35,2,1.42,1.79,2.53a51.21,51.21,0,0,0-6.72-1.47c-.75-.08-2.37,1.14-2.34,1.7.23,4.55-2.8,6.77-5.88,9.1-.62.47-.81,1.5-1.2,2.27l.88.66L228,177a15.84,15.84,0,0,1-9.41,7.36,7.66,7.66,0,0,1-5.15-.49c-.75-.35-1.1-2.53-.82-3.69.14-.59,2.3-1.34,3.13-1,1.59.65,1.79,2.16.58,3.62A4,4,0,0,0,215.92,183.76Zm35.9,199.42c-1.29,1.42-2.15,3.06-3.46,3.57a4.25,4.25,0,0,1-3.89-.94c-.79-1-.5-2.84-.74-4.78-2.89-1.95-2.72-3.63,1.08-6-2.37-2.81-5.44-3.47-7.61-2.1.7,1.42,2.08,2.92,1.82,4.05-.29,1.29-2,2.26-3.65,3.89a3.15,3.15,0,0,1-3.13,3.07c-1.37.09-3.54-.45-4-1.39-.75-1.41-.34-3.43-.45-5.9-2.44-2.2-2.16-3.95,1.81-6-2.4-2.74-5.43-3.24-7.61-1.76.89,1.66,2.26,3.2,2.38,4.83.07.9-2,1.95-3.16,3-.83,1.14-1.57,2.87-2.87,3.7a3.73,3.73,0,0,1-3.6-.74c-.88-1.23-.89-3.08-1.26-4.66-.29-1.38-1.32-2.85-1.05-4s1.83-2.14,2.8-3.17c-2.94-1.75-4.37-1.65-6.19.17.31,1.72,1,3.21.64,4.29s-2,1.46-3.26,2.32c-.72.84-1.66,2-2.69,3.11s-2.59,2.13-3.45,3.47c-1.77,2.76-3.23,5.71-4.8,8.59-.46.85-.82,1.75-1.4,3h93l.33-.57c-1.91-1.91-1.37-5.88-5.64-5.87a2.64,2.64,0,0,1-1.81-1.63c-.42-1.37-1.14-1.61-2.44-1.66-2.15-.08-3.55-2-2.75-3.65a11.11,11.11,0,0,1,2-2.27,5.71,5.71,0,0,0-7.19,0c1,1.39,2.66,2.73,2.69,4.09s-1.71,2.59-2.66,3.89c-.49,3-1.42,4.29-3.89,4.34s-3.6-1.38-4.09-4.93c-1.2-1.05-3-2.43-2.82-3.51.2-1.27,2.09-2.28,3.26-3.43-2.34-2.44-6.32-3.06-8.62-1.45.57,1.66,1.64,3.22,1.38,4.53C254.59,381.72,252.77,382.44,251.82,383.18Zm2.81-269.66c.4.66,1.83,2,1.73,3.21s-1.75,2.28-2.78,3.48a8.69,8.69,0,0,0,8,1.24c-2-1.11-3.5-2.59-2.33-4.47.65-1,2.55-1.33,3.64-1.83,1.2-1.23,2.18-2.84,3.59-3.44A3.73,3.73,0,0,1,270,113c.6,1.29.16,3.08.16,4.66.64,1.28,1.7,3,1.29,4.08s-2.27,1.86-3.45,2.73c2.42,2.37,5.22,2.84,7.77,1-3.49-3.37-2.88-6,1.52-7.85.85-1.39,1.77-3.11,3.1-3.51,1.12-.33,3.43.48,3.91,1.45.69,1.36.18,3.32.18,4.8.62,1.11,1.85,2.31,1.71,3.32-.16,1.18-1.52,2.2-2.42,3.38,1.77.41,3.67,1.61,5.59-.32a16.21,16.21,0,0,1-1.44-1.87c-.88-1.61-.24-4.52,1.3-4.67,2.07-.19,3.08-1.43,4.32-2.64a2,2,0,0,1,1.36-.65c2.74.51,3.48-1.54,4.5-3.32,1.32-2.33,2.7-4.62,4-7,.54-.93,1-1.9,1.79-3.43H211.76c1.4,1.82,2.15,3.75,3.45,4.25,1.72.66,3.09,1.2,3.9,2.94.21.47,1.11.57,1.6.95,1,.81,2.42,1.54,2.84,2.62.29.72-.82,2-1.35,3a5.84,5.84,0,0,1-.75.92c3.57,1.39,6.78.92,8.2-1.14-2,.17-3.71-.11-4.08-2.48-.45-2.94,1.76-3.47,3.07-3.78.68-1.91.79-3.79,1.75-4.47a4.6,4.6,0,0,1,4.23-.31c1.12.76,1.44,2.71,2,3.88,1,1.26,2.7,2.43,2.62,3.47-.11,1.42-1.56,2.73-2.49,4.16,2.65,2.16,5.77,2.64,7.43,1.36-.38-1.8-1.34-3.55-.84-4.64s2.43-1.8,3.44-2.46c.83-1.41,1.34-3.14,2.48-3.88.84-.54,3.13-.24,3.69.5C253.88,109.39,254,111.3,254.63,113.52ZM199.92,310.4c.75-1.06,1.17-1.78,1.7-2.4,6.95-8,12.73-16.73,16.47-26.76a89.27,89.27,0,0,0,5.72-26.47c1.26-23.62-6-44.91-18.38-64.72-.9-1.44-1.7-2-3.28-1-1.74,1.13-.74,2.07,0,3.17,13.07,19.87,20.94,41.17,18.43,65.48-1.19,11.59-3.91,22.72-10.07,32.61-4.37,7-9.74,13.4-14.66,20.06l-2.23,3c1.13.12,1.71.23,2.3.23,14.17,0,28.34.09,42.51-.05,1.14,0,2.53-1.18,3.36-2.18,1.65-2,2.8-4.37,4.5-6.29a34.14,34.14,0,0,1,15.89-10.28c1.48-.45,1.86-1.3,1.42-2.73s-1.46-1.13-2.46-.74c-9.05,3.49-16.59,8.86-21.41,17.49a3,3,0,0,1-3.13,1.64c-6.91-.07-13.83-.07-20.74-.08Zm36.7-106.63a43.46,43.46,0,0,0,22.58-16.61,4.46,4.46,0,0,1,4.17-2.31c10.8.1,21.61.05,32.41.06.81,0,1.61.09,2.87.17-1.08,1.42-1.89,2.41-2.63,3.45-3.54,5-7.59,9.72-10.51,15.06-8.91,16.29-11.45,34-9.58,52.24,1.8,17.52,7.36,33.83,17.5,48.42.94,1.34,1.7,2,3.32,1,1.89-1.14.66-2.18,0-3.18-8.64-12.73-14.9-26.42-17.27-41.76-2.6-16.75-1.49-33.06,5.18-48.81,4.45-10.51,11.4-19.28,19.21-27.44.59-.62,1.07-1.34,1.84-2.3-1.06-.13-1.56-.25-2.06-.25-14,0-28,.16-42,.14a4.64,4.64,0,0,0-4.42,2.43,38.37,38.37,0,0,1-19.74,16C235.56,200.86,235.3,201.84,236.62,203.77ZM187.7,313l.23.82c1.37-.42,3.17-.43,4-1.34,8.66-9.07,16.56-18.66,21.53-30.43A85.17,85.17,0,0,0,220,244.63c-.76-16.35-6.16-31.42-14.63-45.38-1.7-2.78-3.55-5.47-5.46-8.39l-2.4,1.55C225.9,235.41,225.9,275.78,187.7,313ZM310.54,182.12l-.28-.63c-1,.33-2.26.37-3,1-9.56,8.83-17.51,18.82-22.31,31.1-5.17,13.25-6.45,26.94-5.24,41,1.51,17.53,8.18,33,18.08,47.35,1.3,1.88,2.31,1.65,3.26.21C273.55,259.53,273.38,219.37,310.54,182.12Zm-20.46,90.5a13.82,13.82,0,0,0,1.44-1.93c2.93-6.88,7.15-12.95,11.73-18.81a2.59,2.59,0,0,0-.15-2.42c-2.6-3.65-5.32-7.21-8.06-10.76-2.12-2.75-4.33-5.43-6.49-8.15l-.81.32C283.71,244.76,285.73,258.34,290.08,272.62Zm39,33.69c-.47,1.14.62,5.25,2.09,6.14,1.06.64,2.07.57,2.2-1a4.48,4.48,0,0,0-.18-2.29c-1.4-2.73-3-5.37-4.43-8.08-.22-.42,0-1.06,0-1.6l.93-.15,4,7.21a5.14,5.14,0,0,0,.33-1.59,32.89,32.89,0,0,0-6-14.44,2.79,2.79,0,0,0-2.58-.18c-4.65,2.48-9.22,5.09-13.77,7.74-.56.33-1.31,1.31-1.16,1.69,1.18,3.16,1.24,7,5.56,9,.28-1.77.53-3.39.81-5a6.93,6.93,0,0,1,.58-2.41c1-1.58,2.15-3,3.27-4.58l.91,1.33,2.77-1.36c-1.1,1.22-1.91,2-2.59,2.87-5,6.42-5.84,5.07-1.39,11.89a43.33,43.33,0,0,0,3.24,4.65c.41.47,1.53.33,2.32.46a8.76,8.76,0,0,0,.17-2.09,6.45,6.45,0,0,0-.77-1.62c-1.18-2.43-3.91-4.1-3.43-7.91a11.1,11.1,0,0,1,1.21,1.49c1.42,2.75,2.72,5.57,4.24,8.27a3.91,3.91,0,0,0,2.23,1.41c.3.09,1.33-.88,1.26-1.23a8.88,8.88,0,0,0-1.18-2.42c-.28-.51-.6-1-.89-1.5-.62-1.09-1.22-2.19-1.84-3.28-.24-1.18-.75-2.3-1.09-3.47a10.09,10.09,0,0,1,0-2.32Zm-118.5-41.76c4.69-8.85,2.84-33.42-2.45-39.82-.2.14-.47.23-.59.42-4,6.16-8,12.31-11.83,18.54a3,3,0,0,0,.36,2.63c3,4.08,6.21,8.08,9.38,12.06C207.07,260.44,208.8,262.42,210.57,264.55Zm26.58-58.11c1.52.26,3.19.22,4.48.9.51.27.67,2.58.13,3.15-.77.8-2.33.85-3.87,1.32l.37,1.94a3,3,0,0,0,.81.06c.49-.15,1-.31,1.46-.51a60.63,60.63,0,0,0,23.33-16.71,5.08,5.08,0,0,1,4.47-2c3.1.14,6.22.08,9.33,0,.8,0,1.94-.16,2.33-.68,1.72-2.31,3.22-4.79,4.85-7.28-.52-.23-.74-.42-1-.42-7.17-.05-14.33-.12-21.5-.05a3.78,3.78,0,0,0-2.22,1.41c-1.89,2.12-3.56,4.46-5.52,6.5a44.45,44.45,0,0,1-16.3,10.28C236.84,204.91,236.13,205.6,237.15,206.44Zm-5.92,49.67c2,.75,2.47,0,2.66-1.55a129.11,129.11,0,0,0,.33-30A122.83,122.83,0,0,0,227,193.62c-1-2.7-3.48-3.61-6.14-2.42C231.17,211.7,233,233.59,231.23,256.11ZM171.51,303c0,1.42,0,2.58,0,3.75.11,20.06.2,40.12.39,60.17a6.54,6.54,0,0,1-2.14,5.25q-4,3.84-7.72,8c-.76.86-1,2.22-1.42,3.36l.84.47c3.79-3.6,7.65-7.13,11.31-10.87a5.92,5.92,0,0,0,1.57-3.78c0-13.22-.14-26.44-.24-39.66,0-7.35-.06-14.7-.15-22.05C173.93,305.9,174.15,303.94,171.51,303ZM268,238.57l-.45-.52c-.57.53-1.39,1-1.63,1.61a14,14,0,0,0-.38,3.07c-2.34,19.75-.69,39.08,5.94,57.91.28.81.5,2,1.09,2.27a18.24,18.24,0,0,0,4,1c.07-.68.4-1.48.17-2a105.62,105.62,0,0,1-6.87-21.64c-1.76-8.92-3.07-17.85-2.65-27C267.45,248.35,267.73,243.46,268,238.57Zm-14.84-.27c-1.95,0-3.77.14-5.55,0-2.1-.2-2.93.71-2.64,2.64.41,2.71-.7,3.57-3.3,3.3-.71-.08-2,.51-2.16,1a38.19,38.19,0,0,0-.55,5.5c.95,0,1.63.05,2.29,0,2.51-.23,4.27.23,3.81,3.41-.1.68.52,2.06.92,2.1a23.53,23.53,0,0,0,6.91,0c.55-.11.59-2.69.88-4.13.06-.33.16-.65.32-1.34h6.1c.2-2.32.38-4.27.55-6.25a7.43,7.43,0,0,0-1.22-.32c-1.8-.1-4.16.49-5.24-.43S253.5,240.41,253.14,238.3ZM227.5,192.09c.22.75.43,1.39.61,2,2,7.49,4.41,14.9,5.86,22.49,2.34,12.28,2.18,24.72.94,37.14a9,9,0,0,0,.51,2.54c.51-.73,1.39-1.43,1.47-2.2.56-6.18,1.21-12.37,1.39-18.57.44-14.48-2.32-28.51-6.48-42.31C231,190.48,229.63,190.85,227.5,192.09Zm-41.6,21.28-.54-.48c-1.06.66-2.2,2-3.16,1.86-2.18-.27-3.23.7-4.07,2.35a57.54,57.54,0,0,1-15.93,19.49c-2.9,2.28-2.85,4.4.28,6.72C173.57,235.86,180.77,225.42,185.9,213.37ZM338.45,111.29l-.86-.49c-.68.62-1.38,1.2-2,1.86-3,3.11-6.08,6.15-8.89,9.42a7.37,7.37,0,0,0-1.74,4.27c-.17,7.44-.08,14.87-.07,22.31,0,13.4,0,26.81.12,40.21,0,1.06.85,2.12,1.53,3.68.5-1,.71-1.16.72-1.38.06-6.31.17-12.61.14-18.92-.06-14.79-.26-29.57-.2-44.36a8.59,8.59,0,0,1,2-5c2.25-2.71,5-5,7.35-7.64C337.51,114.21,337.85,112.63,338.45,111.29ZM290.4,128.21c-.91.21-1.32.29-1.71.4a7.86,7.86,0,0,1-7.48-1.82c-1.89-1.59,0-3.09.53-4.59.06-.16.14-.41.06-.5-.52-.57-1.07-1.11-1.62-1.67-.45.58-1.32,1.18-1.29,1.73.18,3.74-.3,4.65-3.92,5.76-3.24,1-6-.29-8.27-2.44-1.82-1.75-1.34-3.87,0-5.9.31-.46,0-1.41-.18-2.09-.05-.18-1-.33-1.08-.25a5,5,0,0,0-.65,2c0,2-.7,3.66-2.82,4a12.45,12.45,0,0,1-9.86-2c-1.85-1.32-2.58-2.91-1.31-5.13a3.64,3.64,0,0,0,.11-2.34c0-.22-1.47-.44-1.52-.32-.33.7-.8,1.67-.54,2.25.7,1.6-.1,2.38-1.17,3.26-4.14,3.42-11.12,1.23-13.7-1.67-.58-.65-.39-2-.51-3s-.13-1.82-.19-2.73c-.56.06-1.58,0-1.6.18a4.59,4.59,0,0,0,.05,2.5,2.87,2.87,0,0,1-.84,3.87,8.34,8.34,0,0,1-6.93,2.13l-2.54-.29c.15.53.14.85.3,1a2.15,2.15,0,0,0,.86.48,8.53,8.53,0,0,0,8.31-1.5c1.46-1.21,2.47-1.18,4-.16,3.74,2.44,7.87,3.24,12.07,1.37,1.68-.75,2.64-.35,3.87.74a12.44,12.44,0,0,0,10.72,3.29,4.86,4.86,0,0,1,4.76,1.81,8.37,8.37,0,0,0,10.13,2.23,4.56,4.56,0,0,1,5.36.62A6.06,6.06,0,0,0,290.4,128.21Zm-37.76,5.93-1,.52c.52,2.32.93,4.67,1.59,7,2.31,8,4.83,16,7,24.1a25.64,25.64,0,0,1,.73,8.19c-.23,3.43-4.28,5.56-6.57,3.61a4.92,4.92,0,0,1-1.18-3.56c0-.64,1.4-1.72,2.16-1.72,1,0,1.94.91,3.28,1.62-1.83-.2-3-.54-4.07-.34-.4.08-1,1.63-.73,2.14.39.78,1.55,1.85,2.17,1.73,1.3-.26,3-.94,3.51-2a4.4,4.4,0,0,0-.74-3.86c-1.6-1.93-4.6-1.65-6.48.2a4.86,4.86,0,0,0-.29,6.38c3.1,3.67,7.77,3.24,10.37-1,2.14-3.47,1.67-7.24.67-10.8-2.86-10.13-6-20.17-9.06-30.24A8.65,8.65,0,0,0,252.64,134.14Zm85.79,118.25-1.07-.76c-10.27,7.95-18.69,17.41-23.89,29.51,1.27-.28,2.25-1.37,3.17-1.32,2.18.11,3.24-.89,4.32-2.57,4.61-7.2,9.42-14.26,16.59-19.27.44-.3.56-1,.79-1.49l-2.45-.88ZM264.85,238.7l-.88-.58c-.43.65-1.15,1.26-1.24,1.95-.6,4.7-1.25,9.41-1.53,14.14a135,135,0,0,0,2.24,32.23c1,5.32,2.58,10.53,4,15.77.53,2,1.81,2.31,3.76,1.19C263.91,282.34,260.85,260.86,264.85,238.7ZM208.71,365.94c1.17-.19,2.13-.64,2.9-.43,2.08.58,4.44,1,6,2.32s.46,3.12-.75,4.57a2.35,2.35,0,0,0,0,1.87c.07.23,1.19.46,1.3.31a3.49,3.49,0,0,0,.81-1.94c-.11-3.86.54-4.71,4.22-5.37,3.06-.55,5.6.55,7.9,2.4,2.63,2.11,2.68,3.18.54,5.93a1.88,1.88,0,0,0-.36,1.59,1.71,1.71,0,0,0,1.5.56,1.66,1.66,0,0,0,1-1.16c.67-4.65,2.39-6,7-5.55a7,7,0,0,1,6.17,8.75,1.73,1.73,0,0,0,.42,1.52,1.78,1.78,0,0,0,1.65,0,1.65,1.65,0,0,0,.45-1.54c-1-2.46.42-3.75,2.35-4.33a17.34,17.34,0,0,1,6.53-1c4.53.44,6.57,3.33,6,7.57a2.34,2.34,0,0,0,.53,1.55c.15.2,1,.2,1.12,0a2.77,2.77,0,0,0,.48-1.79c-1.23-3.73.36-5.29,3.78-6.68a8.11,8.11,0,0,1,7.88,1l1-1.13a20.43,20.43,0,0,0-2.49-1.12c-3.28-1-6.62-1.14-9.41,1.06-1.59,1.26-2.56.93-4,.05-3.74-2.23-7.74-3-11.85-1.06a2.56,2.56,0,0,1-3.56-.73c-3-3.42-6.93-4.09-11.1-3.12a3.33,3.33,0,0,1-4-1.31,8.28,8.28,0,0,0-9.51-3,7.81,7.81,0,0,1-7.61-.85A5,5,0,0,0,208.71,365.94Zm-25-113.41a10.54,10.54,0,0,0-.55,3.24c.7,4.43,4.07,6.06,7.86,7.29a16,16,0,0,1,4.82,2.33c.73.58.91,2.09.94,3.2,0,.48-1.08,1.47-1.48,1.38a8.55,8.55,0,0,1-2.48-1.46,7.54,7.54,0,0,1-.67-.61l-.82.42c.51,1.16.73,2.65,1.59,3.41,2.09,1.87,3.87.3,5.72-1.55a30.08,30.08,0,0,1,.69,5,10.3,10.3,0,0,0,4,8.57c1,.88,2.8,1,4.26,1.19.36,0,.85-1.15,1.35-1.89l-3.45-1.47c3.65-1.85,4-2.94,2.28-4.44l-3.46,2.19a19.72,19.72,0,0,1-2.13-3.56,32.06,32.06,0,0,1-.72-4.33c-1.12-5.48-3.8-9.58-9.64-10.92a33.91,33.91,0,0,1-3.37-1.07,20.75,20.75,0,0,0,2.8-3.52c.2-.4-.89-1.46-1.18-1.89-1,1.27-1.65,2.72-2.38,2.79C184.8,257.07,185.56,254.06,183.7,252.53Zm7.81-41.92c-2.16.45-3.63,1.22-4.51,3.26a63.29,63.29,0,0,1-4.85,9.71c-5.37,8.31-11.5,16-20.14,21.22a3.16,3.16,0,0,0-1.4,4.54C171.62,244.85,190.25,221.56,191.51,210.61Zm116,73.26c2.85-.59,4-2.55,5.2-4.86,5.68-11.33,14.07-20.42,23.88-28.27,1.51-1.21,2-2.38.87-4.46C323.69,256.06,313.2,268.06,307.47,283.87ZM308.58,241c.7-1.26,1-2.73,1.85-3.12,1.69-.78,2.67.53,3.21,2.06.33.94.62,1.9.92,2.86l.73.1c.22-.86.85-1.89.59-2.55a16.05,16.05,0,0,0-2.95-5.26c-1.26-1.27-3.26-1.81-4.93-2.68a34.86,34.86,0,0,1-5.18-2.81c-.67-.51-.92-2-.86-2.95.05-.62,1.24-1.77,1.56-1.66a9.47,9.47,0,0,1,2.46,1.8c.24.18.46.37.84.68.83-1.76.47-3-.87-4-2.29-1.71-4-.41-6,1.21a29.13,29.13,0,0,1-.31-5.06,8.7,8.7,0,0,0-6.9-8.86c-.77-.18-1.69.32-2.54.5l.1.8,1.74.86a19.07,19.07,0,0,0-1.34,4.27c0,.53,1.23,1.17,1.51,1.42.73-1.51,1.05-3.34,1.84-3.57,2-.58,2.91,1,3.17,2.8.2,1.45.22,2.92.29,4.38.31,6.14,3.24,10.12,9,12.23.94.35,1.85.79,2.87,1.22C306.16,238.88,306.15,239.86,308.58,241Zm11.18-2.55c2.06-.92,2.48-1.83,1-3.73-5.85-7.56-11.51-15.27-17.28-22.9-2.42-3.2-4.93-6.35-7.41-9.55-2.48,1.36-1.68,2.74-.51,4.28,4.17,5.47,8.29,11,12.45,16.49C311.92,228.14,315.83,233.26,319.76,238.41ZM202.9,292.92c1.52-1.29,1.95-2.18.71-3.81-5.29-6.9-10.41-13.93-15.59-20.91-2.82-3.79-5.66-7.57-8.63-11.56l-2,1.84C185.94,270.06,194.39,281.45,202.9,292.92Zm-9,11.4c1.86-1.11,1.66-2.13.52-3.6-4.36-5.58-8.59-11.24-12.85-16.89-4.41-5.85-8.76-11.74-13.24-17.53-.4-.53-1.59-.44-2.42-.64l-.36.88Q179.76,285.4,194,304.32Zm-33.67-82c1.82-.83,3.34-1.57,4.9-2.24,12-5.13,23.93-10.23,35.87-15.42.6-.26.88-1.26,1.32-1.92-.73-.12-1.57-.53-2.16-.3-3.67,1.46-7.3,3.06-10.93,4.64-9.25,4-18.48,8.06-27.75,12C159.85,219.76,159.5,220.64,160.28,222.28Zm50.55,55.16c1.8-2.56,1.83-2.81.27-4.83-3-4-6.12-7.93-9.18-11.89-3.75-4.83-7.5-9.64-11.43-14.71l-2,2.28C196,258.13,203.41,267.76,210.83,277.44ZM305,190.55c-1.82,1-1.51,2-.64,3.12,2.65,3.51,5.25,7.06,7.86,10.6q8.88,12.06,17.75,24.14c.86,1.17,1.69,2,3.26.14Zm33.58,84.05-.19-.87a6.25,6.25,0,0,0-2,0c-4,1.48-7.92,3-11.81,4.61q-13.3,5.63-26.52,11.42c-.75.33-1.85,1.4-1.74,1.88.41,1.76,1.64.86,2.64.42,8.24-3.65,16.47-7.34,24.74-10.93,4.34-1.89,8.77-3.59,13.15-5.42A10.78,10.78,0,0,0,338.62,274.6Zm-77.7-94.06a5.09,5.09,0,0,0,5.42-4.94c.3-3.14.54-6.49-.25-9.47-2.6-9.74-5.65-19.37-8.63-29-.24-.78-1.26-1.31-1.91-2l-.71.56c.81,3.05,1.56,6.13,2.45,9.16,2.2,7.53,4.53,15,6.66,22.57,1.26,4.48,1.08,8.76-2.68,12.19C261.11,179.79,261.09,180.09,260.92,180.54Zm50.45-59.36-.79-.28c-4.78,3.06-11.22,14.74-8.49,25.91,1.46,6,4,11.21,8.69,15.15l1.16-.61a13.54,13.54,0,0,0-1.6-3.31c-8.1-9.15-8.71-25.8,0-34.18C311,123.27,311.05,122.09,311.37,121.18ZM219.84,314.79l-.92-.59c-.82.72-2.13,1.3-2.38,2.18-.71,2.42-1.85,5.2-1.27,7.43,2.53,9.67,5.58,19.2,8.55,28.75.21.68,1.35,1.08,2.05,1.61l1-.78c-2.13-6.89-4.18-13.82-6.43-20.67C218.49,326.8,215.86,321,219.84,314.79Zm-31.21,18.39-.78.28a21.76,21.76,0,0,0,1.08,3c1.51,2.89,3.48,5.59,4.6,8.61,3.59,9.78,1.36,18.61-4.9,26.68-.61.78-.53,2.11-.76,3.18C201.17,364.41,199.79,342.39,188.63,333.18Zm34.06-18.62a4.5,4.5,0,0,0-3.61,4.13,30.72,30.72,0,0,0,.58,9.4c2.3,8.39,5,16.67,7.72,25,.27.83,1.31,1.42,2,2.13l.76-.56a33,33,0,0,0-.71-3.72c-2.22-7.34-4.49-14.68-6.76-22-1.32-4.27-2.34-8.53-.16-12.85A5.64,5.64,0,0,0,222.69,314.56ZM288,217.33c-1.72,2.8-.61,4.53.67,6.22,3.36,4.49,6.69,9,10.1,13.44,3.09,4,6.27,8,9.41,12,1.65-.68,2.13-1.47,1-2.8-.44-.53-.8-1.13-1.21-1.68-5.25-7-10.52-13.9-15.74-20.89C290.85,221.68,289.61,219.66,288,217.33ZM263,138l-.54.31a22.54,22.54,0,0,0,.46,3c1.62,5.56,3.4,11.06,4.93,16.64,1.58,5.79,3.86,11.52,2.61,17.72-.32,1.62-.93,3.19-1.43,4.87,2.2-.15,2.93-.36,3.26-2.4.54-3.27,1.34-6.84.57-9.92-2.38-9.62-5.41-19.07-8.28-28.56C264.37,139,263.52,138.53,263,138Zm16.29,42,.62.69a12,12,0,0,0,2.54-2.29,11.44,11.44,0,0,0,1-9.29c-2.39-8.82-5-17.58-7.6-26.33-.2-.68-1.25-1.1-1.91-1.64l-.69.58c.26,1.14.46,2.3.78,3.42,1.94,6.69,3.93,13.37,5.87,20.06C281.32,170.17,281.94,175.14,279.27,180Zm-19.78-43.63-1.1.49c.62,2.46,1.14,4.94,1.87,7.37,2.15,7.18,4.54,14.3,6.52,21.53,1.29,4.71,1.73,9.54-1.35,13.93-.12.17-.05.48-.08.9,2.89,0,4-2.12,4-4.14.17-3.92.33-8-.61-11.76-2.21-8.77-5.06-17.38-7.72-26A9.21,9.21,0,0,0,259.49,136.36ZM219,353.37l.71-.54a17,17,0,0,0-.45-2.69c-2.11-6.48-4.33-12.92-6.41-19.41-1.57-4.92-3.36-9.88-.54-15,.14-.25,0-.64,0-1.15a3.86,3.86,0,0,0-3.64,3.85c-.08,3.15-.16,6.47.71,9.43,2.35,8,5.17,15.91,7.9,23.81C217.57,352.36,218.46,352.81,219,353.37Zm-10.39-38.78c-2.64.56-3.56,2.71-3.58,4.84a29.18,29.18,0,0,0,1.16,8.63c2.45,7.9,5.22,15.69,8,23.49.22.62,1.1,1,1.67,1.49.17-.73.66-1.56.47-2.18-1.81-5.65-3.7-11.28-5.62-16.89-2.08-6.07-5.15-12-1.76-18.63C209,315.25,208.83,315,208.65,314.59Zm-2.81.27-.8-.58c-.76.76-2.06,1.44-2.2,2.31-.45,2.74-1.22,5.75-.52,8.29,2.37,8.54,5.28,16.93,8.09,25.34.39,1.16-.17,3.42,2.17,2.9.32-.07.48-2.6.1-3.79-2.14-6.55-4.45-13-6.73-19.54C204.21,324.84,202.7,319.9,205.84,314.86Zm84.1-134.61.6.61c.95-1.26,2.28-2.39,2.79-3.8,1.39-3.86.34-7.69-.88-11.4q-3.56-10.82-7.29-21.57c-.24-.68-1.09-1.15-1.65-1.72l-.74.58a30.31,30.31,0,0,0,.74,3.43c1.38,4.08,3.08,8.08,4.19,12.23,1.23,4.63,4.07,8.9,3.54,13.94C291,175.13,290.38,177.68,289.94,180.25Zm2.94.31c3.06-1.46,4.89-4.57,4.44-7.32a62.47,62.47,0,0,0-2.06-8.75c-2.06-6.57-4.26-13.1-6.49-19.62-.39-1.12.09-3.49-1.93-2.89s-.7,2.48-.29,3.75c2.45,7.53,5.22,15,7.36,22.58.8,2.85.29,6.09.21,9.14C294.1,178.29,293.48,179.11,292.88,180.56ZM215.16,314.08c-1,1.16-2.35,2.07-2.61,3.24-.52,2.3-1.08,4.92-.47,7.08,2.62,9.29,5.65,18.46,8.6,27.65.2.6,1,1,1.47,1.53a2.16,2.16,0,0,0,.42-1.78c-2.17-7-4.37-14-6.54-21-.55-1.81-1.39-3.64-1.43-5.47C214.52,321.85,214.91,318.32,215.16,314.08Zm97-189.38c-10.1,6.63-8.65,26.88.06,32.62-2.25-5.21-5.33-10.07-5.34-16.09S309.11,129.82,312.21,124.7ZM186.64,336.47a22.57,22.57,0,0,0,1.15,3.13c5.58,9.68,6.46,19.31-.11,28.95A7.84,7.84,0,0,0,187,371C196.09,362.88,195.94,342.19,186.64,336.47Zm-3.84,8c-2.18,1.38-3,2.91-1.61,5.2a4.94,4.94,0,0,1,.68,2.73c-.18,2.54-.73,5.07-.83,7.62,0,1,.78,2,1.2,3,.65-.52,1.6-.92,1.88-1.6C186.5,355.57,185.56,350,182.8,344.48Zm-3.44,16.29a11.48,11.48,0,0,0,.46-11.63c-.33-.68-1.78-1.53-2.19-1.31a4,4,0,0,0-2,2.44c-.31,1.92,0,3.94-.18,5.88C175.13,359,176.34,360.47,179.36,360.77Zm137.09-229c-3.33,4.4-3.07,14.4.43,17.76,2.22-1.26,2.15-1.25,1.56-3.62-.86-3.43-1.67-6.92-.3-10.38C318.94,133.55,318.28,132.48,316.45,131.8Zm3.45,2.84a12.76,12.76,0,0,0-.41,10.88c.25.66,1.45,1.55,1.91,1.4a3,3,0,0,0,1.81-1.94c.26-2,0-4.14.17-6.19C323.64,136.22,322.71,134.84,319.9,134.64ZM202.29,309.33c3.07,0,5.52,0,8,0a1.61,1.61,0,0,0,1.17-.41c1.82-2.53,3.57-5.11,5.34-7.68l-.6-1c-2.54.38-5.58,0-7.48,1.32C206.26,303.19,204.75,306.2,202.29,309.33Zm93.5-122.62-.32-.73c-2.94.23-6.36-.39-8.68.92s-3.47,4.57-5.14,7l.5.7c1.94,0,3.89.08,5.82,0a3.49,3.49,0,0,0,2.27-.82C292.18,191.46,294,189.06,295.79,186.71Zm-77,7.43c-.51-2.2-3.59-5.23-5.77-4.91-2.48.36-1.89,2.9-2.25,4.6-.29,1.45,3.29,4.38,5.37,3.9C217.25,197.47,217.92,195.4,218.79,194.14Zm63.4,103.08c-2.61,4.9-1.26,7.32,4.44,7.92C288.26,298.66,289,299.48,282.19,297.22Zm-13.55-70.63-.38.78,6.15,8.67c.45-2.78.94-5,1.08-7.19.05-.72-.74-2.07-1.29-2.15A36.77,36.77,0,0,0,268.64,226.59Zm-50.72-27.46c-2.57,4.78-2.48,5.91.7,7.53.9.46,2,2.18,3.23.24s1.19-4.88-.23-5.77C220.48,200.41,219.24,199.84,217.92,199.13Zm59.35,88.43c-.25,1.3-.53,2.62-.76,4-.27,1.6,3,4.42,4.5,3.85a1.75,1.75,0,0,0,.77-.93C283.47,290.36,282,288.05,277.27,287.56Zm.05-1.93c2.43-4.82,2.21-6.29-1.23-7.7a2.13,2.13,0,0,0-1.94.65C272.34,281.67,273.25,283.66,277.32,285.63Zm-8.81-61c6.76,1.54,9.3-.31,8.81-6.28H274c.39,1.63,3.5,2.19,1.46,4.12-1,1-2.38,2.27-4.3.78-3.24-2.51.36-3.33,1.22-4.85C269.58,218.06,268.78,219.42,268.51,224.6Zm-44.45-7.36c2.76-3.55,2.58-5.62-.76-7.14a2.16,2.16,0,0,0-2,.56C219.13,214,219.81,215.56,224.06,217.24Zm58.18-10.45c-2,.06-2.55,3.46-5,1.17-2.63-2.5.26-3.55,1.51-5-2.23-.45-4.15,2.11-4.72,6.09,6.69,1.2,8.62,0,9.75-6.18h-4ZM224.71,219c-2.88,3.87-2.82,5.47.37,7.42a2.11,2.11,0,0,0,2-.27C229.34,223.39,228.68,221.44,224.71,219Zm5.61,49-5.49-7.21-.65.22-.92,7Zm57.75-71.73c-6.36-1.41-9.11,0-9.87,4.87C286.1,201.61,285.12,202.33,288.07,196.26ZM183.55,239.65c3-.67,4.49-2.43,4.65-5.91l-6.37-.49Zm-23.92,12.18a54,54,0,0,0,5.24,2.33,2,2,0,0,0,1.68-1,51.37,51.37,0,0,0,.35-5.42l-.76-.28Zm35.54-29.52c3-2.17,3.79-4.23,2.74-7.46L192,216.26c.75,1.18,1.39,2.08,1.9,3.05S194.74,221.29,195.17,222.31ZM280.29,211c-6.53-1.31-8.91,0-9,5C278.05,217.53,278.75,217.15,280.29,211Zm28.89,53c-2.44.48-3.4,2.28-4,4.27a1.82,1.82,0,0,0,.94,1.48c1.88.16,3.78.07,5.67.08Zm-8.8,15.85,6.44-1.35-3.58-5.81C301.08,274.72,299.66,276.77,300.38,279.9ZM181.71,241.73l-6.87-1,1.79,6.73A7.59,7.59,0,0,0,181.71,241.73Zm8.38-10.1c3-1.46,4-3.23,3.69-6.19h-6.33ZM315.65,256c-3.1.59-4.6,2.41-4.45,5.35l6.28.57Zm-41.06,19.27c2.54-3,2.82-4.44.92-5.58-1-.62-2.19-2.87-3.67-.33C270.07,272.4,270.27,272.93,274.59,275.29ZM324,254.6l-1.14-6.15c-3.33.72-4.82,2.27-5.2,5.21Zm-156.09-.75c3.43-.22,5.29-1.83,5.78-4.8l-5.26-1.49C168.28,249.62,168.11,251.63,167.93,253.85ZM194.19,224l-2.86-6.31-.94.17-3.11,6.53Zm77.23,35.16c-3.41,4.08-3.31,4.22,1.18,7C275.55,262.69,275.3,261.24,271.42,259.16ZM261.3,296.27c.67,2.28,1.19,4.43,2,6.47.24.64,1.19,1,1.82,1.5.35-.75,1.12-1.6,1-2.22-.52-2.14-1.37-4.2-2.15-6.44Zm-34.66-67.42c-3.19,3.42-2.94,4.79,1.13,7C230.75,232.84,230.54,231.35,226.64,228.85Zm79.92,51.24a41.09,41.09,0,0,0-4.54.84c-.49.15-1.2,1.12-1.08,1.4.57,1.34,1.17,3.37,2.17,3.64,1.64.45,2.62-1.13,2.78-2.91A23.83,23.83,0,0,1,306.56,280.09Zm32-36.45c-2.24-1.3-3.73-3-5.82-1.79-1.28.73-1,4,.44,5.74C334.79,246.39,336.42,245.2,338.55,243.64ZM174.26,248l.66-.85-1.34-5.87-4.84,4.21.07.91Zm133.65,30,3.48-6.49-6-.34-.47.83Zm-132-39,.28,1.17h5.36c-.23-1.55-.43-3.1-.72-4.64-.07-.37-.44-.69-.82-1.26Zm154.8,9v-5.74c-3.32.17-4.71,1.3-5.26,4.14Zm-20.4,14.74c.91,2.46,1.56,4.21,2.47,6.65l4.47-6.15Zm-75.22-63.24,1,.36c.32-.8,1.06-1.7.89-2.39a36.77,36.77,0,0,0-2.07-5.8c-.2-.45-1-.65-1.47-1-.19.56-.64,1.19-.51,1.67C233.6,194.69,234.38,197.05,235.11,199.42ZM181.8,232l7,.52c-1.06-2.46-1.82-4.21-2.82-6.51Zm56.92-33.71c1.73-.34,2.5-.91,1.85-2.53s-1.23-3.59-2-5.31c-.22-.49-1.09-.69-1.67-1-.15.6-.57,1.27-.43,1.78C237.1,193.54,237.9,195.81,238.72,198.32Zm33.1,59.19c2.64-3,2.77-4.35.4-6.07-.44-.32-1.88.08-2.37.61C268.05,254,268.36,254.72,271.82,257.51Zm58.61-7.8c-1.84-1.55-3.94-2.49-5.34-1.25s-.75,3.56.52,5.52ZM195.57,208.83l-1-.18-2.59,5.22.68.7,5.52-1.21Zm127.16,47.69-.19-.88-5.63-.76,1.89,6.42ZM231.18,241.1,227.87,238c-.86,1.11-2.21,2.14-2.4,3.36-.12.78,1.46,1.83,2.27,2.76Zm-2.58,4.75-1.18,0c-.66,1.35-1.7,2.67-1.82,4.07-.06.76,1.44,1.65,2.24,2.48.84-.82,2.36-1.65,2.35-2.47C230.17,248.55,229.18,247.2,228.6,245.85Zm43-3.49c-2.91,2.24-3.24,3.34-1.65,5.18.71.82,1.36,1.57,2.5.47C274.3,246.21,274.15,244.87,271.56,242.36Zm-9.29,61.83c-.61-2.07-1.09-4-1.78-5.85-.19-.51-1-.78-1.54-1.17-.21.65-.74,1.38-.59,1.92a46.87,46.87,0,0,0,2,5.34,1.44,1.44,0,0,0,1.11.75C261.75,305.15,262,304.53,262.27,304.19ZM197.3,208l-.63.51,2.2,3.71,1,.14,2.32-5.4-1-.55-2,2.71Zm-37.15,51.33,1.5,1.3,3.85-4-.78-1.05-4-1.57-.29.51,1.64,1.77ZM281.83,131.9c-2.92-3.33-3.16-3.35-7.1-.73ZM287,313.66c-1.37-.84-2.18-1.72-2.73-1.58-.81.2-1.45,1.13-2.16,1.75.7.62,1.35,1.64,2.09,1.72S285.68,314.63,287,313.66ZM313,144l-.78-.16c-.53,1.15-1.49,2.32-1.41,3.43,0,.59,1.86,1.06,2.88,1.58l.54-.63Zm25,92.79-.74-.77-4,3.6,4.37,1.82.36-.64-1.78-1.89ZM216,298.84c2.57.05,3.79-1.43,4.49-4.88H216.9l1.63,2.92Zm-.88-4.57c-3.11,0-3.27,2.71-4.9,4.61h3.92l-1.34-2.58Zm2.36-113c-1.41-.8-2.19-1.54-3-1.58-.53,0-1.11,1-1.67,1.52.65.67,1.21,1.68,2,1.88C215.28,183.27,216.11,182.27,217.45,181.31ZM186.19,350.22l.79.46L189,347.9l-3.8-1.95Zm110.57-62,.95.28,1.24-2.63,2.18,1.23c-1-1.78-1.54-2.86-2.41-4.46ZM309.6,140.43l0,1,2.91,1.71.72-.59-.95-3.16ZM186.68,356.14l3.36-1.93-3.36-2.51Zm36.21,7.93-6.25-.71C218.54,366,220.26,365.89,222.89,364.07ZM187.4,357.7l-.77.13-.91,3.74,3.63-.9ZM186,362.92l-1.6,0a20.27,20.27,0,0,0,.07,3.12c0,.21,1,.27,1.53.41ZM312.66,138.2c.28-1.69.46-2.76.73-4.34l-3.3,1.06Zm.63-5.89,1.43-.11v-3l-1.9,0C313,130.29,313.14,131.3,313.29,132.31ZM189.78,346c-.62-1.5-1.07-2.57-1.65-4C186.34,344.48,186.7,345.64,189.78,346ZM188,356.91l2.72,2.95c.17-1.88.27-3.06.42-4.73ZM311.12,152.24l.73,0,.8-2.37-3.32-1.6ZM185.33,345.07c.45-1.37.82-2.53,1.35-4.12C183.47,342.29,183.46,342.31,185.33,345.07Z" transform="translate(-119.2 -67)"/><path class="cls-2" d="M220.42,179.17c-1.61-1.14-2.79-2.47-4.24-2.91-3.56-1.07-6.62,1.25-6.8,5.05a3.76,3.76,0,0,1-2.11,3.48q-8.06,4.69-16,9.6c-1.67,1-2.54.42-2.76-1.15-.49-3.45-.76-6.94-1.16-10.88-2.9-.62-4.16,1.88-5.57,4.91-1-1.77-1.69-3.08-2.48-4.34-.92-1.45-1.92-2.86-2.9-4.28a2.75,2.75,0,0,0-3.6-1.08,4.79,4.79,0,0,1-2.54-.09c-1.56-.41-2.12.33-3.26,1.41-2.74,2.61-2.24,6.11-3.39,9.1a5,5,0,0,0,.21,3.43c2,4.66,4.26,9.24,6.42,13.85.14.3.26.61.52,1.23l-10.73,6c-.1-1.85-.22-3-.21-4.18,0-14.45.1-28.89.11-43.34q0-29.31,0-58.63c0-3.63.13-3.71,3.81-3.74,6.39-.06,12.79-.24,19.18-.23q12.06,0,24.11.33a4,4,0,0,1,2.9,1.54c3.5,6.06,6.9,12.17,10.13,18.37.92,1.78.75,4.2,1.83,5.82,2.13,3.22,1.11,7.07,2.67,10.34,1.2,2.5.79,5-.3,7.47s-2.19,4.9-3.19,7.38c-1.66,4.08-1.51,5,1.89,7.69A4.89,4.89,0,0,1,225,166c-.08,1.62.65,3.26.78,4.91C226.12,175.2,223.09,177.23,220.42,179.17Zm-53.66-42.93a122.52,122.52,0,0,1,23.36,31.21l22.77-31.39a139.82,139.82,0,0,1-22.41-31.78A150.15,150.15,0,0,1,166.76,136.24Z" transform="translate(-119.2 -67)"/><path class="cls-2" d="M310,299.64c.57,4.37,1.08,8.31,1.63,12.54,2.88,1.14,4.05-1.15,5.39-3.91l4.6,6.72c1.45,2.11,2.56,3.92,6,2.43,1.73-.76,3.4-.4,4.71-2.63,1.11-1.9,1.25-3.6,1.72-5.54,1.92-7.88-2.41-13.88-5.39-20.74l9.57-5.8a25,25,0,0,1,.35,2.81q.06,52.41.12,104.84c0,1.83-.3,2.81-2.53,2.8-14.69-.07-29.39,0-44.09-.06a3.9,3.9,0,0,1-2.79-1.76c-3.26-5.9-6.34-11.9-9.42-17.89a18.94,18.94,0,0,1-.49-2.22c-.52-1.4-1.1-2.78-1.75-4.12s-1.83-2.74-2.2-4.25a52.76,52.76,0,0,1-1.31-8.67,13.86,13.86,0,0,1,.68-5.31c1.28-3.76,2.78-7.45,4.36-11.09.72-1.64.66-3.3-.92-3.72-4-1.07-4.15-4.38-4.89-7.39a9.48,9.48,0,0,1,3.77-10.22c1.15-.83,1.94-.86,2.79.34a4.91,4.91,0,0,0,6.36,1.89c2.32-.89,3.66-3.16,3.82-5.95a3.8,3.8,0,0,1,1.22-2.72c5.46-3.32,11-6.47,16.56-9.66A19.13,19.13,0,0,1,310,299.64Zm-1.2,91.43c.51-.48.76-.62.88-.83a139.31,139.31,0,0,1,21.91-29.11c1.27-1.29.27-1.86-.43-2.75-5-6.26-10.07-12.46-14.86-18.86-2.67-3.56-4.85-7.47-7.36-11.39-.4.52-.69.83-.9,1.18-6.16,10.21-12.65,20.18-20.85,28.93a2.93,2.93,0,0,0-.09,2.38c.23.67,1,1.16,1.51,1.74A139.11,139.11,0,0,1,308.76,391.07Z" transform="translate(-119.2 -67)"/><path class="cls-2" d="M187.7,377.49c15.18-14,12.77-35.56.52-46.23-2.24,6.62-5,12.82-12.55,16.09V306.78l.81-.67c1.92,2.19,3.89,4.34,5.73,6.59a5.67,5.67,0,0,0,5,2.06c4-.14,8-.16,11.92-.22,1,0,2,0,3.36,0-3.07,6.87-.84,12.82,1.42,18.87,2.19,5.89,4,11.91,6,17.9.24.72.34,2.07,0,2.34-3.54,2.43-2.51,6.09-2.76,9.42a5.48,5.48,0,0,1-.49,2.18c-4.73,8.54-9.54,17-14.24,25.58a4,4,0,0,1-4.07,2.34c-7.94-.11-15.9.05-23.85,0-1.23,0-3.36-.33-3.53-.94-.54-2-1.14-4.17.77-6,3.65-3.55,7.11-7.31,10.82-10.79,2.12-2,3.65-4,3.11-7.1a26.8,26.8,0,0,1,0-4.91c0-2.4.76-2.8,2.81-1.59,4.94,2.91,7.55,7.41,8.72,12.89C187.26,375.51,187.44,376.34,187.7,377.49Z" transform="translate(-119.2 -67)"/><path class="cls-2" d="M323.13,188.66c-2.5-2.43-4.57-4.7-6.92-6.62a7.69,7.69,0,0,0-4.26-1.73c-4.48-.12-9,.16-13.47.26a15.92,15.92,0,0,1-1.9-.15c-.12-.36-.26-.57-.2-.67,2.92-5.19,1.82-10.09-.29-15.35-2.69-6.72-4.56-13.77-6.76-20.68-.42-1.33.33-2.13.95-3.29,1.27-2.4,1.55-5.34,2.15-8.08.28-1.26,0-2.77.6-3.82q6.86-12.06,14-23.93a3.81,3.81,0,0,1,2.55-1.78c9.4-.13,18.8-.08,28.06-.08,1.15,3.09.9,5.2-1.14,7.17-3.59,3.49-7,7.2-10.57,10.69a6.84,6.84,0,0,0-2.44,5.93,35.33,35.33,0,0,1-.08,5.44,11,11,0,0,1-.55,2.12,7.11,7.11,0,0,1-2.12-.66,21.07,21.07,0,0,1-8.43-11.76c-.21-.82-.5-1.61-.77-2.46-14,9.71-14.59,32.27.15,44.86,1.62-6.84,3.37-13.54,11.43-16.37Z" transform="translate(-119.2 -67)"/><path class="cls-2" d="M215.92,183.76a4,4,0,0,1,.43-.93c1.21-1.46,1-3-.58-3.62-.83-.34-3,.41-3.13,1-.28,1.16.07,3.34.82,3.69a7.66,7.66,0,0,0,5.15.49A15.84,15.84,0,0,0,228,177l-7.76,6.06-.88-.66c.39-.77.58-1.8,1.2-2.27,3.08-2.33,6.11-4.55,5.88-9.1,0-.56,1.59-1.78,2.34-1.7a51.21,51.21,0,0,1,6.72,1.47c.17-1.11.28-2.18-1.79-2.53a50.91,50.91,0,0,1-7-2.12,1.54,1.54,0,0,1-.89-.8c-.51-1.74-.94-3.52-1.52-5.8a8.89,8.89,0,0,1,2.51,1c1.59,1.2,4,1.18,5-.24,1.57-2.21,1.39-3.38-1.12-5a4.58,4.58,0,0,1,.52,1.12c.12.83.17,1.67.25,2.5a9.91,9.91,0,0,1-2.64.17c-.82-.15-1.55-1.05-2.31-1.05a8.32,8.32,0,0,0-3.65,1.05c-2-.11-2.24-1.52-1.61-3.19,1.14-3,2.23-6,3.63-8.86a10,10,0,0,0,.3-9.19,12.22,12.22,0,0,1-.77-2.47c-.55-2.39.16-3.62,2.62-4.1,5.79-1.14,11.49,0,17.23.7,4.45.57,6.49,2.59,7.57,7.08,2.19,9.13,5.21,18.06,7.81,27.09a37.32,37.32,0,0,1,.75,4.77c-.55.06-.76.15-.88.08-5.66-3.07-9.07-1-9.25,5.47a8,8,0,0,1-2,4.22,51.4,51.4,0,0,1-4.48,4.5l-.63-.48,4.46-7.83-.49-.35c-.81,1.28-1.61,2.57-2.44,3.84s-1.71,2.82-2.73,4.1-2.16,2.23-3.25,3.34l-.84-.66q2.91-4.6,5.83-9.21c-3.7,4-5.59,9.49-11,11.73l-.63-.53,1.75-2.58a55,55,0,0,1-5.7,3.64c-1.84.9-2.46.41-3-1.58-2.71,1-5.42,2.15-8.8.35l5.26-1.74-.14-.4a36.3,36.3,0,0,1-5.44.69,5.87,5.87,0,0,1-5.87-6.69,4.71,4.71,0,0,1,5.13-3.76,4.12,4.12,0,0,1,3.47,4.69C218.58,183.43,218.08,183.8,215.92,183.76Zm18.58-32.95.09-.77,10.5-2.8c-2.07-1.16-3.82-2.6-5.82-3.15-3.31-.91-6.77-1.25-10.44-1.87l1.83,4.19.52-.53,1.79,1.79-3.25,1.63c1.61,1,2.85,1.83,4.13,2.59s2.6,1.45,3.9,2.18l.27-.59Zm13.06-8.09c-4.12-5.09-12.5-7.94-18.59-6.62-.54.12-1,.7-1.46,1.07a5.9,5.9,0,0,0,1.58,1.29,4.89,4.89,0,0,0,2,0,19.79,19.79,0,0,1,11.06,1.85C244,141.13,245.77,141.91,247.56,142.72Zm-19.79,21.41c3.29,1.12,6.1,2.16,9,3a6.5,6.5,0,0,0,3.07,0c1.87-.4,3-1.84,2.46-3.59-.47-1.45-1.82-2.64-2.88-3.85-.1-.11-.95.44-1.72.81.65.43.84.65,1.07.7,1.81.38,3.24,1.11,2.48,3.3-.53,1.55-2.62,1.94-4.47.92a30,30,0,0,0-3.07-1.91C231.83,162.77,229.85,162.06,227.77,164.13Zm18-18.15c-5-4.37-11-7.21-14.79-4.1C236.82,140,241.06,143.81,245.76,146Zm-8.65,31.3-.53-.5-9.45,11.07.52.45Zm-11.84,7.11.54.51,6.24-6.52.15.17Z" transform="translate(-119.2 -67)"/><path class="cls-2" d="M266.27,307.27c1.88-.79,3.75-1.6,5.65-2.35a2,2,0,0,1,1.45.25,30.65,30.65,0,0,0-10.88,13.44c5-7.12,9.62-14.75,20.17-12.84-4.57,1.67-9.3,3.09-12.65,7.66,2.69-1.71,4.9-3.5,7.41-4.58a14.09,14.09,0,0,1,6.5-1.1,5.37,5.37,0,0,1,5,4.6c.47,2.34-.71,4-2.5,5.27A4.54,4.54,0,0,1,280.1,316c-1-1.88-.22-3.74,2.47-5-.27.65-.6,1-.57,1.42.07,1.25-.17,3,.53,3.59a3.55,3.55,0,0,0,3.52-.23c.68-.69.92-3,.35-3.54a8,8,0,0,0-4.62-2.27c-3.31-.21-10.35,4.15-11.53,9.05,2.3-3,4.53-6,9-6.65a31.48,31.48,0,0,1-1.95,2.83,45.42,45.42,0,0,0-3.67,4,6.87,6.87,0,0,0-1.09,3.81c.09,2.44-.54,3.44-3,3.09a53.21,53.21,0,0,1-6.1-1.6c.42,1.1.14,2.44,2.45,2.67s4.44,1.29,6.62,2.08a1.47,1.47,0,0,1,.76,1.15c-.21,2.42,1.21,3.74,3.12,4.57s2,2.13,1.38,3.77c-1,2.66-1.9,5.39-3.13,7.95a12.53,12.53,0,0,0-.92,9.77,25.62,25.62,0,0,1,.64,3c.62,3.17.14,4-3,4.31a54.07,54.07,0,0,1-20.8-1.63,3.67,3.67,0,0,1-2.17-2.07q-4-13.51-7.72-27.11c-.7-2.54-1.13-5.15-1.78-8.14a11.13,11.13,0,0,1,1.93.45c4.3,2.13,8.16-.38,8-5.21-.17-4,1.73-6.86,6.29-8.91l-4.41,8.39.5.26c1.43-2.44,2.78-4.94,4.32-7.31s3.11-4.69,6.32-5.73c-2.66,4.46-5.15,8.6-7.63,12.75l.67.45c3.12-5.58,5.66-11.66,11.54-14.86l.67.5c-.23.6-.46,1.21-.68,1.82a30.38,30.38,0,0,0-7.64,11.37q3.38-4.67,6.58-9.43A15.55,15.55,0,0,0,266.27,307.27Zm-.75,38.82c1.2.32,2.1.76,2.26.57a5.59,5.59,0,0,0,1.14-2.17c-1.73-1.26-3.58-2.35-5.41-3.48a3.35,3.35,0,0,0,1.14,1.56,14,14,0,0,1,1.14,1.6,11,11,0,0,1-1.89,1,30.27,30.27,0,0,1-4.74,1.22c-1.77.25-3.59.2-6.15.31,3.85,2.57,7,4.91,11.11,5.17,1.94.12,3.88.31,5.74.46-.35-1.14-.78-2.51-1.2-3.88l-2,1Zm-6.08-11.47.48-.7c-.33-.19-.82-.31-1-.59-.48-1-.83-2-1.23-3,1.09-.41,2.42-1.42,3.24-1.11a76.14,76.14,0,0,1,7.6,3.83c-2.87,2.49-3.13,4.46-1.3,5.34,0-.85.09-1.91.13-3a23.34,23.34,0,0,1,3.47.43c.71.18,1.28,1.07,2,1.15s1.52-.39,2.79-.78l-5.78-3.07c.23-.86.43-1.64.63-2.39a95,95,0,0,0-9.38-3.23,5.35,5.35,0,0,0-3.85,1.22c-1.3,1-1.2,2.67-.24,4A11.78,11.78,0,0,0,259.44,334.62Zm-7.8,17.54c4.14,4.56,9.14,7.24,15.33,7.3a3.69,3.69,0,0,0,2-.43,12.23,12.23,0,0,0,1.92-1.95c-.83-.23-1.73-.8-2.47-.64A16.94,16.94,0,0,1,258,355.29C255.85,354.37,253.77,353.21,251.64,352.16Zm15.51,1.74L256,351.35C259.15,353.06,262.79,355.19,267.15,353.9Z" transform="translate(-119.2 -67)"/><path class="cls-2" d="M251.82,383.18c1-.74,2.77-1.46,3-2.5.26-1.31-.81-2.87-1.38-4.53,2.3-1.61,6.28-1,8.62,1.45-1.17,1.15-3.06,2.16-3.26,3.43-.16,1.08,1.62,2.46,2.82,3.51.49,3.55,1.52,5,4.09,4.93s3.4-1.35,3.89-4.34c.95-1.3,2.68-2.61,2.66-3.89s-1.71-2.7-2.69-4.09a5.71,5.71,0,0,1,7.19,0,11.11,11.11,0,0,0-2,2.27c-.8,1.66.6,3.57,2.75,3.65,1.3.05,2,.29,2.44,1.66a2.64,2.64,0,0,0,1.81,1.63c4.27,0,3.73,4,5.64,5.87l-.33.57H194c.58-1.22.94-2.12,1.4-3,1.57-2.88,3-5.83,4.8-8.59.86-1.34,2.33-2.29,3.45-3.47s2-2.27,2.69-3.11c1.3-.86,2.9-1.36,3.26-2.32s-.33-2.57-.64-4.29c1.82-1.82,3.25-1.92,6.19-.17-1,1-2.51,1.95-2.8,3.17s.76,2.65,1.05,4c.37,1.58.38,3.43,1.26,4.66a3.73,3.73,0,0,0,3.6.74c1.3-.83,2-2.56,2.87-3.7,1.19-1.08,3.23-2.13,3.16-3-.12-1.63-1.49-3.17-2.38-4.83,2.18-1.48,5.21-1,7.61,1.76-4,2-4.25,3.78-1.81,6,.11,2.47-.3,4.49.45,5.9.5.94,2.67,1.48,4,1.39a3.15,3.15,0,0,0,3.13-3.07c1.63-1.63,3.36-2.6,3.65-3.89.26-1.13-1.12-2.63-1.82-4.05,2.17-1.37,5.24-.71,7.61,2.1-3.8,2.35-4,4-1.08,6,.24,1.94,0,3.79.74,4.78a4.25,4.25,0,0,0,3.89.94C249.67,386.24,250.53,384.6,251.82,383.18Z" transform="translate(-119.2 -67)"/><path class="cls-2" d="M254.63,113.52c-.63-2.22-.75-4.13-1.71-5.4-.56-.74-2.85-1-3.69-.5-1.14.74-1.65,2.47-2.48,3.88-1,.66-2.89,1.26-3.44,2.46s.46,2.84.84,4.64c-1.66,1.28-4.78.8-7.43-1.36.93-1.43,2.38-2.74,2.49-4.16.08-1-1.6-2.21-2.62-3.47-.53-1.17-.85-3.12-2-3.88a4.6,4.6,0,0,0-4.23.31c-1,.68-1.07,2.56-1.75,4.47-1.31.31-3.52.84-3.07,3.78.37,2.37,2.1,2.65,4.08,2.48-1.42,2.06-4.63,2.53-8.2,1.14a5.84,5.84,0,0,0,.75-.92c.53-1,1.64-2.3,1.35-3-.42-1.08-1.81-1.81-2.84-2.62-.49-.38-1.39-.48-1.6-.95-.81-1.74-2.18-2.28-3.9-2.94-1.3-.5-2.05-2.43-3.45-4.25h93.41c-.79,1.53-1.25,2.5-1.79,3.43-1.33,2.33-2.71,4.62-4,7-1,1.78-1.76,3.83-4.5,3.32a2,2,0,0,0-1.36.65c-1.24,1.21-2.25,2.45-4.32,2.64-1.54.15-2.18,3.06-1.3,4.67a16.21,16.21,0,0,0,1.44,1.87c-1.92,1.93-3.82.73-5.59.32.9-1.18,2.26-2.2,2.42-3.38.14-1-1.09-2.21-1.71-3.32,0-1.48.51-3.44-.18-4.8-.48-1-2.79-1.78-3.91-1.45-1.33.4-2.25,2.12-3.1,3.51-4.4,1.9-5,4.48-1.52,7.85-2.55,1.84-5.35,1.37-7.77-1,1.18-.87,3-1.54,3.45-2.73s-.65-2.8-1.29-4.08c0-1.58.44-3.37-.16-4.66a3.73,3.73,0,0,0-3.48-1.29c-1.41.6-2.39,2.21-3.59,3.44-1.09.5-3,.78-3.64,1.83-1.17,1.88.29,3.36,2.33,4.47a8.69,8.69,0,0,1-8-1.24c1-1.2,2.68-2.27,2.78-3.48S255,114.18,254.63,113.52Z" transform="translate(-119.2 -67)"/><path class="cls-2" d="M199.92,310.4h15.92c6.91,0,13.83,0,20.74.08a3,3,0,0,0,3.13-1.64c4.82-8.63,12.36-14,21.41-17.49,1-.39,2-.8,2.46.74s.06,2.28-1.42,2.73a34.14,34.14,0,0,0-15.89,10.28c-1.7,1.92-2.85,4.32-4.5,6.29-.83,1-2.22,2.17-3.36,2.18-14.17.14-28.34.08-42.51.05-.59,0-1.17-.11-2.3-.23l2.23-3c4.92-6.66,10.29-13.05,14.66-20.06,6.16-9.89,8.88-21,10.07-32.61,2.51-24.31-5.36-45.61-18.43-65.48-.72-1.1-1.72-2,0-3.17,1.58-1,2.38-.46,3.28,1,12.34,19.81,19.64,41.1,18.38,64.72a89.27,89.27,0,0,1-5.72,26.47c-3.74,10-9.52,18.74-16.47,26.76C201.09,308.62,200.67,309.34,199.92,310.4Z" transform="translate(-119.2 -67)"/><path class="cls-2" d="M236.62,203.77c-1.32-1.93-1.06-2.91.86-3.62a38.37,38.37,0,0,0,19.74-16,4.64,4.64,0,0,1,4.42-2.43c14,0,28-.09,42-.14.5,0,1,.12,2.06.25-.77,1-1.25,1.68-1.84,2.3-7.81,8.16-14.76,16.93-19.21,27.44-6.67,15.75-7.78,32.06-5.18,48.81,2.37,15.34,8.63,29,17.27,41.76.67,1,1.9,2,0,3.18-1.62,1-2.38.3-3.32-1-10.14-14.59-15.7-30.9-17.5-48.42-1.87-18.26.67-36,9.58-52.24,2.92-5.34,7-10.07,10.51-15.06.74-1,1.55-2,2.63-3.45-1.26-.08-2.06-.17-2.87-.17-10.8,0-21.61,0-32.41-.06a4.46,4.46,0,0,0-4.17,2.31A43.46,43.46,0,0,1,236.62,203.77Z" transform="translate(-119.2 -67)"/><path class="cls-2" d="M187.7,313c38.2-37.26,38.2-77.63,9.76-120.63l2.4-1.55c1.91,2.92,3.76,5.61,5.46,8.39,8.47,14,13.87,29,14.63,45.38a85.17,85.17,0,0,1-6.45,37.46c-5,11.77-12.87,21.36-21.53,30.43-.87.91-2.67.92-4,1.34Z" transform="translate(-119.2 -67)"/><path class="cls-2" d="M310.54,182.12c-37.16,37.25-37,77.41-9.45,120.06-.95,1.44-2,1.67-3.26-.21-9.9-14.31-16.57-29.82-18.08-47.35-1.21-14.07.07-27.76,5.24-41,4.8-12.28,12.75-22.27,22.31-31.1.7-.65,2-.69,3-1Z" transform="translate(-119.2 -67)"/><path class="cls-2" d="M169.79,185.87c-.08-1.42.34-2.84-1.25-4a3.16,3.16,0,0,1-.26-3.1c1.1-1.27,2.53-.44,3.17.78,1.53,2.88,2.83,5.88,4.2,8.84.21.45.35.94.58,1.56a5.44,5.44,0,0,0,.92-.53,43.3,43.3,0,0,0-1.8-5c-.61-1.3-1.64-2.41-2.23-3.72a1.47,1.47,0,0,1,2.37-1.75c2.06,3.45,4.37,6.85,5.67,10.6.4,1.17-2,3.39-3.21,5a39.48,39.48,0,0,1-3,3.16,2.84,2.84,0,0,0-.24.6l3.05-2.09v3.42l.49.08c.2-.53.43-1.05.59-1.58s.05-.92.26-1.26a32.51,32.51,0,0,0,4.37-11.54l1.19,0c1.13,3.11,2.33,6.2,3.32,9.36a2.4,2.4,0,0,1-.89,2c-4.42,2.71-8.92,5.27-13.38,7.91-1.2.71-2.14.62-2.78-.68-2.27-4.55-4.55-9.1-6.74-13.68-.28-.57,0-1.39,0-2.8,3.22,2.31,2.47,7,6.49,8-1.78-3.26-3.37-6.15-4.93-9.08a3.43,3.43,0,0,1-.6-1.92,11.77,11.77,0,0,1,1.12-2.66,15.17,15.17,0,0,1,2.12,1.58,16.93,16.93,0,0,1,1.55,2.31c-.53,3,2.55,4.51,2.81,7.2l.89-.26-2.14-6Zm3.3,10.7,5.42-4.75-1-1Z" transform="translate(-119.2 -67)"/><path class="cls-2" d="M290.08,272.62c-4.35-14.28-6.37-27.86-2.34-41.75l.81-.32c2.16,2.72,4.37,5.4,6.49,8.15,2.74,3.55,5.46,7.11,8.06,10.76a2.59,2.59,0,0,1,.15,2.42c-4.58,5.86-8.8,11.93-11.73,18.81A13.82,13.82,0,0,1,290.08,272.62Zm1.08-31.82a44.76,44.76,0,0,0,.47,18.81c2.39-3.16,4.46-5.88,6.47-8.64a1.5,1.5,0,0,0,.06-1.38C295.87,246.63,293.5,243.72,291.16,240.8Z" transform="translate(-119.2 -67)"/><path class="cls-2" d="M329.07,306.31l-3.25-4.39a10.09,10.09,0,0,0,0,2.32c.34,1.17.85,2.29,1.09,3.47.62,1.09,1.22,2.19,1.84,3.28.29.5.61,1,.89,1.5a8.88,8.88,0,0,1,1.18,2.42c.07.35-1,1.32-1.26,1.23a3.91,3.91,0,0,1-2.23-1.41c-1.52-2.7-2.82-5.52-4.24-8.27a11.1,11.1,0,0,0-1.21-1.49c-.48,3.81,2.25,5.48,3.43,7.91a6.45,6.45,0,0,1,.77,1.62,8.76,8.76,0,0,1-.17,2.09c-.79-.13-1.91,0-2.32-.46a43.33,43.33,0,0,1-3.24-4.65c-4.45-6.82-3.58-5.47,1.39-11.89.68-.87,1.49-1.65,2.59-2.87l-2.77,1.36-.91-1.33c-1.12,1.54-2.29,3-3.27,4.58a6.93,6.93,0,0,0-.58,2.41c-.28,1.61-.53,3.23-.81,5-4.32-2-4.38-5.81-5.56-9-.15-.38.6-1.36,1.16-1.69,4.55-2.65,9.12-5.26,13.77-7.74a2.79,2.79,0,0,1,2.58.18,32.89,32.89,0,0,1,6,14.44,5.14,5.14,0,0,1-.33,1.59l-4-7.21-.93.15c0,.54-.19,1.18,0,1.6,1.44,2.71,3,5.35,4.43,8.08a4.48,4.48,0,0,1,.18,2.29c-.13,1.56-1.14,1.63-2.2,1C329.69,311.56,328.6,307.45,329.07,306.31Zm-8.56-3.75.66.83,5.43-4.69-.34-.41Z" transform="translate(-119.2 -67)"/><path class="cls-2" d="M210.57,264.55c-1.77-2.13-3.5-4.11-5.13-6.17-3.17-4-6.34-8-9.38-12.06a3,3,0,0,1-.36-2.63c3.86-6.23,7.85-12.38,11.83-18.54.12-.19.39-.28.59-.42C213.41,231.13,215.26,255.7,210.57,264.55Zm-2.33-9.74c1.23-7.17.46-13.44-1-20.28-2.36,3.34-4.36,6.12-6.27,8.95a1.84,1.84,0,0,0-.18,1.64C203.09,248.2,205.46,251.21,208.24,254.81Z" transform="translate(-119.2 -67)"/><path class="cls-2" d="M243.49,301.54c-1.42,2-2.76,4-4.29,5.84a4.44,4.44,0,0,1-2.58,1.76c-7.08.16-14.17.13-21.26.12a7.71,7.71,0,0,1-1.81-.55c1.62-2.57,3-5,4.69-7.31a3.14,3.14,0,0,1,2.25-.83c3.54-.11,7.1.09,10.63-.18a6.47,6.47,0,0,0,3.94-1.81,63.71,63.71,0,0,1,18.06-14.12c2.49-1.26,4.87-2.73,7.77-4.37l.92,4.9-3.65-2.06c-2.42,3.28-2.05,4.58,1.9,6.12l1.4-2.66c1.63,2.66,1.48,3.28-1,4.21a47.09,47.09,0,0,0-17.05,11c0-.6,0-1.21,0-1.81.08-3.55-.92-4.34-4.47-3.53C238.3,301.11,238.69,301.56,243.49,301.54Zm-9.79-.46c-1.67,4.26-.76,5.94,3.38,6.54C238.92,303.71,238.31,302.47,233.7,301.08Zm-9.6,3.66c-1.34-1.13-2.61-2.82-3.25-2.61-1.29.43-2.95,1.8-3.1,2.95-.12.92,1.78,2.1,2.79,3.16Zm4.18,3.56c3.37-3.75,3.4-4.12,1.3-5.95s-3.05.13-3.69,1.2C224.38,306.1,227.26,306.62,228.28,308.3Zm22.91-21.63c-1.24,3.36-1,4.52,1,5.16,1.43.47,2.5.57,2.8-1.36C255.44,287.59,255,287.07,251.19,286.67Zm-7.94,7.3c1.7,1,2.61,1.85,3.58,1.94,2,.18,1.8-1.62,2-2.9.4-2.08-1.52-2.18-2.43-2S244.76,292.5,243.25,294Z" transform="translate(-119.2 -67)"/><path class="cls-2" d="M237.15,206.44c-1-.84-.31-1.53,1.18-2.11a44.45,44.45,0,0,0,16.3-10.28c2-2,3.63-4.38,5.52-6.5a3.78,3.78,0,0,1,2.22-1.41c7.17-.07,14.33,0,21.5.05.23,0,.45.19,1,.42-1.63,2.49-3.13,5-4.85,7.28-.39.52-1.53.66-2.33.68-3.11.08-6.23.14-9.33,0a5.08,5.08,0,0,0-4.47,2,60.63,60.63,0,0,1-23.33,16.71c-.48.2-1,.36-1.46.51a3,3,0,0,1-.81-.06l-.37-1.94c1.54-.47,3.1-.52,3.87-1.32.54-.57.38-2.88-.13-3.15C240.34,206.66,238.67,206.7,237.15,206.44Zm23.75-18.93c-.13,1.53-.73,3.08-.22,4,.65,1.15,2.22,1.78,3.39,2.63a8.13,8.13,0,0,0,1.39-2.34C266,189.36,264.84,188.32,260.9,187.51Zm-11.61,18.37c-.43-2.68-2.22-2.77-3.53-2.81-2.52-.1-2.08,2.28-2.07,3.59,0,.64,2,1.86,3,1.72S248.43,206.77,249.29,205.88Zm21.4-19.11-1,0c-.73,1.41-1.89,2.78-2,4.25-.06.75,1.91,2.47,2.62,2.3,1.1-.25,2.7-1.8,2.64-2.72C272.86,189.31,271.51,188.05,270.69,186.77ZM258.1,198.9l.52.55c.68-.78,1.85-1.52,1.92-2.36.1-1.22.42-3.27-1.9-3.1-1.35.11-3.39-.46-3.19,2.16C255.58,197.81,255.71,199.38,258.1,198.9Zm-2.6,2.78c-.47-2.35-2-2.59-3.34-2.65-2.29-.1-1.88,1.95-2,3.2-.18,2,1.74,2.58,3,2.31C254.09,204.34,254.73,202.69,255.5,201.68Zm23-14.8-1-.11a19.31,19.31,0,0,0-2.67,4c-.17.48,1.53,2.37,2,2.24,1.2-.35,2.86-1.3,3.07-2.28C280.14,189.61,279,188.18,278.5,186.88Z" transform="translate(-119.2 -67)"/><path class="cls-2" d="M231.23,256.11c1.75-22.52-.06-44.41-10.38-64.91,2.66-1.19,5.12-.28,6.14,2.42a122.83,122.83,0,0,1,7.23,30.95,129.11,129.11,0,0,1-.33,30C233.7,256.07,233.27,256.86,231.23,256.11Z" transform="translate(-119.2 -67)"/><path class="cls-2" d="M171.51,303c2.64,1,2.42,2.94,2.44,4.67.09,7.35.1,14.7.15,22.05.1,13.22.25,26.44.24,39.66a5.92,5.92,0,0,1-1.57,3.78c-3.66,3.74-7.52,7.27-11.31,10.87l-.84-.47c.45-1.14.66-2.5,1.42-3.36q3.68-4.19,7.72-8a6.54,6.54,0,0,0,2.14-5.25c-.19-20.05-.28-40.11-.39-60.17C171.5,305.54,171.51,304.38,171.51,303Z" transform="translate(-119.2 -67)"/><path class="cls-2" d="M268,238.57c-.25,4.89-.53,9.78-.75,14.67-.42,9.11.89,18,2.65,27a105.62,105.62,0,0,0,6.87,21.64c.23.55-.1,1.35-.17,2a18.24,18.24,0,0,1-4-1c-.59-.28-.81-1.46-1.09-2.27-6.63-18.83-8.28-38.16-5.94-57.91a14,14,0,0,1,.38-3.07c.24-.65,1.06-1.08,1.63-1.61Z" transform="translate(-119.2 -67)"/><path class="cls-2" d="M253.14,238.3c.36,2.11.08,4.55,1.12,5.44s3.44.33,5.24.43a7.43,7.43,0,0,1,1.22.32c-.17,2-.35,3.93-.55,6.25h-6.1c-.16.69-.26,1-.32,1.34-.29,1.44-.33,4-.88,4.13a23.53,23.53,0,0,1-6.91,0c-.4,0-1-1.42-.92-2.1.46-3.18-1.3-3.64-3.81-3.41-.66.06-1.34,0-2.29,0a38.19,38.19,0,0,1,.55-5.5c.12-.51,1.45-1.1,2.16-1,2.6.27,3.71-.59,3.3-3.3-.29-1.93.54-2.84,2.64-2.64C249.37,238.44,251.19,238.3,253.14,238.3Zm-3.77,12.48c1.17-.46,3-.63,3.37-1.44,1.38-3.15,0-4.9-3.51-4.91a8.51,8.51,0,0,0-2.32.08,2.06,2.06,0,0,0-1.3,1.19C244.75,249.34,245.61,250.4,249.37,250.78Z" transform="translate(-119.2 -67)"/><path class="cls-2" d="M227.5,192.09c2.13-1.24,3.48-1.61,4.3,1.13,4.16,13.8,6.92,27.83,6.48,42.31-.18,6.2-.83,12.39-1.39,18.57-.08.77-1,1.47-1.47,2.2a9,9,0,0,1-.51-2.54c1.24-12.42,1.4-24.86-.94-37.14-1.45-7.59-3.87-15-5.86-22.49C227.93,193.48,227.72,192.84,227.5,192.09Z" transform="translate(-119.2 -67)"/><path class="cls-2" d="M185.9,213.37c-5.13,12-12.33,22.49-23.42,29.94-3.13-2.32-3.18-4.44-.28-6.72a57.54,57.54,0,0,0,15.93-19.49c.84-1.65,1.89-2.62,4.07-2.35,1,.12,2.1-1.2,3.16-1.86Z" transform="translate(-119.2 -67)"/><path class="cls-2" d="M338.45,111.29c-.6,1.34-.94,2.92-1.88,4-2.33,2.65-5.1,4.93-7.35,7.64a8.59,8.59,0,0,0-2,5c-.06,14.79.14,29.57.2,44.36,0,6.31-.08,12.61-.14,18.92,0,.22-.22.43-.72,1.38-.68-1.56-1.52-2.62-1.53-3.68-.11-13.4-.11-26.81-.12-40.21,0-7.44-.1-14.87.07-22.31a7.37,7.37,0,0,1,1.74-4.27c2.81-3.27,5.89-6.31,8.89-9.42.63-.66,1.33-1.24,2-1.86Z" transform="translate(-119.2 -67)"/><path class="cls-2" d="M290.4,128.21a6.06,6.06,0,0,1-8.54,1.22,4.56,4.56,0,0,0-5.36-.62,8.37,8.37,0,0,1-10.13-2.23,4.86,4.86,0,0,0-4.76-1.81,12.44,12.44,0,0,1-10.72-3.29c-1.23-1.09-2.19-1.49-3.87-.74-4.2,1.87-8.33,1.07-12.07-1.37-1.57-1-2.58-1.05-4,.16a8.53,8.53,0,0,1-8.31,1.5,2.15,2.15,0,0,1-.86-.48c-.16-.15-.15-.47-.3-1l2.54.29a8.34,8.34,0,0,0,6.93-2.13,2.87,2.87,0,0,0,.84-3.87,4.59,4.59,0,0,1-.05-2.5c0-.14,1-.12,1.6-.18.06.91.09,1.82.19,2.73s-.07,2.4.51,3c2.58,2.9,9.56,5.09,13.7,1.67,1.07-.88,1.87-1.66,1.17-3.26-.26-.58.21-1.55.54-2.25.05-.12,1.48.1,1.52.32a3.64,3.64,0,0,1-.11,2.34c-1.27,2.22-.54,3.81,1.31,5.13a12.45,12.45,0,0,0,9.86,2c2.12-.39,2.82-2,2.82-4a5,5,0,0,1,.65-2c0-.08,1,.07,1.08.25.19.68.49,1.63.18,2.09-1.36,2-1.84,4.15,0,5.9,2.24,2.15,5,3.43,8.27,2.44,3.62-1.11,4.1-2,3.92-5.76,0-.55.84-1.15,1.29-1.73.55.56,1.1,1.1,1.62,1.67.08.09,0,.34-.06.5-.54,1.5-2.42,3-.53,4.59a7.86,7.86,0,0,0,7.48,1.82C289.08,128.5,289.49,128.42,290.4,128.21Z" transform="translate(-119.2 -67)"/><path class="cls-2" d="M252.64,134.14a8.65,8.65,0,0,1,1.33,2c3.07,10.07,6.2,20.11,9.06,30.24,1,3.56,1.47,7.33-.67,10.8-2.6,4.21-7.27,4.64-10.37,1a4.86,4.86,0,0,1,.29-6.38c1.88-1.85,4.88-2.13,6.48-.2a4.4,4.4,0,0,1,.74,3.86c-.5,1-2.21,1.71-3.51,2-.62.12-1.78-.95-2.17-1.73-.25-.51.33-2.06.73-2.14,1.07-.2,2.24.14,4.07.34-1.34-.71-2.31-1.61-3.28-1.62-.76,0-2.13,1.08-2.16,1.72a4.92,4.92,0,0,0,1.18,3.56c2.29,1.95,6.34-.18,6.57-3.61a25.64,25.64,0,0,0-.73-8.19c-2.18-8.08-4.7-16.06-7-24.1-.66-2.29-1.07-4.64-1.59-7Z" transform="translate(-119.2 -67)"/><path class="cls-2" d="M238.37,337c-.84-3.61-1.83-7.2-2.48-10.84s-.7-7.45,2.79-10.14a5.67,5.67,0,0,1,7.9.66c1.69,1.9,1.82,5.22-.12,6.8-1.05.85-3,1.5-4.13,1.1a5.84,5.84,0,0,1-2.94-3.42c-.27-.8.73-2.4,1.59-3.12a2.4,2.4,0,0,1,3.93.78c.37.72-.2,1.92-.34,2.91l-3.72-.58a2,2,0,0,0,2.69,1.82,4.08,4.08,0,0,0,2.49-2.62c.37-2-1-3.21-2.94-3.58s-4.45,1.33-4.6,3.37a28.32,28.32,0,0,0,.47,8.92c1.6,6.25,3.79,12.35,5.63,18.54,1.1,3.72,2,7.49,3,11.25a9.45,9.45,0,0,1,0,2.26c-1.87.21-2.28-.78-2.66-2.21-1.07-4.07-2.33-8.08-3.52-12.12l.07.08-3.18-10Z" transform="translate(-119.2 -67)"/><path class="cls-2" d="M338.43,252.39l-2.54,3.22,2.45.88c-.23.45-.35,1.19-.79,1.49-7.17,5-12,12.07-16.59,19.27-1.08,1.68-2.14,2.68-4.32,2.57-.92-.05-1.9,1-3.17,1.32,5.2-12.1,13.62-21.56,23.89-29.51Z" transform="translate(-119.2 -67)"/><path class="cls-2" d="M264.85,238.7c-4,22.16-.94,43.64,6.33,64.7-1.95,1.12-3.23.78-3.76-1.19-1.4-5.24-3-10.45-4-15.77a135,135,0,0,1-2.24-32.23c.28-4.73.93-9.44,1.53-14.14.09-.69.81-1.3,1.24-1.95Z" transform="translate(-119.2 -67)"/><path class="cls-2" d="M208.71,365.94a5,5,0,0,1,6.88-1,7.81,7.81,0,0,0,7.61.85,8.28,8.28,0,0,1,9.51,3,3.33,3.33,0,0,0,4,1.31c4.17-1,8.12-.3,11.1,3.12a2.56,2.56,0,0,0,3.56.73c4.11-2,8.11-1.17,11.85,1.06,1.47.88,2.44,1.21,4-.05,2.79-2.2,6.13-2.05,9.41-1.06a20.43,20.43,0,0,1,2.49,1.12l-1,1.13a8.11,8.11,0,0,0-7.88-1c-3.42,1.39-5,2.95-3.78,6.68a2.77,2.77,0,0,1-.48,1.79c-.08.16-1,.16-1.12,0a2.34,2.34,0,0,1-.53-1.55c.57-4.24-1.47-7.13-6-7.57a17.34,17.34,0,0,0-6.53,1c-1.93.58-3.35,1.87-2.35,4.33a1.65,1.65,0,0,1-.45,1.54,1.78,1.78,0,0,1-1.65,0,1.73,1.73,0,0,1-.42-1.52,7,7,0,0,0-6.17-8.75c-4.62-.49-6.34.9-7,5.55a1.66,1.66,0,0,1-1,1.16,1.71,1.71,0,0,1-1.5-.56,1.88,1.88,0,0,1,.36-1.59c2.14-2.75,2.09-3.82-.54-5.93-2.3-1.85-4.84-2.95-7.9-2.4-3.68.66-4.33,1.51-4.22,5.37a3.49,3.49,0,0,1-.81,1.94c-.11.15-1.23-.08-1.3-.31a2.35,2.35,0,0,1,0-1.87c1.21-1.45,2.27-3.33.75-4.57s-3.95-1.74-6-2.32C210.84,365.3,209.88,365.75,208.71,365.94Z" transform="translate(-119.2 -67)"/><path class="cls-2" d="M183.7,252.53c1.86,1.53,1.1,4.54,4,4.3.73-.07,1.34-1.52,2.38-2.79.29.43,1.38,1.49,1.18,1.89a20.75,20.75,0,0,1-2.8,3.52,33.91,33.91,0,0,0,3.37,1.07c5.84,1.34,8.52,5.44,9.64,10.92a32.06,32.06,0,0,0,.72,4.33,19.72,19.72,0,0,0,2.13,3.56l3.46-2.19c1.75,1.5,1.37,2.59-2.28,4.44l3.45,1.47c-.5.74-1,1.93-1.35,1.89-1.46-.16-3.23-.31-4.26-1.19a10.3,10.3,0,0,1-4-8.57,30.08,30.08,0,0,0-.69-5c-1.85,1.85-3.63,3.42-5.72,1.55-.86-.76-1.08-2.25-1.59-3.41l.82-.42a7.54,7.54,0,0,0,.67.61,8.55,8.55,0,0,0,2.48,1.46c.4.09,1.49-.9,1.48-1.38,0-1.11-.21-2.62-.94-3.2a16,16,0,0,0-4.82-2.33c-3.79-1.23-7.16-2.86-7.86-7.29A10.54,10.54,0,0,1,183.7,252.53Z" transform="translate(-119.2 -67)"/><path class="cls-2" d="M191.51,210.61c-1.26,10.95-19.89,34.24-30.9,38.73a3.16,3.16,0,0,1,1.4-4.54c8.64-5.23,14.77-12.91,20.14-21.22a63.29,63.29,0,0,0,4.85-9.71C187.88,211.83,189.35,211.06,191.51,210.61Z" transform="translate(-119.2 -67)"/><path class="cls-2" d="M307.47,283.87c5.73-15.81,16.22-27.81,29.95-37.59,1.09,2.08.64,3.25-.87,4.46-9.81,7.85-18.2,16.94-23.88,28.27C311.51,281.32,310.32,283.28,307.47,283.87Z" transform="translate(-119.2 -67)"/><path class="cls-2" d="M308.58,241c-2.43-1.1-2.42-2.08.82-5.34-1-.43-1.93-.87-2.87-1.22-5.75-2.11-8.68-6.09-9-12.23-.07-1.46-.09-2.93-.29-4.38-.26-1.79-1.19-3.38-3.17-2.8-.79.23-1.11,2.06-1.84,3.57-.28-.25-1.55-.89-1.51-1.42a19.07,19.07,0,0,1,1.34-4.27l-1.74-.86-.1-.8c.85-.18,1.77-.68,2.54-.5a8.7,8.7,0,0,1,6.9,8.86,29.13,29.13,0,0,0,.31,5.06c2-1.62,3.68-2.92,6-1.21,1.34,1,1.7,2.25.87,4-.38-.31-.6-.5-.84-.68a9.47,9.47,0,0,0-2.46-1.8c-.32-.11-1.51,1-1.56,1.66-.06,1,.19,2.44.86,2.95a34.86,34.86,0,0,0,5.18,2.81c1.67.87,3.67,1.41,4.93,2.68a16.05,16.05,0,0,1,2.95,5.26c.26.66-.37,1.69-.59,2.55l-.73-.1c-.3-1-.59-1.92-.92-2.86-.54-1.53-1.52-2.84-3.21-2.06C309.6,238.23,309.28,239.7,308.58,241Z" transform="translate(-119.2 -67)"/><path class="cls-2" d="M319.76,238.41c-3.93-5.15-7.84-10.27-11.73-15.41-4.16-5.49-8.28-11-12.45-16.49-1.17-1.54-2-2.92.51-4.28,2.48,3.2,5,6.35,7.41,9.55,5.77,7.63,11.43,15.34,17.28,22.9C322.24,236.58,321.82,237.49,319.76,238.41Z" transform="translate(-119.2 -67)"/><path class="cls-2" d="M202.9,292.92c-8.51-11.47-17-22.86-25.54-34.44l2-1.84c3,4,5.81,7.77,8.63,11.56,5.18,7,10.3,14,15.59,20.91C204.85,290.74,204.42,291.63,202.9,292.92Z" transform="translate(-119.2 -67)"/><path class="cls-2" d="M194,304.32q-14.22-19-28.35-37.78l.36-.88c.83.2,2,.11,2.42.64,4.48,5.79,8.83,11.68,13.24,17.53,4.26,5.65,8.49,11.31,12.85,16.89C195.61,302.19,195.81,303.21,194,304.32Z" transform="translate(-119.2 -67)"/><path class="cls-2" d="M160.28,222.28c-.78-1.64-.43-2.52,1.25-3.23,9.27-4,18.5-8,27.75-12,3.63-1.58,7.26-3.18,10.93-4.64.59-.23,1.43.18,2.16.3-.44.66-.72,1.66-1.32,1.92-11.94,5.19-23.91,10.29-35.87,15.42C163.62,220.71,162.1,221.45,160.28,222.28Z" transform="translate(-119.2 -67)"/><path class="cls-2" d="M210.83,277.44c-7.42-9.68-14.81-19.31-22.37-29.15l2-2.28c3.93,5.07,7.68,9.88,11.43,14.71,3.06,4,6.13,7.91,9.18,11.89C212.66,274.63,212.63,274.88,210.83,277.44Z" transform="translate(-119.2 -67)"/><path class="cls-2" d="M305,190.55l28.23,38c-1.57,1.87-2.4,1-3.26-.14q-8.86-12.07-17.75-24.14c-2.61-3.54-5.21-7.09-7.86-10.6C303.53,192.53,303.22,191.59,305,190.55Z" transform="translate(-119.2 -67)"/><path class="cls-2" d="M338.62,274.6a10.78,10.78,0,0,1-1.76,1.14c-4.38,1.83-8.81,3.53-13.15,5.42-8.27,3.59-16.5,7.28-24.74,10.93-1,.44-2.23,1.34-2.64-.42-.11-.48,1-1.55,1.74-1.88q13.21-5.79,26.52-11.42c3.89-1.64,7.85-3.13,11.81-4.61a6.25,6.25,0,0,1,2,0Z" transform="translate(-119.2 -67)"/><path class="cls-2" d="M234,333.11c1.94,6.88,3.9,13.76,5.79,20.65.42,1.55.6,3.16.9,4.74l-.79.48c-.59-.72-1.49-1.35-1.74-2.17-2.75-9.08-5.46-18.17-8-27.3-1.13-4-2.42-8.08-.16-12.08a8.68,8.68,0,0,1,3.6-3.06c-4.22,6.58-1.76,12.7.52,18.83Z" transform="translate(-119.2 -67)"/><path class="cls-2" d="M234.11,333.2c-.6-3.3-1.33-6.58-1.78-9.9a8.28,8.28,0,0,1,2.55-7.55,12.43,12.43,0,0,1,2.82-1.49c.15.69.26.93.2,1-4.49,4.21-3.2,9.28-2,14.25.62,2.56,1.63,5,2.47,7.53l-.08-.12,3.18,10-.07-.08c.95,4.27,1.91,8.55,2.88,12.92-2.47.65-2.41-1.3-2.77-2.48-2.2-7.35-4.3-14.72-6.46-22.08a12.93,12.93,0,0,0-1-2.05Z" transform="translate(-119.2 -67)"/><path class="cls-2" d="M260.92,180.54c.17-.45.19-.75.35-.9,3.76-3.43,3.94-7.71,2.68-12.19-2.13-7.54-4.46-15-6.66-22.57-.89-3-1.64-6.11-2.45-9.16l.71-.56c.65.65,1.67,1.18,1.91,2,3,9.64,6,19.27,8.63,29,.79,3,.55,6.33.25,9.47A5.09,5.09,0,0,1,260.92,180.54Z" transform="translate(-119.2 -67)"/><path class="cls-2" d="M311.37,121.18c-.32.91-.38,2.09-1,2.68-8.75,8.38-8.14,25,0,34.18a13.54,13.54,0,0,1,1.6,3.31l-1.16.61c-4.68-3.94-7.23-9.18-8.69-15.15-2.73-11.17,3.71-22.85,8.49-25.91Z" transform="translate(-119.2 -67)"/><path class="cls-2" d="M219.84,314.79c-4,6.2-1.35,12,.59,17.93,2.25,6.85,4.3,13.78,6.43,20.67l-1,.78c-.7-.53-1.84-.93-2.05-1.61-3-9.55-6-19.08-8.55-28.75-.58-2.23.56-5,1.27-7.43.25-.88,1.56-1.46,2.38-2.18Z" transform="translate(-119.2 -67)"/><path class="cls-2" d="M188.63,333.18c11.16,9.21,12.54,31.23-.76,41.78.23-1.07.15-2.4.76-3.18,6.26-8.07,8.49-16.9,4.9-26.68-1.12-3-3.09-5.72-4.6-8.61a21.76,21.76,0,0,1-1.08-3Z" transform="translate(-119.2 -67)"/><path class="cls-2" d="M222.69,314.56a5.64,5.64,0,0,1-.19,1.48c-2.18,4.32-1.16,8.58.16,12.85,2.27,7.33,4.54,14.67,6.76,22a33,33,0,0,1,.71,3.72l-.76.56c-.68-.71-1.72-1.3-2-2.13-2.68-8.29-5.42-16.57-7.72-25a30.72,30.72,0,0,1-.58-9.4A4.5,4.5,0,0,1,222.69,314.56Z" transform="translate(-119.2 -67)"/><path class="cls-2" d="M227.29,332c1.77,6.22,3.55,12.44,5.29,18.66.46,1.65.79,3.34,1.22,5.18-1.8.24-2.57-.32-3-2-2.32-8-4.89-16-7.16-24-1-3.61-2.54-7.28-1.32-11.13.59-1.88,1.29-4,4.43-4.08-3.37,6.2-2.21,11.9.65,17.49Z" transform="translate(-119.2 -67)"/><path class="cls-2" d="M274,156.55,269.14,141c1.89-.81,2.72-.08,3.14,1.37,2.65,9.09,5.49,18.13,7.78,27.31.63,2.57-.17,5.6-.77,8.31-.24,1.11-1.68,2-2.94,2.68,3.21-7.81.38-14.87-1.84-22Z" transform="translate(-119.2 -67)"/><path class="cls-2" d="M274,156.55l.48,2.13c.68,3.55,1.68,7.07,1.95,10.66a36.3,36.3,0,0,1-.77,9.1c-.18,1-1.64,1.69-2.89,2.89.51-3.55,1.43-6.27,1.16-8.87a94.22,94.22,0,0,0-2.72-14.11c-1.37-5.16-3.28-10.16-4.87-15.26a19,19,0,0,1-.42-3.49l.8-.44a10.26,10.26,0,0,1,1.57,2.29c1.51,4.31,2.87,8.66,4.36,13A10.46,10.46,0,0,0,274,156.55Z" transform="translate(-119.2 -67)"/><path class="cls-2" d="M288,217.33c1.58,2.33,2.82,4.35,4.24,6.25,5.22,7,10.49,13.93,15.74,20.89.41.55.77,1.15,1.21,1.68,1.12,1.33.64,2.12-1,2.8-3.14-4-6.32-7.93-9.41-12-3.41-4.44-6.74-9-10.1-13.44C287.42,221.86,286.31,220.13,288,217.33Z" transform="translate(-119.2 -67)"/><path class="cls-2" d="M263,138c.54.54,1.39,1,1.58,1.64,2.87,9.49,5.9,18.94,8.28,28.56.77,3.08,0,6.65-.57,9.92-.33,2-1.06,2.25-3.26,2.4.5-1.68,1.11-3.25,1.43-4.87,1.25-6.2-1-11.93-2.61-17.72-1.53-5.58-3.31-11.08-4.93-16.64a22.54,22.54,0,0,1-.46-3Z" transform="translate(-119.2 -67)"/><path class="cls-2" d="M279.27,180c2.67-4.85,2.05-9.82.6-14.8-1.94-6.69-3.93-13.37-5.87-20.06-.32-1.12-.52-2.28-.78-3.42l.69-.58c.66.54,1.71,1,1.91,1.64,2.62,8.75,5.21,17.51,7.6,26.33a11.44,11.44,0,0,1-1,9.29,12,12,0,0,1-2.54,2.29Z" transform="translate(-119.2 -67)"/><path class="cls-2" d="M259.49,136.36a9.21,9.21,0,0,1,1.58,2.29c2.66,8.65,5.51,17.26,7.72,26,.94,3.74.78,7.84.61,11.76-.09,2-1.16,4.14-4,4.14,0-.42,0-.73.08-.9,3.08-4.39,2.64-9.22,1.35-13.93-2-7.23-4.37-14.35-6.52-21.53-.73-2.43-1.25-4.91-1.87-7.37Z" transform="translate(-119.2 -67)"/><path class="cls-2" d="M227.36,332.13c-.6-2.95-1.56-5.88-1.68-8.84a20.1,20.1,0,0,1,1.44-6.91c.27-.83,1.48-1.36,2.7-2.4.05,1.06.19,1.45.06,1.66-3,4.75-1.8,9.55-.34,14.44,2.53,8.5,4.91,17,7.32,25.57a5.55,5.55,0,0,1,0,1.47l-.7.37a10.47,10.47,0,0,1-1.5-2.35c-2.21-7.17-4.33-14.36-6.5-21.53a8.38,8.38,0,0,0-.88-1.56Z" transform="translate(-119.2 -67)"/><path class="cls-2" d="M219,353.37c-.58-.56-1.47-1-1.7-1.69-2.73-7.9-5.55-15.79-7.9-23.81-.87-3-.79-6.28-.71-9.43a3.86,3.86,0,0,1,3.64-3.85c0,.51.12.9,0,1.15-2.82,5.11-1,10.07.54,15,2.08,6.49,4.3,12.93,6.41,19.41a17,17,0,0,1,.45,2.69Z" transform="translate(-119.2 -67)"/><path class="cls-2" d="M281.55,150.82l-2-8.37.78-.41c.52.5,1.32.92,1.52,1.53,2.77,8.26,5.5,16.54,8.12,24.85a12.15,12.15,0,0,1-.72,9.8,5.53,5.53,0,0,1-2.82,2.16,17,17,0,0,0,.61-12.74c-1.74-5.67-3.72-11.27-5.6-16.9Z" transform="translate(-119.2 -67)"/><path class="cls-2" d="M208.65,314.59c.18.45.34.66.29.75-3.39,6.59-.32,12.56,1.76,18.63,1.92,5.61,3.81,11.24,5.62,16.89.19.62-.3,1.45-.47,2.18-.57-.49-1.45-.87-1.67-1.49-2.73-7.8-5.5-15.59-8-23.49a29.18,29.18,0,0,1-1.16-8.63C205.09,317.3,206,315.15,208.65,314.59Z" transform="translate(-119.2 -67)"/><path class="cls-2" d="M205.84,314.86c-3.14,5-1.63,10,.11,14.93,2.28,6.5,4.59,13,6.73,19.54.38,1.19.22,3.72-.1,3.79-2.34.52-1.78-1.74-2.17-2.9-2.81-8.41-5.72-16.8-8.09-25.34-.7-2.54.07-5.55.52-8.29.14-.87,1.44-1.55,2.2-2.31Z" transform="translate(-119.2 -67)"/><path class="cls-2" d="M289.94,180.25c.44-2.57,1-5.12,1.3-7.7.53-5-2.31-9.31-3.54-13.94-1.11-4.15-2.81-8.15-4.19-12.23a30.31,30.31,0,0,1-.74-3.43l.74-.58c.56.57,1.41,1,1.65,1.72q3.73,10.75,7.29,21.57c1.22,3.71,2.27,7.54.88,11.4-.51,1.41-1.84,2.54-2.79,3.8Z" transform="translate(-119.2 -67)"/><path class="cls-2" d="M292.88,180.56c.6-1.45,1.22-2.27,1.24-3.11.08-3,.59-6.29-.21-9.14-2.14-7.61-4.91-15.05-7.36-22.58-.41-1.27-1.61-3.19.29-3.75s1.54,1.77,1.93,2.89c2.23,6.52,4.43,13,6.49,19.62a62.47,62.47,0,0,1,2.06,8.75C297.77,176,295.94,179.1,292.88,180.56Z" transform="translate(-119.2 -67)"/><path class="cls-2" d="M281.48,150.74c1.1,4,2.28,7.89,3.26,11.88a83,83,0,0,1,2.32,11.3c.17,1.69-.9,3.59-1.7,5.25-.33.69-1.44,1-2.51,1.26,4.06-7.79.54-14.8-1.55-21.89-1.39-4.7-2.93-9.36-4.35-14a5,5,0,0,1,0-2.54c3.32,2.06,2.5,6.24,4.62,8.87C281.55,150.82,281.48,150.74,281.48,150.74Z" transform="translate(-119.2 -67)"/><path class="cls-2" d="M215.16,314.08c-.25,4.24-.64,7.77-.56,11.29,0,1.83.88,3.66,1.43,5.47,2.17,7,4.37,14,6.54,21a2.16,2.16,0,0,1-.42,1.78c-.5-.5-1.27-.93-1.47-1.53-3-9.19-6-18.36-8.6-27.65-.61-2.16-.05-4.78.47-7.08C212.81,316.15,214.18,315.24,215.16,314.08Z" transform="translate(-119.2 -67)"/><path class="cls-2" d="M312.21,124.7c-3.1,5.12-5.29,10.37-5.28,16.53s3.09,10.88,5.34,16.09C303.56,151.58,302.11,131.33,312.21,124.7Z" transform="translate(-119.2 -67)"/><path class="cls-2" d="M186.64,336.47c9.3,5.72,9.45,26.41.37,34.52a7.84,7.84,0,0,1,.67-2.44c6.57-9.64,5.69-19.27.11-28.95A22.57,22.57,0,0,1,186.64,336.47Z" transform="translate(-119.2 -67)"/><path class="cls-2" d="M182.8,344.48c2.76,5.5,3.7,11.09,1.32,16.92-.28.68-1.23,1.08-1.88,1.6-.42-1-1.23-2-1.2-3,.1-2.55.65-5.08.83-7.62a4.94,4.94,0,0,0-.68-2.73C179.8,347.39,180.62,345.86,182.8,344.48Z" transform="translate(-119.2 -67)"/><path class="cls-2" d="M179.36,360.77c-3-.3-4.23-1.73-3.89-4.62.23-1.94-.13-4,.18-5.88a4,4,0,0,1,2-2.44c.41-.22,1.86.63,2.19,1.31A11.48,11.48,0,0,1,179.36,360.77Z" transform="translate(-119.2 -67)"/><path class="cls-2" d="M316.45,131.8c1.83.68,2.49,1.75,1.69,3.76-1.37,3.46-.56,6.95.3,10.38.59,2.37.66,2.36-1.56,3.62C313.38,146.2,313.12,136.2,316.45,131.8Z" transform="translate(-119.2 -67)"/><path class="cls-2" d="M319.9,134.64c2.81.2,3.74,1.58,3.48,4.15-.21,2.05.09,4.15-.17,6.19a3,3,0,0,1-1.81,1.94c-.46.15-1.66-.74-1.91-1.4A12.76,12.76,0,0,1,319.9,134.64Z" transform="translate(-119.2 -67)"/><path class="cls-2" d="M202.29,309.33c2.46-3.13,4-6.14,6.4-7.8,1.9-1.31,4.94-.94,7.48-1.32l.6,1c-1.77,2.57-3.52,5.15-5.34,7.68a1.61,1.61,0,0,1-1.17.41C207.81,309.35,205.36,309.33,202.29,309.33Zm4.74-2c3.71.88,6.21-1,6-4.59C209.71,302.32,208,303.67,207,307.31Z" transform="translate(-119.2 -67)"/><path class="cls-2" d="M295.79,186.71c-1.84,2.35-3.61,4.75-5.55,7a3.49,3.49,0,0,1-2.27.82c-1.93.11-3.88,0-5.82,0l-.5-.7c1.67-2.4,2.84-5.66,5.14-7s5.74-.69,8.68-.92Zm-3.7,1.47c-3.15-1.5-6.2-.55-6.86,4.19C289,193.15,290.11,192.49,292.09,188.18Z" transform="translate(-119.2 -67)"/><path class="cls-2" d="M218.79,194.14c-.87,1.26-1.54,3.33-2.65,3.59-2.08.48-5.66-2.45-5.37-3.9.36-1.7-.23-4.24,2.25-4.6C215.2,188.91,218.28,191.94,218.79,194.14Z" transform="translate(-119.2 -67)"/><path class="cls-2" d="M282.19,297.22c6.8,2.26,6.07,1.44,4.44,7.92C280.93,304.54,279.58,302.12,282.19,297.22Z" transform="translate(-119.2 -67)"/><path class="cls-2" d="M268.64,226.59a36.77,36.77,0,0,1,5.56.11c.55.08,1.34,1.43,1.29,2.15-.14,2.22-.63,4.41-1.08,7.19l-6.15-8.67Z" transform="translate(-119.2 -67)"/><path class="cls-2" d="M217.92,199.13c1.32.71,2.56,1.28,3.7,2,1.42.89,1.49,3.76.23,5.77s-2.33.22-3.23-.24C215.44,205,215.35,203.91,217.92,199.13Z" transform="translate(-119.2 -67)"/><path class="cls-2" d="M277.27,287.56c4.76.49,6.2,2.8,4.51,6.88a1.75,1.75,0,0,1-.77.93c-1.5.57-4.77-2.25-4.5-3.85C276.74,290.18,277,288.86,277.27,287.56Z" transform="translate(-119.2 -67)"/><path class="cls-2" d="M222.21,272.57c-.2-2.25.89-3,3-3,5.77,0,6.3.77,3.6,6a2.19,2.19,0,0,1-1.46,1.1c-2,.12-4.08,0-6.61,0l1.5-4.29c.9,1.17,1.67,3.09,2.75,3.29,1.23.23,2.74-1.09,4.22-1.78-2.76-3.54-2.75-3.54-6.09-1.67A3.76,3.76,0,0,1,222.21,272.57Z" transform="translate(-119.2 -67)"/><path class="cls-2" d="M277.32,285.63c-4.07-2-5-4-3.17-7.05a2.13,2.13,0,0,1,1.94-.65C279.53,279.34,279.75,280.81,277.32,285.63Z" transform="translate(-119.2 -67)"/><path class="cls-2" d="M268.51,224.6c.27-5.18,1.07-6.54,3.82-6.23-.86,1.52-4.46,2.34-1.22,4.85,1.92,1.49,3.27.2,4.3-.78,2-1.93-1.07-2.49-1.46-4.12h3.37C277.81,224.29,275.27,226.14,268.51,224.6Z" transform="translate(-119.2 -67)"/><path class="cls-2" d="M224.06,217.24c-4.25-1.68-4.93-3.2-2.76-6.58a2.16,2.16,0,0,1,2-.56C226.64,211.62,226.82,213.69,224.06,217.24Z" transform="translate(-119.2 -67)"/><path class="cls-2" d="M282.24,206.79l-2.39-4h4c-1.13,6.19-3.06,7.38-9.75,6.18.57-4,2.49-6.54,4.72-6.09-1.25,1.49-4.14,2.54-1.51,5C279.69,210.25,280.25,206.85,282.24,206.79Z" transform="translate(-119.2 -67)"/><path class="cls-2" d="M224.71,219c4,2.47,4.63,4.42,2.38,7.15a2.11,2.11,0,0,1-2,.27C221.89,224.44,221.83,222.84,224.71,219Z" transform="translate(-119.2 -67)"/><path class="cls-2" d="M230.32,268h-7.06l.92-7,.65-.22Z" transform="translate(-119.2 -67)"/><path class="cls-2" d="M288.07,196.26c-2.95,6.07-2,5.35-9.87,4.87C279,196.26,281.71,194.85,288.07,196.26Zm-1.94,3c-1.31-1.49-1.76-3.57-3.95-2.24-.69.42-1.49,2-1.23,2.42C282.39,201.78,284,199.94,286.13,199.21Z" transform="translate(-119.2 -67)"/><path class="cls-2" d="M183.55,239.65l-1.72-6.4,6.37.49C188,237.22,186.6,239,183.55,239.65Z" transform="translate(-119.2 -67)"/><path class="cls-2" d="M159.63,251.83l6.51-4.37.76.28a51.37,51.37,0,0,1-.35,5.42,2,2,0,0,1-1.68,1A54,54,0,0,1,159.63,251.83Z" transform="translate(-119.2 -67)"/><path class="cls-2" d="M195.17,222.31c-.43-1-.79-2.05-1.29-3s-1.15-1.87-1.9-3.05l5.93-1.41C199,218.08,198.21,220.14,195.17,222.31Z" transform="translate(-119.2 -67)"/><path class="cls-2" d="M280.29,211c-1.54,6.13-2.24,6.51-9,5C271.38,211.06,273.76,209.71,280.29,211Zm-2,2.7c-1.66-3.23-3.13-3.28-5.57-.22C274.29,216.19,275.54,216.24,278.32,213.72Z" transform="translate(-119.2 -67)"/><path class="cls-2" d="M309.18,264.05l2.58,5.82c-1.89,0-3.79.09-5.67-.07a1.82,1.82,0,0,1-.94-1.48C305.78,266.33,306.74,264.53,309.18,264.05Z" transform="translate(-119.2 -67)"/><path class="cls-2" d="M300.38,279.9c-.72-3.13.7-5.18,2.86-7.16l3.58,5.81Z" transform="translate(-119.2 -67)"/><path class="cls-2" d="M181.71,241.73a7.59,7.59,0,0,1-5.08,5.69l-1.79-6.73Z" transform="translate(-119.2 -67)"/><path class="cls-2" d="M190.09,231.63l-2.64-6.19h6.33C194.09,228.4,193.08,230.17,190.09,231.63Z" transform="translate(-119.2 -67)"/><path class="cls-2" d="M315.65,256l1.83,5.92-6.28-.57C311.05,258.43,312.55,256.61,315.65,256Z" transform="translate(-119.2 -67)"/><path class="cls-2" d="M274.59,275.29c-4.32-2.36-4.52-2.89-2.75-5.91,1.48-2.54,2.64-.29,3.67.33C277.41,270.85,277.13,272.29,274.59,275.29Z" transform="translate(-119.2 -67)"/><path class="cls-2" d="M222.76,290.25c-.31,1.77-1.2,2.41-3.09,2.09a28,28,0,0,0-4.85-.06c1-5.74,3-7,10-5.92-.77,1.43-1.45,2.7-2.14,4a22.11,22.11,0,0,0-1.19-2.67c-1.25-2.08-2.45-.48-3.6.17-1.36.75-1,1.72-.3,2.76.88,1.23,1.77,1.76,3.14.61A8.8,8.8,0,0,1,222.76,290.25Z" transform="translate(-119.2 -67)"/><path class="cls-2" d="M324,254.6l-6.34-.94c.38-2.94,1.87-4.49,5.2-5.21Z" transform="translate(-119.2 -67)"/><path class="cls-2" d="M167.93,253.85c.18-2.22.35-4.23.52-6.29l5.26,1.48C173.22,252,171.36,253.63,167.93,253.85Z" transform="translate(-119.2 -67)"/><path class="cls-2" d="M194.19,224l-6.91.39,3.11-6.53.94-.17Z" transform="translate(-119.2 -67)"/><path class="cls-2" d="M271.42,259.16c3.88,2.08,4.13,3.53,1.18,7C268.11,263.38,268,263.24,271.42,259.16Z" transform="translate(-119.2 -67)"/><path class="cls-2" d="M261.3,296.27l2.6-.69c.78,2.24,1.63,4.3,2.15,6.44.16.62-.61,1.47-1,2.22-.63-.49-1.58-.86-1.82-1.5C262.49,300.7,262,298.55,261.3,296.27Z" transform="translate(-119.2 -67)"/><path class="cls-2" d="M226.64,228.85c3.9,2.5,4.11,4,1.13,7C223.7,233.64,223.45,232.27,226.64,228.85Z" transform="translate(-119.2 -67)"/><path class="cls-2" d="M306.56,280.09a23.83,23.83,0,0,0-.67,3c-.16,1.78-1.14,3.36-2.78,2.91-1-.27-1.6-2.3-2.17-3.64-.12-.28.59-1.25,1.08-1.4A41.09,41.09,0,0,1,306.56,280.09Z" transform="translate(-119.2 -67)"/><path class="cls-2" d="M338.55,243.64c-2.13,1.56-3.76,2.75-5.38,4-1.39-1.74-1.72-5-.44-5.74C334.82,240.66,336.31,242.34,338.55,243.64Z" transform="translate(-119.2 -67)"/><path class="cls-3" d="M243.49,301.54c-4.8,0-5.19-.43-4.59-5.23,3.55-.81,4.55,0,4.47,3.53,0,.6,0,1.21,0,1.81Z" transform="translate(-119.2 -67)"/><path class="cls-2" d="M174.26,248l-5.45-1.6-.07-.91,4.84-4.21,1.34,5.87Z" transform="translate(-119.2 -67)"/><path class="cls-2" d="M307.91,278l-3-6,.47-.83,6,.34Z" transform="translate(-119.2 -67)"/><path class="cls-2" d="M175.93,238.92l4.1-4.73c.38.57.75.89.82,1.26.29,1.54.49,3.09.72,4.64h-5.36Z" transform="translate(-119.2 -67)"/><path class="cls-2" d="M330.73,247.92l-5.26-1.6c.55-2.84,1.94-4,5.26-4.14Z" transform="translate(-119.2 -67)"/><path class="cls-2" d="M310.33,262.66l6.94.5-4.47,6.15C311.89,266.87,311.24,265.12,310.33,262.66Z" transform="translate(-119.2 -67)"/><path class="cls-2" d="M235.11,199.42c-.73-2.37-1.51-4.73-2.14-7.13-.13-.48.32-1.11.51-1.67.5.32,1.27.52,1.47,1a36.77,36.77,0,0,1,2.07,5.8c.17.69-.57,1.59-.89,2.39Z" transform="translate(-119.2 -67)"/><path class="cls-2" d="M181.8,232l4.18-6c1,2.3,1.76,4.05,2.82,6.51Z" transform="translate(-119.2 -67)"/><path class="cls-2" d="M238.72,198.32c-.82-2.51-1.62-4.78-2.27-7.09-.14-.51.28-1.18.43-1.78.58.34,1.45.54,1.67,1,.79,1.72,1.31,3.56,2,5.31S240.45,198,238.72,198.32Z" transform="translate(-119.2 -67)"/><path class="cls-2" d="M271.82,257.51c-3.46-2.79-3.77-3.52-2-5.46.49-.53,1.93-.93,2.37-.61C274.59,253.16,274.46,254.51,271.82,257.51Z" transform="translate(-119.2 -67)"/><path class="cls-2" d="M330.43,249.71,325.61,254c-1.27-2-2-4.17-.52-5.52S328.59,248.16,330.43,249.71Z" transform="translate(-119.2 -67)"/><path class="cls-2" d="M195.57,208.83l2.57,4.53-5.52,1.21-.68-.7,2.59-5.22Z" transform="translate(-119.2 -67)"/><path class="cls-2" d="M322.73,256.52l-3.93,4.78-1.89-6.42,5.63.76Z" transform="translate(-119.2 -67)"/><path class="cls-2" d="M231.18,241.1l-3.44,3.05c-.81-.93-2.39-2-2.27-2.76.19-1.22,1.54-2.25,2.4-3.36Z" transform="translate(-119.2 -67)"/><path class="cls-2" d="M228.6,245.85c.58,1.35,1.57,2.7,1.59,4.05,0,.82-1.51,1.65-2.35,2.47-.8-.83-2.3-1.72-2.24-2.48.12-1.4,1.16-2.72,1.82-4.07Z" transform="translate(-119.2 -67)"/><path class="cls-2" d="M271.56,242.36c2.59,2.51,2.74,3.85.85,5.65-1.14,1.1-1.79.35-2.5-.47C268.32,245.7,268.65,244.6,271.56,242.36Z" transform="translate(-119.2 -67)"/><path class="cls-2" d="M262.27,304.19c-.26.34-.52,1-.83,1a1.44,1.44,0,0,1-1.11-.75,46.87,46.87,0,0,1-2-5.34c-.15-.54.38-1.27.59-1.92.53.39,1.35.66,1.54,1.17C261.18,300.19,261.66,302.12,262.27,304.19Z" transform="translate(-119.2 -67)"/><path class="cls-2" d="M226.36,281.38c-.4,1.08-.62,3-1.22,3.1-2,.43-4.32.81-6,.08-1.51-.64-.52-2.49.57-3.6l-.06-.08,3,3.25,3.82-2.71Z" transform="translate(-119.2 -67)"/><path class="cls-2" d="M219.66,281c-.1-2.12.75-3.19,3-3,1.58.14,3.18,0,5.47,0l-1.8,3.39.07,0c-2.19-3.18-2.59-3.27-5.8-1.26-.36.22-.69.48-1,.72Z" transform="translate(-119.2 -67)"/><path class="cls-2" d="M197.3,208l1.86,1.12,2-2.71,1,.55-2.32,5.4-1-.14-2.2-3.71Z" transform="translate(-119.2 -67)"/><path class="cls-2" d="M160.15,259.31l1.94-3.05-1.64-1.77.29-.51,4,1.57.78,1.05-3.85,4Z" transform="translate(-119.2 -67)"/><path class="cls-2" d="M281.83,131.9l-7.1-.73C278.67,128.55,278.91,128.57,281.83,131.9Z" transform="translate(-119.2 -67)"/><path class="cls-2" d="M287,313.66c-1.36,1-2.13,2-2.8,1.89s-1.39-1.1-2.09-1.72c.71-.62,1.35-1.55,2.16-1.75C284.86,311.94,285.67,312.82,287,313.66Z" transform="translate(-119.2 -67)"/><path class="cls-2" d="M313,144l1.23,4.22-.54.63c-1-.52-2.84-1-2.88-1.58-.08-1.11.88-2.28,1.41-3.43Z" transform="translate(-119.2 -67)"/><path class="cls-2" d="M338,236.77l-1.74,2.12,1.78,1.89-.36.64-4.37-1.82,4-3.6Z" transform="translate(-119.2 -67)"/><path class="cls-2" d="M216,298.84l2.56-2L216.9,294h3.56C219.76,297.41,218.54,298.89,216,298.84Z" transform="translate(-119.2 -67)"/><path class="cls-2" d="M215.09,294.27l-2.32,2,1.34,2.58h-3.92C211.82,297,212,294.24,215.09,294.27Z" transform="translate(-119.2 -67)"/><path class="cls-2" d="M217.45,181.31c-1.34,1-2.17,2-2.69,1.82-.77-.2-1.33-1.21-2-1.88.56-.54,1.14-1.54,1.67-1.52C215.26,179.77,216,180.51,217.45,181.31Z" transform="translate(-119.2 -67)"/><path class="cls-2" d="M186.19,350.22l-1-4.27,3.8,1.95L187,350.68Z" transform="translate(-119.2 -67)"/><path class="cls-2" d="M296.76,288.19l2-5.58c.87,1.6,1.45,2.68,2.41,4.46L299,285.84l-1.24,2.63Z" transform="translate(-119.2 -67)"/><path class="cls-2" d="M309.6,140.43l2.64-1.07.95,3.16-.72.59-2.91-1.71Z" transform="translate(-119.2 -67)"/><path class="cls-2" d="M186.68,356.14V351.7l3.36,2.51Z" transform="translate(-119.2 -67)"/><path class="cls-2" d="M222.89,364.07c-2.63,1.82-4.35,1.91-6.25-.71Z" transform="translate(-119.2 -67)"/><path class="cls-2" d="M187.4,357.7l1.95,3-3.63.9.91-3.74Z" transform="translate(-119.2 -67)"/><path class="cls-2" d="M186,362.92v3.5c-.53-.14-1.49-.2-1.53-.41a20.27,20.27,0,0,1-.07-3.12Z" transform="translate(-119.2 -67)"/><path class="cls-2" d="M312.66,138.2l-2.57-3.28,3.3-1.06C313.12,135.44,312.94,136.51,312.66,138.2Z" transform="translate(-119.2 -67)"/><path class="cls-2" d="M313.29,132.31l-.47-3,1.9,0v3Z" transform="translate(-119.2 -67)"/><path class="cls-2" d="M189.78,346c-3.08-.4-3.44-1.56-1.65-4C188.71,343.47,189.16,344.54,189.78,346Z" transform="translate(-119.2 -67)"/><path class="cls-2" d="M188,356.91l3.14-1.78c-.15,1.67-.25,2.85-.42,4.73Z" transform="translate(-119.2 -67)"/><path class="cls-2" d="M311.12,152.24l-1.79-4,3.32,1.6-.8,2.37Z" transform="translate(-119.2 -67)"/><path class="cls-2" d="M185.33,345.07c-1.87-2.76-1.86-2.78,1.35-4.12C186.15,342.54,185.78,343.7,185.33,345.07Z" transform="translate(-119.2 -67)"/><path class="cls-4" d="M166.76,136.24a150.15,150.15,0,0,0,23.72-32,139.82,139.82,0,0,0,22.41,31.78l-22.77,31.39A122.52,122.52,0,0,0,166.76,136.24Z" transform="translate(-119.2 -67)"/><path class="cls-4" d="M308.76,391.07a139.11,139.11,0,0,0-20.19-28.71c-.52-.58-1.28-1.07-1.51-1.74a2.93,2.93,0,0,1,.09-2.38c8.2-8.75,14.69-18.72,20.85-28.93.21-.35.5-.66.9-1.18,2.51,3.92,4.69,7.83,7.36,11.39,4.79,6.4,9.87,12.6,14.86,18.86.7.89,1.7,1.46.43,2.75a139.31,139.31,0,0,0-21.91,29.11C309.52,390.45,309.27,390.59,308.76,391.07Z" transform="translate(-119.2 -67)"/><path class="cls-3" d="M234.5,150.81l3.52,2.67-.27.59c-1.3-.73-2.62-1.42-3.9-2.18s-2.52-1.58-4.13-2.59l3.25-1.63-1.79-1.79-.52.53-1.83-4.19c3.67.62,7.13,1,10.44,1.87,2,.55,3.75,2,5.82,3.15l-10.5,2.8Z" transform="translate(-119.2 -67)"/><path class="cls-3" d="M247.56,142.72c-1.79-.81-3.58-1.59-5.36-2.42a19.79,19.79,0,0,0-11.06-1.85,4.89,4.89,0,0,1-2,0,5.9,5.9,0,0,1-1.58-1.29c.49-.37.92-.95,1.46-1.07C235.06,134.78,243.44,137.63,247.56,142.72Z" transform="translate(-119.2 -67)"/><path class="cls-3" d="M227.77,164.13c2.08-2.07,4.06-1.36,5.91-.62a30,30,0,0,1,3.07,1.91c1.85,1,3.94.63,4.47-.92.76-2.19-.67-2.92-2.48-3.3-.23,0-.42-.27-1.07-.7.77-.37,1.62-.92,1.72-.81,1.06,1.21,2.41,2.4,2.88,3.85.56,1.75-.59,3.19-2.46,3.59a6.5,6.5,0,0,1-3.07,0C233.87,166.29,231.06,165.25,227.77,164.13Z" transform="translate(-119.2 -67)"/><path class="cls-3" d="M245.76,146c-4.7-2.17-8.94-6-14.79-4.1C234.72,138.77,240.78,141.61,245.76,146Z" transform="translate(-119.2 -67)"/><path class="cls-3" d="M237.11,177.28l-9.46,11-.52-.45,9.45-11.07Z" transform="translate(-119.2 -67)"/><path class="cls-3" d="M225.27,184.39l6.93-5.84-.15-.17-6.24,6.52Z" transform="translate(-119.2 -67)"/><path class="cls-3" d="M265.52,346.09l1.1,3.38,2-1c.42,1.37.85,2.74,1.2,3.88-1.86-.15-3.8-.34-5.74-.46-4.15-.26-7.26-2.6-11.11-5.17,2.56-.11,4.38-.06,6.15-.31a30.27,30.27,0,0,0,4.74-1.22,11,11,0,0,0,1.89-1,14,14,0,0,0-1.14-1.6,3.35,3.35,0,0,1-1.14-1.56c1.83,1.13,3.68,2.22,5.41,3.48a5.59,5.59,0,0,1-1.14,2.17C267.62,346.85,266.72,346.41,265.52,346.09Z" transform="translate(-119.2 -67)"/><path class="cls-3" d="M259.44,334.62a11.78,11.78,0,0,1-2.43-1.89c-1-1.29-1.06-3,.24-4a5.35,5.35,0,0,1,3.85-1.22,95,95,0,0,1,9.38,3.23c-.2.75-.4,1.53-.63,2.39l5.78,3.07c-1.27.39-2.07.88-2.79.78s-1.26-1-2-1.15a23.34,23.34,0,0,0-3.47-.43c0,1.06-.09,2.12-.13,3-1.83-.88-1.57-2.85,1.3-5.34a76.14,76.14,0,0,0-7.6-3.83c-.82-.31-2.15.7-3.24,1.11.4,1,.75,2,1.23,3,.14.28.63.4,1,.59Z" transform="translate(-119.2 -67)"/><path class="cls-3" d="M251.64,352.16c2.13,1,4.21,2.21,6.39,3.13a16.94,16.94,0,0,0,10.38,1.15c.74-.16,1.64.41,2.47.64A12.23,12.23,0,0,1,269,359a3.69,3.69,0,0,1-2,.43C260.78,359.4,255.78,356.72,251.64,352.16Z" transform="translate(-119.2 -67)"/><path class="cls-3" d="M266.27,307.27a15.55,15.55,0,0,1-1,2q-3.21,4.75-6.58,9.43a30.38,30.38,0,0,1,7.64-11.37Z" transform="translate(-119.2 -67)"/><path class="cls-3" d="M267.15,353.9c-4.36,1.29-8-.84-11.12-2.55Z" transform="translate(-119.2 -67)"/><path class="cls-3" d="M169.79,185.87l1.62.91,2.14,6-.89.26c-.26-2.69-3.34-4.17-2.81-7.2Z" transform="translate(-119.2 -67)"/><path class="cls-3" d="M173.09,196.57l4.46-5.74,1,1Z" transform="translate(-119.2 -67)"/><path class="cls-3" d="M291.16,240.8c2.34,2.92,4.71,5.83,7,8.79a1.5,1.5,0,0,1-.06,1.38c-2,2.76-4.08,5.48-6.47,8.64A44.76,44.76,0,0,1,291.16,240.8Z" transform="translate(-119.2 -67)"/><path class="cls-3" d="M320.51,302.56l5.75-4.27.34.41-5.43,4.69Z" transform="translate(-119.2 -67)"/><path class="cls-3" d="M208.24,254.81c-2.78-3.6-5.15-6.61-7.42-9.69a1.84,1.84,0,0,1,.18-1.64c1.91-2.83,3.91-5.61,6.27-8.95C208.7,241.37,209.47,247.64,208.24,254.81Z" transform="translate(-119.2 -67)"/><path class="cls-3" d="M233.7,301.08c4.61,1.39,5.22,2.63,3.38,6.54C232.94,307,232,305.34,233.7,301.08Z" transform="translate(-119.2 -67)"/><path class="cls-3" d="M224.1,304.74l-3.56,3.5c-1-1.06-2.91-2.24-2.79-3.16.15-1.15,1.81-2.52,3.1-2.95C221.49,301.92,222.76,303.61,224.1,304.74Z" transform="translate(-119.2 -67)"/><path class="cls-3" d="M228.28,308.3c-1-1.68-3.9-2.2-2.39-4.75.64-1.07,1.73-2.9,3.69-1.2S231.65,304.55,228.28,308.3Z" transform="translate(-119.2 -67)"/><path class="cls-3" d="M251.19,286.67c3.82.4,4.25.92,3.8,3.8-.3,1.93-1.37,1.83-2.8,1.36C250.21,291.19,250,290,251.19,286.67Z" transform="translate(-119.2 -67)"/><path class="cls-3" d="M243.25,294c1.51-1.47,2.24-2.76,3.2-3s2.83-.09,2.43,2c-.25,1.28,0,3.08-2,2.9C245.86,295.82,245,294.93,243.25,294Z" transform="translate(-119.2 -67)"/><path class="cls-3" d="M260.9,187.51c3.94.81,5.05,1.85,4.56,4.29a8.13,8.13,0,0,1-1.39,2.34c-1.17-.85-2.74-1.48-3.39-2.63C260.17,190.59,260.77,189,260.9,187.51Z" transform="translate(-119.2 -67)"/><path class="cls-3" d="M249.29,205.88c-.86.89-1.65,2.36-2.63,2.5s-3-1.08-3-1.72c0-1.31-.45-3.69,2.07-3.59C247.07,203.11,248.86,203.2,249.29,205.88Z" transform="translate(-119.2 -67)"/><path class="cls-3" d="M270.69,186.77c.82,1.28,2.17,2.54,2.25,3.87.06.92-1.54,2.47-2.64,2.72-.71.17-2.68-1.55-2.62-2.3.12-1.47,1.28-2.84,2-4.25Z" transform="translate(-119.2 -67)"/><path class="cls-3" d="M258.1,198.9c-2.39.48-2.52-1.09-2.65-2.75-.2-2.62,1.84-2.05,3.19-2.16,2.32-.17,2,1.88,1.9,3.1-.07.84-1.24,1.58-1.92,2.36Z" transform="translate(-119.2 -67)"/><path class="cls-3" d="M255.5,201.68c-.77,1-1.41,2.66-2.36,2.86-1.23.27-3.15-.32-3-2.31.11-1.25-.3-3.3,2-3.2C253.5,199.09,255,199.33,255.5,201.68Z" transform="translate(-119.2 -67)"/><path class="cls-3" d="M278.5,186.88c.53,1.3,1.64,2.73,1.4,3.86-.21,1-1.87,1.93-3.07,2.28-.45.13-2.15-1.76-2-2.24a19.31,19.31,0,0,1,2.67-4Z" transform="translate(-119.2 -67)"/><path class="cls-3" d="M249.37,250.78c-3.76-.38-4.62-1.44-3.76-5.08a2.06,2.06,0,0,1,1.3-1.19,8.51,8.51,0,0,1,2.32-.08c3.49,0,4.89,1.76,3.51,4.91C252.38,250.15,250.54,250.32,249.37,250.78Z" transform="translate(-119.2 -67)"/><path class="cls-3" d="M241.47,346.89l-3.18-10Z" transform="translate(-119.2 -67)"/><path class="cls-3" d="M207,307.31c.92-3.64,2.68-5,6-4.59C213.24,306.27,210.74,308.19,207,307.31Z" transform="translate(-119.2 -67)"/><path class="cls-3" d="M292.09,188.18c-2,4.31-3,5-6.86,4.19C285.89,187.63,288.94,186.68,292.09,188.18Z" transform="translate(-119.2 -67)"/><path class="cls-3" d="M222.21,272.57a3.76,3.76,0,0,0,1-.25c3.34-1.87,3.33-1.87,6.09,1.67-1.48.69-3,2-4.22,1.78-1.08-.2-1.85-2.12-2.75-3.29Z" transform="translate(-119.2 -67)"/><path class="cls-3" d="M286.13,199.21c-2.14.73-3.74,2.57-5.18.18-.26-.43.54-2,1.23-2.42C284.37,195.64,284.82,197.72,286.13,199.21Z" transform="translate(-119.2 -67)"/><path class="cls-3" d="M278.32,213.72c-2.78,2.52-4,2.47-5.57-.22C275.19,210.44,276.66,210.49,278.32,213.72Z" transform="translate(-119.2 -67)"/><path class="cls-3" d="M222.76,290.25a8.8,8.8,0,0,0-2,.95c-1.37,1.15-2.26.62-3.14-.61-.75-1-1.06-2,.3-2.76,1.15-.65,2.35-2.25,3.6-.17a22.11,22.11,0,0,1,1.19,2.67Z" transform="translate(-119.2 -67)"/><path class="cls-3" d="M219.6,280.88c.34-.24.67-.5,1-.72,3.21-2,3.61-1.92,5.8,1.26l-3.82,2.71Z" transform="translate(-119.2 -67)"/></g></g><g id="bottomRightDetail"><polygon class="cls-4" points="239.1 279.37 233.87 287.48 228.81 293.26 234.28 300.25 239.1 307.59 244.33 300.16 249.68 293.48 244.09 287.07 239.1 279.37"/><text class="cls-5" transform="translate(255.13 312.57) rotate(180)">K</text></g><g id="topLeftDetail"><polygon class="cls-4" points="22.5 86.63 27.74 78.52 32.8 72.74 27.33 65.75 22.5 58.41 17.28 65.84 11.93 72.52 17.52 78.93 22.5 86.63"/><text class="cls-5" transform="translate(6.48 53.43)">K</text></g></g></g></svg>