<svg id="Layer_1" data-name="Layer 1" xmlns="http://www.w3.org/2000/svg" xmlns:xlink="http://www.w3.org/1999/xlink" viewBox="0 0 387.26 300.44"><defs><style>.cls-1,.cls-4{fill:none;}.cls-2{clip-path:url(#clip-path);}.cls-3{fill:#fff;}.cls-4{stroke:#000;stroke-miterlimit:10;}.cls-5{clip-path:url(#clip-path-2);}.cls-6{fill:red;}.cls-7{clip-path:url(#clip-path-3);}.cls-8{clip-path:url(#clip-path-4);}</style><clipPath id="clip-path" transform="translate(-55.33 -99.78)"><rect id="cardBorder" class="cls-1" x="95.12" y="124.5" width="180" height="251" rx="10.45" transform="translate(-75.98 80.9) rotate(-20.55)"/></clipPath><clipPath id="clip-path-2" transform="translate(-55.33 -99.78)"><rect id="cardBorder-2" data-name="cardBorder" class="cls-1" x="139.26" y="124.5" width="180" height="251" rx="10.45" transform="translate(-29.04 30.14) rotate(-7.07)"/></clipPath><clipPath id="clip-path-3" transform="translate(-55.33 -99.78)"><rect id="cardBorder-3" data-name="cardBorder" class="cls-1" x="185.37" y="124.5" width="180" height="251" rx="10.45" transform="translate(38.56 -36.79) rotate(8.22)"/></clipPath><clipPath id="clip-path-4" transform="translate(-55.33 -99.78)"><rect id="border" class="cls-1" x="233.12" y="124.5" width="180" height="251" rx="10.45" transform="translate(75.79 -75.17) rotate(15.01)"/></clipPath></defs><g id="stack"><g id="_9Spades" data-name="9Spades"><g class="cls-2"><path class="cls-3" d="M237,128.27l77.93,207.85-171,64.1L55.33,163.88l2.67-1L59.53,167l2.88-5.74L226.3,99.78l.63,1.69-8.45,3.17c5.55-.08,8.57,1.9,10.42,6.84,2.59,6.94,5,13.92,7.58,20.88q5.75,15.88,11.52,31.78,6,16.38,12,32.76t12,32.95c4,10.94,7.85,21.9,11.8,32.84q6.06,16.83,12.16,33.66,5.88,16.31,11.72,32.64a8.45,8.45,0,0,1-1,8.11,28.08,28.08,0,0,1-2.12,2.39l8.15-3.06c-1.54-4.12-3.07-8.09-4.53-12.09q-6-16.56-12-33.12l-11.85-32.61-12-33.12q-6-16.47-12-33-8-22-16.1-44c-2.27-6.17-4.63-12.32-6.91-18.48A9.21,9.21,0,0,1,237,128.27ZM164,390.56c.69-.21,1.39-.38,2.07-.63l28.44-10.66,0-.13-5.42,2-25,9.39a7.15,7.15,0,0,0-1.68.17c-3.06,1.1-6.14,2.18-9.15,3.41-4,1.64-7.74,1.67-11.23-1.16,0,0-.17.07-.22.09l1.85,4.94c2.92-1.09,5.73-2.17,8.56-3.2C156.1,393.37,160.07,392,164,390.56Zm83.72-106.28-10.28,3.85c3.85,4,7.9,7.73,9.21,13.24a21.49,21.49,0,0,1-2.63-2.86c-2.56-2.9-5.91-4-8.87-2.65-3.53,1.66-5.44,4.14-5.32,8.41.16,5.11,3.07,8.68,7,11.42,5.33,3.7,10.83,7.16,16.25,10.74,2.08,1.38,4.14,2.79,6.34,4.27.27-.86.49-1.54.69-2.22.9-2.94,1.87-5.85,2.66-8.81,1.51-5.7,3.17-11.37,4.29-17.15.93-4.78-.9-9.09-4.21-12.53-2.25-2.35-6.17-2.48-9.13-.85a7.73,7.73,0,0,0-3.48,7.94c.15,1,.3,1.91.49,3.16C248.69,298.5,248.13,295.25,247.75,284.28Zm-57.33-144c-2.27,7.13-4.56,13.93-6.55,20.81a50.67,50.67,0,0,0-1.81,9.86,12.64,12.64,0,0,0,3,8.72,8.28,8.28,0,0,0,10.05,2.54c3-1.27,4.61-4.58,4.06-8.44-.11-.73-.18-1.46-.26-2.19l.67-.09c2.62,4.87,1.81,10.29,1.77,15.61l10.37-3.89c-4.1-3.78-7.73-7.63-8.77-13.17a13.74,13.74,0,0,1,2.77,3.14,7.13,7.13,0,0,0,7.83,2.94c5.11-1.44,7-8.44,5-13.13-1.85-4.27-5.06-7.27-8.83-9.74-4.84-3.17-9.79-6.17-14.63-9.33C193.46,142.92,192.07,141.62,190.42,140.31Zm16.84,48.25c-.16.38-.35.75-.47,1.14-1.44,4.85-3,9.68-4.29,14.57a116.94,116.94,0,0,0-3,12.75c-.7,4.45,1,8.51,4,11.76,2.46,2.69,6.4,2.78,9.7.83,2.5-1.49,3.81-5.37,2.92-8.66-.14-.55-.25-1.11-.45-2,.63.37,1.09.48,1.19.73a31.92,31.92,0,0,1,1.84,15.27L229,231c-1.93-2.14-3.78-4.1-5.52-6.16s-3.26-4.19-3.67-7a2,2,0,0,1,1.12.7c.6.76,1.08,1.61,1.72,2.33,4.62,5.21,11.25,4,13.44-2.61,1.75-5.25-.28-9.53-4.14-12.94a90.34,90.34,0,0,0-9.57-7.28C217.49,194.81,212.42,191.79,207.26,188.56Zm-28.75,171c.23-.79.41-1.42.6-2,2.2-7.25,4.56-14.46,6.56-21.77,1.45-5.28,1.28-10.54-2.21-15.2a8.48,8.48,0,0,0-9.71-2.82c-3.27,1.35-4.82,4.46-4.28,8.45a13,13,0,0,1-.09,2.41l-.57,0c-.53-2.51-1.22-5-1.55-7.52s-.31-5.12-.44-7.73L157.1,317c3.76,3.89,7.42,7.6,8.7,12.89a16.45,16.45,0,0,1-2.62-2.86c-3.64-4.46-9.54-4.45-12.57.19a10.38,10.38,0,0,0-.76,9.87c1.69,4.34,5.37,6.89,8.75,9.59,2.89,2.32,6.29,4,9.43,6C171.47,354.86,174.88,357.13,178.51,359.51Zm-69.4-190c-2.55,8.25-5.21,16.25-7.43,24.37-1.28,4.68-1.13,9.42,1.71,13.76,2.12,3.23,6.26,5,9.5,3.83,3.81-1.37,5.59-4.58,5-8.92a20.29,20.29,0,0,1-.05-2.59h.5A31.43,31.43,0,0,1,120.21,216l10.38-3.9c-1.85-2.13-3.73-4.14-5.43-6.3s-3.37-4.27-3.52-7.22a9,9,0,0,1,2.18,2.41c3.28,5,9.74,5.08,13.12.12,1.9-2.79,1.95-5.69.94-8.78-1.57-4.8-5.61-7.46-9.26-10.29-3.27-2.53-7.1-4.32-10.61-6.55C115.08,173.65,112.24,171.63,109.11,169.51ZM139,246.72l.58-.42c.6.84,1.26,1.65,1.82,2.51,2.5,3.88,8.48,5.06,11.29,2,3.59-3.91,4.65-6.85,2.18-12.14-1.88-4-5.45-6.38-8.94-8.71-4.9-3.27-10-6.26-15-9.41-1.46-.92-2.84-2-4.52-3.12-.17.58-.27.92-.38,1.26-1.62,5.17-3.35,10.3-4.82,15.52a84.15,84.15,0,0,0-2.61,11.6,13.49,13.49,0,0,0,2,10c2.42,3.43,7.06,5,10.68,3.39,3.36-1.51,5-5.78,3.89-9.88A10.66,10.66,0,0,1,135,248l.72-.21a20.2,20.2,0,0,1,2.07,7.45c.27,2.72.26,5.48.37,8.27l9.88-3.71C144.73,255.48,140.43,252,139,246.72Zm48.24,8.05.46-.37,1.16,1.41a28,28,0,0,0,2.07,2.5c3.93,3.77,9.09,3.27,11.85-1.27a10.37,10.37,0,0,0,.92-8.87c-1.54-4.86-5.65-7.44-9.33-10.19-4.32-3.24-9.17-5.78-13.75-8.68-2-1.24-3.83-2.61-5.86-4-.25.69-.44,1.13-.57,1.58-1.39,4.68-2.86,9.34-4.13,14.06-1.16,4.29-2.26,8.62-3.09,13a12.15,12.15,0,0,0,3.3,10.67c2.09,2.29,4.83,3.66,8.12,2.69,2.88-.86,5.1-2.51,5.49-5.7a22,22,0,0,0-.28-4.1,10.8,10.8,0,0,1,.08-1.39h.59A28.44,28.44,0,0,1,186,271.53L196.85,268C192.86,263.82,188.77,260.16,187.21,254.77ZM148.29,281.1l-.47.38-1.08-1.27a35.54,35.54,0,0,0-2.58-3c-2.55-2.38-6.17-2.85-8.65-1a9.87,9.87,0,0,0-4.19,8.74c.23,4.78,3.08,8.19,6.79,10.8,5.8,4.08,11.78,7.93,17.66,11.9,1.56,1,3.07,2.19,4.62,3.31,1.81-5.82,3.56-11.39,5.27-17a71.75,71.75,0,0,0,2.54-9c.72-4.34,1-8.71-1.87-12.63A8.58,8.58,0,0,0,156,269.21c-3.41,1.45-4.9,5-4,9.23a5.38,5.38,0,0,1-.08,1.43h-.58a32.79,32.79,0,0,1-1.94-15.3l-9.86,3.7C142.72,272.53,147.05,275.82,148.29,281.1Zm80.91-28.29-.56.27c-.74-1-1.44-2-2.23-3-4.22-5.09-9.4-4.53-12.91,1-2.15,3.38-.65,10.39,2.15,12.82a141.16,141.16,0,0,0,11.57,8.57c3.5,2.44,7.12,4.7,10.67,7.07,1.16.77,2.26,1.65,3.52,2.57.94-3.18,1.73-6.08,2.65-8.94,1.59-4.91,3.48-9.74,4.83-14.71s1.51-10-1.53-14.63a8.91,8.91,0,0,0-10.06-3.73c-3.47,1.2-5.35,4.76-4.71,8.95.12.79.26,1.57.39,2.36l-.54.13c-1.53-2.27-1.87-5-2.1-7.62s-.06-5.5-.06-8.25l-9.85,3.69c1.72,2.17,3.45,4.2,5,6.35S228.64,250.12,229.2,252.81Zm53.85,65.78a18,18,0,0,1-.65-3.2c0-2.13.57-4.13,2.49-5.3a4.18,4.18,0,0,1,5.05.38c1.17.89,1.76-.19,2.41-.93a6.43,6.43,0,0,0-9-1.48c-3.64,2.46-3.59,6.29-3,9.73a42.52,42.52,0,0,0,3.76,10.3,6.91,6.91,0,0,0,8.69,3.59c3.55-1.15,5.67-4.12,5-7.55a18.73,18.73,0,0,0-2.12-5.71c-2.21-3.78-6.42-4.81-9.76-2.56A24.62,24.62,0,0,0,283.05,318.59ZM76,191.49a6.37,6.37,0,0,0,.66.9,6.29,6.29,0,0,0,7,1.33,6.61,6.61,0,0,0,4.47-6.22,23.08,23.08,0,0,0-.78-6.41c-1-3.59-2.07-7.2-4.62-10.08a7.1,7.1,0,0,0-8.31-1.5,6.35,6.35,0,0,0-4.09,6.41,13.94,13.94,0,0,0,3.76,8.43,6,6,0,0,0,7.72.92,26,26,0,0,0,3.21-2.91,7.8,7.8,0,0,1,.3,6.26,4.32,4.32,0,0,1-6.58,2.32C77.62,190.12,76.89,190.22,76,191.49ZM283,303.54c.77-3.85,1.62-7.3,2.09-10.8a9.9,9.9,0,0,0-.67-4.71,4,4,0,0,0-2.55-1.82c-2.07-.52-2.93,1-3.5,2.79l-.64-.12q0-2.7-.09-5.43L273,285.18c1.73,1.15,3.32,2.17,3.76,4.56-1.67-.93-3-1.45-4.24-.07a3.34,3.34,0,0,0-.68,4,6.2,6.2,0,0,0,1.38,2.09C276.34,298.33,279.55,300.83,283,303.54ZM90.58,217l4.5-1.69c-1.47-1.3-3.3-2.1-3.51-4.3.28,0,.47-.07.61,0,2.81,1.26,4.55.09,4.46-2.93-.06-1.92-1.3-3.09-2.61-4.13-2.76-2.18-5.61-4.26-8.52-6.46A43.6,43.6,0,0,0,83.19,209a9.69,9.69,0,0,0,.8,3.66,2.88,2.88,0,0,0,3.18,1.88,2.5,2.5,0,0,0,2.4-2.31,5,5,0,0,1,.47-1C91.41,213.16,90.73,215,90.58,217Z" transform="translate(-55.33 -99.78)"/><path d="M237,128.27a9.21,9.21,0,0,0,.29,1.82c2.28,6.16,4.64,12.31,6.91,18.48q8.07,22,16.1,44,6,16.47,12,33l12,33.12,11.85,32.61q6,16.56,12,33.12c1.46,4,3,8,4.53,12.09l-8.15,3.06a28.08,28.08,0,0,0,2.12-2.39,8.45,8.45,0,0,0,1-8.11q-5.82-16.33-11.72-32.64-6.07-16.85-12.16-33.66c-3.95-10.94-7.84-21.9-11.8-32.84s-8-22-12-32.95-8-21.84-12-32.76q-5.79-15.88-11.52-31.78c-2.53-7-5-13.94-7.58-20.88-1.85-4.94-4.87-6.92-10.42-6.84l8.45-3.17Z" transform="translate(-55.33 -99.78)"/><path d="M62.41,161.23,59.53,167,58,162.88Z" transform="translate(-55.33 -99.78)"/><path d="M247.75,284.28c.38,11,.94,14.22,3,16-.19-1.25-.34-2.2-.49-3.16a7.73,7.73,0,0,1,3.48-7.94c3-1.63,6.88-1.5,9.13.85,3.31,3.44,5.14,7.75,4.21,12.53-1.12,5.78-2.78,11.45-4.29,17.15-.79,3-1.76,5.87-2.66,8.81-.2.68-.42,1.36-.69,2.22-2.2-1.48-4.26-2.89-6.34-4.27-5.42-3.58-10.92-7-16.25-10.74-3.95-2.74-6.86-6.31-7-11.42-.12-4.27,1.79-6.75,5.32-8.41,3-1.38,6.31-.25,8.87,2.65a21.49,21.49,0,0,0,2.63,2.86c-1.31-5.51-5.36-9.2-9.21-13.24Z" transform="translate(-55.33 -99.78)"/><path d="M190.42,140.31c1.65,1.31,3,2.61,4.61,3.64,4.84,3.16,9.79,6.16,14.63,9.33,3.77,2.47,7,5.47,8.83,9.74,2,4.69.14,11.69-5,13.13a7.13,7.13,0,0,1-7.83-2.94,13.74,13.74,0,0,0-2.77-3.14c1,5.54,4.67,9.39,8.77,13.17l-10.37,3.89c0-5.32.85-10.74-1.77-15.61l-.67.09c.08.73.15,1.46.26,2.19.55,3.86-1,7.17-4.06,8.44A8.28,8.28,0,0,1,185,179.7a12.64,12.64,0,0,1-3-8.72,50.67,50.67,0,0,1,1.81-9.86C185.86,154.24,188.15,147.44,190.42,140.31Z" transform="translate(-55.33 -99.78)"/><path d="M207.26,188.56c5.16,3.23,10.23,6.25,15.14,9.53a90.34,90.34,0,0,1,9.57,7.28c3.86,3.41,5.89,7.69,4.14,12.94-2.19,6.57-8.82,7.82-13.44,2.61-.64-.72-1.12-1.57-1.72-2.33a2,2,0,0,0-1.12-.7c.41,2.8,1.95,5,3.67,7s3.59,4,5.52,6.16l-10.4,3.9a31.92,31.92,0,0,0-1.84-15.27c-.1-.25-.56-.36-1.19-.73.2.9.31,1.46.45,2,.89,3.29-.42,7.17-2.92,8.66-3.3,1.95-7.24,1.86-9.7-.83-3-3.25-4.66-7.31-4-11.76a116.94,116.94,0,0,1,3-12.75c1.33-4.89,2.85-9.72,4.29-14.57C206.91,189.31,207.1,188.94,207.26,188.56Z" transform="translate(-55.33 -99.78)"/><path d="M178.51,359.51c-3.63-2.38-7-4.65-10.48-6.86-3.14-2-6.54-3.7-9.43-6-3.38-2.7-7.06-5.25-8.75-9.59a10.38,10.38,0,0,1,.76-9.87c3-4.64,8.93-4.65,12.57-.19a16.45,16.45,0,0,0,2.62,2.86c-1.28-5.29-4.94-9-8.7-12.89l9.72-3.64c.13,2.61.11,5.2.44,7.73s1,5,1.55,7.52l.57,0a13,13,0,0,0,.09-2.41c-.54-4,1-7.1,4.28-8.45a8.48,8.48,0,0,1,9.71,2.82c3.49,4.66,3.66,9.92,2.21,15.2-2,7.31-4.36,14.52-6.56,21.77C178.92,358.09,178.74,358.72,178.51,359.51Z" transform="translate(-55.33 -99.78)"/><path d="M109.11,169.51c3.13,2.12,6,4.14,8.9,6,3.51,2.23,7.34,4,10.61,6.55,3.65,2.83,7.69,5.49,9.26,10.29,1,3.09,1,6-.94,8.78-3.38,5-9.84,4.91-13.12-.12a9,9,0,0,0-2.18-2.41c.15,3,1.85,5.11,3.52,7.22s3.58,4.17,5.43,6.3L120.21,216A31.43,31.43,0,0,0,118.32,200h-.5a20.29,20.29,0,0,0,.05,2.59c.61,4.34-1.17,7.55-5,8.92-3.24,1.17-7.38-.6-9.5-3.83-2.84-4.34-3-9.08-1.71-13.76C103.9,185.76,106.56,177.76,109.11,169.51Z" transform="translate(-55.33 -99.78)"/><path d="M139,246.72c1.46,5.32,5.76,8.76,9.11,13.1l-9.88,3.71c-.11-2.79-.1-5.55-.37-8.27a20.2,20.2,0,0,0-2.07-7.45L135,248a10.66,10.66,0,0,0,.2,1.26c1.15,4.1-.53,8.37-3.89,9.88-3.62,1.61-8.26,0-10.68-3.39a13.49,13.49,0,0,1-2-10,84.15,84.15,0,0,1,2.61-11.6c1.47-5.22,3.2-10.35,4.82-15.52.11-.34.21-.68.38-1.26,1.68,1.17,3.06,2.2,4.52,3.12,5,3.15,10.05,6.14,15,9.41,3.49,2.33,7.06,4.67,8.94,8.71,2.47,5.29,1.41,8.23-2.18,12.14-2.81,3.06-8.79,1.88-11.29-2-.56-.86-1.22-1.67-1.82-2.51Z" transform="translate(-55.33 -99.78)"/><path d="M187.21,254.77c1.56,5.39,5.65,9,9.64,13.24L186,271.53a28.44,28.44,0,0,0-1.73-15.43h-.59a10.8,10.8,0,0,0-.08,1.39,22,22,0,0,1,.28,4.1c-.39,3.19-2.61,4.84-5.49,5.7-3.29,1-6-.4-8.12-2.69a12.15,12.15,0,0,1-3.3-10.67c.83-4.37,1.93-8.7,3.09-13,1.27-4.72,2.74-9.38,4.13-14.06.13-.45.32-.89.57-1.58,2,1.39,3.9,2.76,5.86,4,4.58,2.9,9.43,5.44,13.75,8.68,3.68,2.75,7.79,5.33,9.33,10.19a10.37,10.37,0,0,1-.92,8.87c-2.76,4.54-7.92,5-11.85,1.27a28,28,0,0,1-2.07-2.5l-1.16-1.41Z" transform="translate(-55.33 -99.78)"/><path d="M148.29,281.1c-1.24-5.28-5.57-8.57-8.76-12.83l9.86-3.7a32.79,32.79,0,0,0,1.94,15.3h.58a5.38,5.38,0,0,0,.08-1.43c-.94-4.27.55-7.78,4-9.23a8.58,8.58,0,0,1,10.38,3.09c2.88,3.92,2.59,8.29,1.87,12.63a71.75,71.75,0,0,1-2.54,9c-1.71,5.59-3.46,11.16-5.27,17-1.55-1.12-3.06-2.26-4.62-3.31-5.88-4-11.86-7.82-17.66-11.9-3.71-2.61-6.56-6-6.79-10.8a9.87,9.87,0,0,1,4.19-8.74c2.48-1.81,6.1-1.34,8.65,1a35.54,35.54,0,0,1,2.58,3l1.08,1.27Z" transform="translate(-55.33 -99.78)"/><path d="M229.2,252.81c-.56-2.69-2.17-4.9-3.75-7.08s-3.3-4.18-5-6.35l9.85-3.69c0,2.75-.18,5.52.06,8.25s.57,5.35,2.1,7.62l.54-.13c-.13-.79-.27-1.57-.39-2.36-.64-4.19,1.24-7.75,4.71-8.95a8.91,8.91,0,0,1,10.06,3.73c3,4.65,2.89,9.65,1.53,14.63s-3.24,9.8-4.83,14.71c-.92,2.86-1.71,5.76-2.65,8.94-1.26-.92-2.36-1.8-3.52-2.57-3.55-2.37-7.17-4.63-10.67-7.07a141.16,141.16,0,0,1-11.57-8.57c-2.8-2.43-4.3-9.44-2.15-12.82,3.51-5.51,8.69-6.07,12.91-1,.79.95,1.49,2,2.23,3Z" transform="translate(-55.33 -99.78)"/><path d="M283.05,318.59a24.62,24.62,0,0,1,2.86-2.73c3.34-2.25,7.55-1.22,9.76,2.56a18.73,18.73,0,0,1,2.12,5.71c.68,3.43-1.44,6.4-5,7.55a6.91,6.91,0,0,1-8.69-3.59,42.52,42.52,0,0,1-3.76-10.3c-.61-3.44-.66-7.27,3-9.73a6.43,6.43,0,0,1,9,1.48c-.65.74-1.24,1.82-2.41.93a4.18,4.18,0,0,0-5.05-.38c-1.92,1.17-2.53,3.17-2.49,5.3A18,18,0,0,0,283.05,318.59Zm11.51,3a21.92,21.92,0,0,0-1.25-2.05,4.61,4.61,0,0,0-7.66-.07,4.83,4.83,0,0,0-.35,5.6c1.19,2.29,2.53,4.45,5.56,4.49a3.59,3.59,0,0,0,1.06-.19C295.08,328.36,296.18,325.49,294.56,321.54Z" transform="translate(-55.33 -99.78)"/><path d="M76,191.49c.87-1.27,1.6-1.37,2.77-.55a4.32,4.32,0,0,0,6.58-2.32,7.8,7.8,0,0,0-.3-6.26,26,26,0,0,1-3.21,2.91,6,6,0,0,1-7.72-.92,13.94,13.94,0,0,1-3.76-8.43,6.35,6.35,0,0,1,4.09-6.41,7.1,7.1,0,0,1,8.31,1.5c2.55,2.88,3.64,6.49,4.62,10.08a23.08,23.08,0,0,1,.78,6.41,6.61,6.61,0,0,1-4.47,6.22,6.29,6.29,0,0,1-7-1.33A6.37,6.37,0,0,1,76,191.49Zm7.4-15a37.75,37.75,0,0,0-2.5-3.72,4.67,4.67,0,0,0-5.64-.92,4.16,4.16,0,0,0-2.4,5.09,15.81,15.81,0,0,0,1.66,4.16A4.5,4.5,0,0,0,80.89,183,5.32,5.32,0,0,0,83.42,176.45Z" transform="translate(-55.33 -99.78)"/><path d="M283,303.54c-3.41-2.71-6.62-5.21-9.76-7.8a6.2,6.2,0,0,1-1.38-2.09,3.34,3.34,0,0,1,.68-4c1.24-1.38,2.57-.86,4.24.07-.44-2.39-2-3.41-3.76-4.56l4.62-1.73q0,2.73.09,5.43l.64.12c.57-1.75,1.43-3.31,3.5-2.79a4,4,0,0,1,2.55,1.82,9.9,9.9,0,0,1,.67,4.71C284.58,296.24,283.73,299.69,283,303.54Z" transform="translate(-55.33 -99.78)"/><path d="M90.58,217c.15-1.94.83-3.82-.54-5.77a5,5,0,0,0-.47,1,2.5,2.5,0,0,1-2.4,2.31A2.88,2.88,0,0,1,84,212.62a9.69,9.69,0,0,1-.8-3.66,43.6,43.6,0,0,1,2.32-11.5c2.91,2.2,5.76,4.28,8.52,6.46,1.31,1,2.55,2.21,2.61,4.13.09,3-1.65,4.19-4.46,2.93-.14-.06-.33,0-.61,0,.21,2.2,2,3,3.51,4.3Z" transform="translate(-55.33 -99.78)"/><path d="M164,390.56c-4,1.41-7.93,2.81-11.88,4.25-2.83,1-5.64,2.11-8.56,3.2l-1.85-4.94s.19-.12.22-.09c3.49,2.83,7.24,2.8,11.23,1.16,3-1.23,6.09-2.31,9.15-3.41a7.15,7.15,0,0,1,1.68-.17Z" transform="translate(-55.33 -99.78)"/><path d="M164,390.56l25-9.39,5.42-2,0,.13L166.1,389.93c-.68.25-1.38.42-2.07.63Z" transform="translate(-55.33 -99.78)"/><path class="cls-3" d="M294.56,321.54c1.62,3.95.52,6.82-2.64,7.78a3.59,3.59,0,0,1-1.06.19c-3,0-4.37-2.2-5.56-4.49a4.83,4.83,0,0,1,.35-5.6,4.61,4.61,0,0,1,7.66.07A21.92,21.92,0,0,1,294.56,321.54Z" transform="translate(-55.33 -99.78)"/><path class="cls-3" d="M83.42,176.45A5.32,5.32,0,0,1,80.89,183a4.5,4.5,0,0,1-6.35-1.95,15.81,15.81,0,0,1-1.66-4.16,4.16,4.16,0,0,1,2.4-5.09,4.67,4.67,0,0,1,5.64.92A37.75,37.75,0,0,1,83.42,176.45Z" transform="translate(-55.33 -99.78)"/></g><rect id="cardBorder-4" data-name="cardBorder" class="cls-4" x="95.12" y="124.5" width="180" height="251" rx="10.45" transform="translate(-131.32 -18.88) rotate(-20.55)"/></g><g id="_5Hearts" data-name="5Hearts"><g class="cls-5"><path class="cls-3" d="M154.49,378.28,125.22,142.47a11.57,11.57,0,0,1,3.83-5.91l-4.49.56a6.1,6.1,0,0,1,1.38-.52q12.66-1.6,25.31-3.16l151.89-18.85Q318.58,238.91,334,363.24L158.58,385c-.16-.8-.06-2.07-.52-2.33C156.23,381.65,155.46,379.91,154.49,378.28Zm70.82-153.36c-1.25,2.69-2.33,5.26-3.61,7.72-2.8,5.41-5.83,10.71-8.52,16.17-2.86,5.78-4.2,11.81-.45,17.73a9.27,9.27,0,0,0,9.46,4.53c4-.48,6.14-2.87,7.13-6.54.25-.94.33-1.93.55-3.28,1,1.55,1.67,2.79,2.5,3.94,2.94,4,7.73,4.78,11.87,2s5.1-7.75,4-12.65c-1-4.32-3.49-7.86-6.2-11.17-3.21-3.92-6.8-7.52-10.21-11.26C229.68,229.78,227.55,227.4,225.31,224.92Zm53.06,74.62c-3.51,6.8-6.93,13.5-10.43,20.16-1.79,3.4-3.59,6.78-4.12,10.64-.64,4.64-.11,9,3.41,12.47a9.13,9.13,0,0,0,9.76,2.32c3.46-1.12,5-3.85,5.45-7.33.07-.56.18-1.1.36-2.18.83,1.34,1.37,2.24,1.93,3.11,2.23,3.5,5.57,5.13,9,4.44a10,10,0,0,0,7.43-7.48,15.78,15.78,0,0,0-2.84-12.93c-3.25-4.33-6.78-8.46-10.32-12.57C284.89,306.53,281.56,303,278.37,299.54ZM263.86,187.1c3.5-6.76,7.1-13.43,10.42-20.23a48.55,48.55,0,0,0,4-10.3c1.06-4.62.34-9.09-3.24-12.77-4.27-4.4-13.1-3.83-15,3.68-.24,1-.31,2.05-.54,3.6-.71-1.28-1.15-2.09-1.61-2.89-1.78-3.06-4.27-5-8-4.86a9,9,0,0,0-8.1,5.6c-1.93,4.3-1.18,8.61.9,12.62a43.12,43.12,0,0,0,5,7.63c3.4,4.08,7.11,7.91,10.68,11.85C260.28,183.09,262.13,185.17,263.86,187.1ZM196.7,346.4l1.21,2.21c1.71,3.09,4,5.53,7.78,5.44a9.14,9.14,0,0,0,8.19-5.22,11.88,11.88,0,0,0,.42-10.41,42.23,42.23,0,0,0-5.53-9.54c-3.26-4.19-7-8-10.58-11.94-2-2.29-4-4.64-6.21-7.13-.19.38-.27.54-.34.7-3.09,6.2-6.14,12.42-9.27,18.6-2.49,4.9-5.18,9.69-4.93,15.49.2,4.48,1.85,8.07,5.7,10.52,3.17,2,10.19,1.84,12.13-3.59C195.82,350,196.16,348.37,196.7,346.4ZM173,161.68c-.38-.82-.62-1.35-.87-1.87-1.81-3.79-5.05-6-8.49-5.8-5.71.34-9.62,5.55-9,11.8.52,5.54,3.42,9.92,6.79,14,3.67,4.41,7.71,8.51,11.58,12.75,1.63,1.8,3.25,3.62,5,5.55.25-.5.43-.85.6-1.21,1.75-3.72,3.44-7.48,5.27-11.17,2.81-5.67,6.55-10.92,7.9-17.22,1.22-5.7.75-11-4.33-15.08-3.21-2.59-10.74-2.61-12.83,2.79C173.93,157.82,173.58,159.56,173,161.68ZM310.59,302.37c-1.75,4.18-3.52,7.89-4.82,11.76a13,13,0,0,0-.21,5.59c.22,1.78,2.11,3,3.92,3.07s2.8-1.08,3.36-2.68c.1-.3.22-.58.38-1a4.69,4.69,0,0,1,.49.52c1.19,1.87,2.2,2.28,4.36,1.73a3.22,3.22,0,0,0,2.62-3.4,7.22,7.22,0,0,0-.91-3.9C316.91,310.15,313.79,306.4,310.59,302.37ZM145.23,194.46c1.52-3.17,2.89-5.87,4.09-8.65a29.61,29.61,0,0,0,1.8-5.41,5.66,5.66,0,0,0-1.32-5c-1.69-1.93-5.59-1.52-6,1.19a6.38,6.38,0,0,1-.57,1.29c-2.08-3-4.09-3.63-6.18-1.93a4.62,4.62,0,0,0-.88,5.75C139,186,142.1,190.09,145.23,194.46ZM322,331.15a5,5,0,0,0-3.11-4.2A8.56,8.56,0,0,0,307.05,332c-2.1,6.07,1.33,12.62,7.22,13.34,1.77.21,3.67-.55,5.7-.9,0,.43.09,1.06.12,1.69.13,2.5.12,2.5-2.3,2.8l-6.86.85.45,2.08c3.54-.44,6.91-.87,10.29-1.27,1.11-.13,1.12-.84,1.06-1.68-.18-2.39-.28-4.78-.54-7.16a7.12,7.12,0,0,0-.84-2,7.22,7.22,0,0,0-1.73,1.11,5.58,5.58,0,0,1-8,.9c-3.51-2.75-3.68-9.07-.24-11.92,2-1.64,5.8-2.32,8,.71C320.18,331.76,320.85,331.76,322,331.15ZM133.24,146.2c.2,3,.35,6,.62,9a5.46,5.46,0,0,0,.87,1.74,6.08,6.08,0,0,0,1.61-1c2.88-3.2,7-3.2,9.34.21a8.52,8.52,0,0,1,1,8.05c-1.2,3.24-4.32,5-7.26,3.9-1.4-.51-2.52-1.77-4.05-2.89l-1.38.55a6.27,6.27,0,0,0,5.56,4.78c3,.38,5.78-.17,7.76-2.62,2.72-3.35,2.75-7.14,1.34-11a7.81,7.81,0,0,0-7.72-5.59c-1.57,0-3.16.76-4.94,1.24-.06-.85-.06-1.78-.19-2.69-.19-1.31.37-1.85,1.64-2,2-.18,3.91-.52,5.88-.68,1.62-.14,2.1-.83,1.38-2.46Zm161.17-30.08c3.18.63,5.43,3.52,8.63,1.48l-.31-2.52Z" transform="translate(-55.33 -99.78)"/><path class="cls-6" d="M154.49,378.28c1,1.63,1.74,3.37,3.57,4.4.46.26.36,1.53.52,2.33l-3.21.4Z" transform="translate(-55.33 -99.78)"/><path class="cls-6" d="M124.56,137.12l4.49-.56a11.57,11.57,0,0,0-3.83,5.91Z" transform="translate(-55.33 -99.78)"/><path class="cls-6" d="M225.31,224.92c2.24,2.48,4.37,4.86,6.53,7.23,3.41,3.74,7,7.34,10.21,11.26,2.71,3.31,5.24,6.85,6.2,11.17,1.09,4.9.08,9.95-4,12.65s-8.93,2-11.87-2c-.83-1.15-1.52-2.39-2.5-3.94-.22,1.35-.3,2.34-.55,3.28-1,3.67-3.12,6.06-7.13,6.54a9.27,9.27,0,0,1-9.46-4.53c-3.75-5.92-2.41-12,.45-17.73,2.69-5.46,5.72-10.76,8.52-16.17C223,230.18,224.06,227.61,225.31,224.92Z" transform="translate(-55.33 -99.78)"/><path class="cls-6" d="M278.37,299.54c3.19,3.49,6.52,7,9.68,10.65,3.54,4.11,7.07,8.24,10.32,12.57a15.78,15.78,0,0,1,2.84,12.93,10,10,0,0,1-7.43,7.48c-3.48.69-6.82-.94-9-4.44-.56-.87-1.1-1.77-1.93-3.11-.18,1.08-.29,1.62-.36,2.18-.43,3.48-2,6.21-5.45,7.33a9.13,9.13,0,0,1-9.76-2.32c-3.52-3.49-4.05-7.83-3.41-12.47.53-3.86,2.33-7.24,4.12-10.64C271.44,313,274.86,306.34,278.37,299.54Z" transform="translate(-55.33 -99.78)"/><path class="cls-6" d="M263.86,187.1c-1.73-1.93-3.58-4-5.45-6.07-3.57-3.94-7.28-7.77-10.68-11.85a43.12,43.12,0,0,1-5-7.63c-2.08-4-2.83-8.32-.9-12.62a9,9,0,0,1,8.1-5.6c3.69-.18,6.18,1.8,8,4.86.46.8.9,1.61,1.61,2.89.23-1.55.3-2.6.54-3.6,1.86-7.51,10.69-8.08,15-3.68,3.58,3.68,4.3,8.15,3.24,12.77a48.55,48.55,0,0,1-4,10.3C271,173.67,267.36,180.34,263.86,187.1Z" transform="translate(-55.33 -99.78)"/><path class="cls-6" d="M196.7,346.4c-.54,2-.88,3.59-1.43,5.13-1.94,5.43-9,5.6-12.13,3.59-3.85-2.45-5.5-6-5.7-10.52-.25-5.8,2.44-10.59,4.93-15.49,3.13-6.18,6.18-12.4,9.27-18.6.07-.16.15-.32.34-.7,2.17,2.49,4.17,4.84,6.21,7.13,3.54,4,7.32,7.75,10.58,11.94a42.23,42.23,0,0,1,5.53,9.54,11.88,11.88,0,0,1-.42,10.41,9.14,9.14,0,0,1-8.19,5.22c-3.83.09-6.07-2.35-7.78-5.44Z" transform="translate(-55.33 -99.78)"/><path class="cls-6" d="M173,161.68c.6-2.12,1-3.86,1.58-5.49,2.09-5.4,9.62-5.38,12.83-2.79,5.08,4.09,5.55,9.38,4.33,15.08-1.35,6.3-5.09,11.55-7.9,17.22-1.83,3.69-3.52,7.45-5.27,11.17-.17.36-.35.71-.6,1.21-1.74-1.93-3.36-3.75-5-5.55-3.87-4.24-7.91-8.34-11.58-12.75-3.37-4.05-6.27-8.43-6.79-14-.59-6.25,3.32-11.46,9-11.8,3.44-.2,6.68,2,8.49,5.8C172.36,160.33,172.6,160.86,173,161.68Z" transform="translate(-55.33 -99.78)"/><path class="cls-6" d="M310.59,302.37c3.2,4,6.32,7.78,9.19,11.71a7.22,7.22,0,0,1,.91,3.9,3.22,3.22,0,0,1-2.62,3.4c-2.16.55-3.17.14-4.36-1.73a4.69,4.69,0,0,0-.49-.52c-.16.4-.28.68-.38,1-.56,1.6-1.5,2.72-3.36,2.68s-3.7-1.29-3.92-3.07a13,13,0,0,1,.21-5.59C307.07,310.26,308.84,306.55,310.59,302.37Z" transform="translate(-55.33 -99.78)"/><path class="cls-6" d="M145.23,194.46c-3.13-4.37-6.27-8.46-9.09-12.77a4.62,4.62,0,0,1,.88-5.75c2.09-1.7,4.1-1.11,6.18,1.93a6.38,6.38,0,0,0,.57-1.29c.44-2.71,4.34-3.12,6-1.19a5.66,5.66,0,0,1,1.32,5,29.61,29.61,0,0,1-1.8,5.41C148.12,188.59,146.75,191.29,145.23,194.46Z" transform="translate(-55.33 -99.78)"/><path class="cls-6" d="M322,331.15c-1.1.61-1.77.61-2.59-.53-2.17-3-6-2.35-8-.71-3.44,2.85-3.27,9.17.24,11.92a5.58,5.58,0,0,0,8-.9,7.22,7.22,0,0,1,1.73-1.11,7.12,7.12,0,0,1,.84,2c.26,2.38.36,4.77.54,7.16.06.84,0,1.55-1.06,1.68-3.38.4-6.75.83-10.29,1.27l-.45-2.08,6.86-.85c2.42-.3,2.43-.3,2.3-2.8,0-.63-.09-1.26-.12-1.69-2,.35-3.93,1.11-5.7.9-5.89-.72-9.32-7.27-7.22-13.34A8.56,8.56,0,0,1,318.84,327,5,5,0,0,1,322,331.15Z" transform="translate(-55.33 -99.78)"/><path class="cls-6" d="M133.24,146.2l11.5-1.43c.72,1.63.24,2.32-1.38,2.46-2,.16-3.92.5-5.88.68-1.27.11-1.83.65-1.64,2,.13.91.13,1.84.19,2.69,1.78-.48,3.37-1.25,4.94-1.24a7.81,7.81,0,0,1,7.72,5.59c1.41,3.88,1.38,7.67-1.34,11-2,2.45-4.77,3-7.76,2.62a6.27,6.27,0,0,1-5.56-4.78l1.38-.55c1.53,1.12,2.65,2.38,4.05,2.89,2.94,1.08,6.06-.66,7.26-3.9a8.52,8.52,0,0,0-1-8.05c-2.36-3.41-6.46-3.41-9.34-.21a6.08,6.08,0,0,1-1.61,1,5.46,5.46,0,0,1-.87-1.74C133.59,152.21,133.44,149.24,133.24,146.2Z" transform="translate(-55.33 -99.78)"/><path class="cls-6" d="M294.41,116.12l8.32-1,.31,2.52C299.84,119.64,297.59,116.75,294.41,116.12Z" transform="translate(-55.33 -99.78)"/></g><rect id="cardBorder-5" data-name="cardBorder" class="cls-4" x="139.26" y="124.5" width="180" height="251" rx="10.45" transform="translate(-84.38 -69.64) rotate(-7.07)"/></g><g id="_6Spades" data-name="6Spades"><g class="cls-7"><path class="cls-3" d="M169.31,354.73l34.17-236.61a12,12,0,0,1,5.7-4.26L373.1,137.53c5.29,2.55,6.57,6.75,5.66,12.32-1.54,9.33-2.67,18.73-4,28.09q-4.83,33.88-9.69,67.76-5.74,39.84-11.6,79.66-3.78,25.86-7.62,51.7a8.71,8.71,0,0,1-4.78,6.95,24.08,24.08,0,0,1-3.17,1.1l8.33,1.2c.1-.68.18-1.27.27-1.85Q357.24,310,368,235.58q7-48.39,14-96.76c.11.07.32.16.31.23,0,.47-.12.95-.18,1.42L346.54,386.86,170,361.35a8.27,8.27,0,0,1-1.55-.57l48.84,7.05q-19.29-3.3-38.68-5.89C174,361.32,170.83,359.17,169.31,354.73Zm131.45-26.82c-2.15-7-6.14-11.47-14-9.15-5.08,1.49-8,6.45-6.84,11,2.23,8.5,8.2,9.34,15.64,6.94a5.14,5.14,0,0,1-1.34,1.62c-3.06,2.28-5,5.31-4.93,9.12.09,7.57,7.28,11.9,14.4,9.59a9.06,9.06,0,0,0,6.42-7.11,12,12,0,0,0-2.13-9.85,13.8,13.8,0,0,1-.86-1.71c8.39,4.22,12.63,3.82,15.83-1.2a10.38,10.38,0,0,0-1.88-13.48,9.39,9.39,0,0,0-6.67-2.14,11,11,0,0,0-10,7c.15-5.58,2.83-10.15,5.57-14.73l-10.69-1.54c.52,2.64,1.08,5.2,1.53,7.77S301.63,325.23,300.76,327.91Zm-83.15-2.79.39.35a15.5,15.5,0,0,1-1.61,1.63,11,11,0,0,0-4.6,8.92c-.06,4.35,2.72,8.46,8.12,9.82,6.79,1.73,12.44-3.43,12.82-8a12.73,12.73,0,0,0-2.24-9,13.59,13.59,0,0,1-1-1.88c8.11,4.24,12.76,3.7,15.91-1.56a10.36,10.36,0,0,0-2.59-13.63,9.41,9.41,0,0,0-7-1.68,11.15,11.15,0,0,0-9.19,6.95c.17-5.47,2.73-10,5.57-14.68l-10.93-1.58a32.78,32.78,0,0,1,1.83,15.65c-1.08-3.48-2.64-6.5-5.85-8.4-3.45-2.05-6.84-1.78-10.19.19a9.93,9.93,0,0,0-4.24,12.13C205.34,326.06,209.54,327.41,217.61,325.12Zm34.76-159-.34-.53a12,12,0,0,1,1.33-1.43,12.43,12.43,0,0,0,4.31-5.38c1.54-4.08,1.08-7.83-2-11a10.37,10.37,0,0,0-11.1-2.68,9.34,9.34,0,0,0-6.94,8.68,11.73,11.73,0,0,0,2,8,19,19,0,0,1,1.05,2c-2.14-1.06-3.74-2.24-5.52-2.65a10.62,10.62,0,0,0-5.57.12,9.6,9.6,0,0,0-4.44,3.39c-3.2,4.6-2.77,10.52,1.43,13.59,7,5.16,12.48,2.31,16.84-4.34-.35,5.48-3.06,10-6,14.59l10.87,1.57a40.15,40.15,0,0,1-1.77-15.94c1.27,2.52,2.17,4.59,3.33,6.5a8.54,8.54,0,0,0,5.55,3.66,9.29,9.29,0,0,0,6.76-1c4.29-2.23,6.55-7.5,5-11.87a9.68,9.68,0,0,0-4.53-5.58C259.23,164,255.8,164.57,252.37,166.09Zm-11.46,78.24-.06-.53c.82-.72,1.62-1.47,2.45-2.17,4.57-3.82,5.29-10.68,1.55-14.9a11,11,0,0,0-15.59-.75c-3.74,3.57-4.08,9.7-.81,14.31a14.64,14.64,0,0,1,.92,1.64l-.4.45a11.47,11.47,0,0,0-7.84-3.1,8.24,8.24,0,0,0-7.35,4.05,10.23,10.23,0,0,0,1.37,13.27,8.8,8.8,0,0,0,6,2.5c5.14.11,8.82-2.23,11.17-6.91-.41,5.51-2.93,10.06-6,14.63l10.8,1.56c-.53-2.68-1.16-5.22-1.51-7.8s-.94-5.16.35-7.7a12.11,12.11,0,0,0,4.19,7.52,9.61,9.61,0,0,0,8.23,2.14c4.8-.94,9-5.66,8.22-10.51C255.13,242.79,248.8,241.77,240.91,244.33Zm77.83,11.49-.29-.58c.9-.83,1.81-1.65,2.68-2.5,2.85-2.77,4.22-6.09,3.45-10.05-.81-4.17-3.49-6.7-7.5-7.84A10.29,10.29,0,0,0,304.13,242a11.92,11.92,0,0,0,2,9.88,16.41,16.41,0,0,1,.91,1.89c-8-4.22-12.29-3.91-15.53.82-3.06,4.46-2.48,10.56,1.68,13.75a11,11,0,0,0,5.71,2.09c5.05.27,8.69-2.2,10.84-7,.42,2.87-.76,5.25-1.78,7.59s-2.49,4.71-3.8,7.15L315,279.77c-2.25-8.13-2.77-13.76-1.54-15.47.81,1.8,1.32,3.93,2.57,5.44a11.92,11.92,0,0,0,5.07,3.69,10.36,10.36,0,0,0,6.09,0c5.21-1.69,8.12-6.74,6.94-11.46a9.56,9.56,0,0,0-3.8-5.69C326.62,253.67,322.71,254.21,318.74,255.82Zm-.26-80.7-.44.4c-2.33-1.77-4.83-3.1-7.83-3.08a8.55,8.55,0,0,0-7.26,4,10.38,10.38,0,0,0,1.72,13.82,9.3,9.3,0,0,0,6.68,2.06c4.65-.26,7.87-2.63,9.9-6.89a14.57,14.57,0,0,1-1.83,7.51c-1.17,2.39-2.5,4.7-3.78,7.08l10.78,1.55c-1.45-5.16-2.64-10.16-1.65-15.73,1,2.15,1.45,4.06,2.55,5.52A11.53,11.53,0,0,0,331.6,195a10.87,10.87,0,0,0,5.56.77c4.69-.6,8.85-5,8.36-9.73-1-9.65-7.16-11.3-15.54-8.44.15-.52.14-.75.25-.85.7-.65,1.4-1.3,2.13-1.92,4.78-4,5.27-11.62,1-15.63-3.71-3.49-10.59-3.82-14.24-.67a11,11,0,0,0-1.83,14.59C317.73,173.72,318.08,174.44,318.48,175.12Zm-108.43-8.91c-3.66-2.55-5.9-2.77-7.46-.93-1.24,1.46-1.26,4.78.28,5.75a5.72,5.72,0,0,0,4,.88c1.18-.28,2.09-1.64,3.13-2.53l.33.14-3.32,6.1,5.25.76c-1.12-5.34-1.14-5.82-.37-6.88,1.07,3.74,2.53,5,5.08,4.46,2.21-.49,3.6-2.89,3.17-5.51a3.18,3.18,0,0,0-2.7-2.77,16,16,0,0,0-4,.45c3.08-3.14,3.63-5.24,1.92-7.3a4.31,4.31,0,0,0-5.69-.69C207.45,159.67,207.53,161.75,210.05,166.21ZM336.34,332.29c-2.23-4-3.6-5-6.08-4.16a4.48,4.48,0,0,0-2.56,5.5c1.13,3.67,3.93,2.85,6.62,1.84,0,.29,0,.38,0,.4l-1.06.95c-2,1.73-2.29,4.17-.82,6a4.28,4.28,0,0,0,5.94.67c1.63-1.23,1.89-4,.57-6l-1.19-1.85c3.75,2.44,6.08,2.58,7.5.65,1.23-1.68,1.07-4.5-.52-5.7-.76-.57-2-1.21-2.73-1a26.48,26.48,0,0,0-4.51,2.61c1-2,2-4,3-6.11l-5-.72c.27,1.24.57,2.33.71,3.44S336.29,331.15,336.34,332.29ZM325.2,368.23c.65,2.86,1.39,4.1,3.11,4.62,4.84,1.47,8.79,1.08,11-4.2a28.57,28.57,0,0,0,2-14.24c-.54-5.05-7.66-7.94-11.76-4.91-2.86,2.11-4.41,7.45-3.37,11.62a6.74,6.74,0,0,0,7.56,5.35,29.3,29.3,0,0,0,4.14-1.13,22.11,22.11,0,0,1-.64,2.33,5.5,5.5,0,0,1-9.49,1.66C327.31,368.79,326.33,368.69,325.2,368.23ZM222.71,133.63l.43-.59a4.57,4.57,0,0,0-2.86-3.92c-4.65-1.8-9-1.19-11.25,4.19a31.71,31.71,0,0,0-2.27,13.36c.09,3.83,2.54,6.13,6.77,6.94a6.1,6.1,0,0,0,7.32-4.07,18.92,18.92,0,0,0,1.36-7.66c-.28-5.22-5.44-8-10.26-5.86-.39.18-.82.29-1.54.53a25.43,25.43,0,0,1,.93-2.83,5.55,5.55,0,0,1,9.43-1.12C221.18,133.13,222.05,133.3,222.71,133.63Z" transform="translate(-55.33 -99.78)"/><path d="M382,138.82q-7,48.38-14,96.76Q357.24,310,346.5,384.46c-.09.58-.17,1.17-.27,1.85l-8.33-1.2a24.08,24.08,0,0,0,3.17-1.1,8.71,8.71,0,0,0,4.78-6.95q3.81-25.85,7.62-51.7,5.83-39.83,11.6-79.66,4.9-33.87,9.69-67.76c1.33-9.36,2.46-18.76,4-28.09.91-5.57-.37-9.77-5.66-12.32Z" transform="translate(-55.33 -99.78)"/><path d="M169.31,354.73c1.52,4.44,4.66,6.59,9.29,7.21q19.38,2.63,38.68,5.89l-48.84-7.05Z" transform="translate(-55.33 -99.78)"/><path d="M209.18,113.86a12,12,0,0,0-5.7,4.26l.72-5Z" transform="translate(-55.33 -99.78)"/><path d="M300.76,327.91c.87-2.68.52-5.3.07-7.9s-1-5.13-1.53-7.77L310,313.78c-2.74,4.58-5.42,9.15-5.57,14.73a11,11,0,0,1,10-7,9.39,9.39,0,0,1,6.67,2.14A10.38,10.38,0,0,1,323,337.17c-3.2,5-7.44,5.42-15.83,1.2a13.8,13.8,0,0,0,.86,1.71,12,12,0,0,1,2.13,9.85A9.06,9.06,0,0,1,303.7,357c-7.12,2.31-14.31-2-14.4-9.59-.05-3.81,1.87-6.84,4.93-9.12a5.14,5.14,0,0,0,1.34-1.62c-7.44,2.4-13.41,1.56-15.64-6.94-1.19-4.56,1.76-9.52,6.84-11C294.62,316.44,298.61,320.87,300.76,327.91Z" transform="translate(-55.33 -99.78)"/><path d="M217.61,325.12c-8.07,2.29-12.27.94-14.73-4.76a9.93,9.93,0,0,1,4.24-12.13c3.35-2,6.74-2.24,10.19-.19,3.21,1.9,4.77,4.92,5.85,8.4a32.78,32.78,0,0,0-1.83-15.65l10.93,1.58c-2.84,4.66-5.4,9.21-5.57,14.68a11.15,11.15,0,0,1,9.19-6.95,9.41,9.41,0,0,1,7,1.68,10.36,10.36,0,0,1,2.59,13.63c-3.15,5.26-7.8,5.8-15.91,1.56a13.59,13.59,0,0,0,1,1.88,12.73,12.73,0,0,1,2.24,9c-.38,4.57-6,9.73-12.82,8-5.4-1.36-8.18-5.47-8.12-9.82a11,11,0,0,1,4.6-8.92,15.5,15.5,0,0,0,1.61-1.63Z" transform="translate(-55.33 -99.78)"/><path d="M252.37,166.09c3.43-1.52,6.86-2.12,10.31-.23a9.68,9.68,0,0,1,4.53,5.58c1.51,4.37-.75,9.64-5,11.87a9.29,9.29,0,0,1-6.76,1,8.54,8.54,0,0,1-5.55-3.66c-1.16-1.91-2.06-4-3.33-6.5a40.15,40.15,0,0,0,1.77,15.94l-10.87-1.57c3-4.62,5.7-9.11,6-14.59-4.36,6.65-9.81,9.5-16.84,4.34-4.2-3.07-4.63-9-1.43-13.59a9.6,9.6,0,0,1,4.44-3.39,10.62,10.62,0,0,1,5.57-.12c1.78.41,3.38,1.59,5.52,2.65a19,19,0,0,0-1.05-2,11.73,11.73,0,0,1-2-8,9.34,9.34,0,0,1,6.94-8.68,10.37,10.37,0,0,1,11.1,2.68c3,3.15,3.5,6.9,2,11a12.43,12.43,0,0,1-4.31,5.38,12,12,0,0,0-1.33,1.43Z" transform="translate(-55.33 -99.78)"/><path d="M240.91,244.33c7.89-2.56,14.22-1.54,15.71,7.7.78,4.85-3.42,9.57-8.22,10.51a9.61,9.61,0,0,1-8.23-2.14,12.11,12.11,0,0,1-4.19-7.52c-1.29,2.54-.68,5.15-.35,7.7s1,5.12,1.51,7.8l-10.8-1.56c3-4.57,5.57-9.12,6-14.63-2.35,4.68-6,7-11.17,6.91a8.8,8.8,0,0,1-6-2.5,10.23,10.23,0,0,1-1.37-13.27,8.24,8.24,0,0,1,7.35-4.05,11.47,11.47,0,0,1,7.84,3.1l.4-.45a14.64,14.64,0,0,0-.92-1.64c-3.27-4.61-2.93-10.74.81-14.31a11,11,0,0,1,15.59.75c3.74,4.22,3,11.08-1.55,14.9-.83.7-1.63,1.45-2.45,2.17Z" transform="translate(-55.33 -99.78)"/><path d="M318.74,255.82c4-1.61,7.88-2.15,11.58.45a9.56,9.56,0,0,1,3.8,5.69c1.18,4.72-1.73,9.77-6.94,11.46a10.36,10.36,0,0,1-6.09,0,11.92,11.92,0,0,1-5.07-3.69c-1.25-1.51-1.76-3.64-2.57-5.44-1.23,1.71-.71,7.34,1.54,15.47l-10.83-1.56c1.31-2.44,2.74-4.72,3.8-7.15s2.2-4.72,1.78-7.59c-2.15,4.76-5.79,7.23-10.84,7a11,11,0,0,1-5.71-2.09c-4.16-3.19-4.74-9.29-1.68-13.75,3.24-4.73,7.58-5,15.53-.82a16.41,16.41,0,0,0-.91-1.89,11.92,11.92,0,0,1-2-9.88,10.29,10.29,0,0,1,12.95-7.15c4,1.14,6.69,3.67,7.5,7.84.77,4-.6,7.28-3.45,10.05-.87.85-1.78,1.67-2.68,2.5Z" transform="translate(-55.33 -99.78)"/><path d="M318.48,175.12c-.4-.68-.75-1.4-1.2-2.05a11,11,0,0,1,1.83-14.59c3.65-3.15,10.53-2.82,14.24.67,4.28,4,3.79,11.59-1,15.63-.73.62-1.43,1.27-2.13,1.92-.11.1-.1.33-.25.85,8.38-2.86,14.54-1.21,15.54,8.44.49,4.75-3.67,9.13-8.36,9.73a10.87,10.87,0,0,1-5.56-.77,11.53,11.53,0,0,1-4.28-3.61c-1.1-1.46-1.6-3.37-2.55-5.52-1,5.57.2,10.57,1.65,15.73L315.64,200c1.28-2.38,2.61-4.69,3.78-7.08a14.57,14.57,0,0,0,1.83-7.51c-2,4.26-5.25,6.63-9.9,6.89a9.3,9.3,0,0,1-6.68-2.06A10.38,10.38,0,0,1,303,176.42a8.55,8.55,0,0,1,7.26-4c3,0,5.5,1.31,7.83,3.08Z" transform="translate(-55.33 -99.78)"/><path d="M210.05,166.21c-2.52-4.46-2.6-6.54-.45-8.07a4.31,4.31,0,0,1,5.69.69c1.71,2.06,1.16,4.16-1.92,7.3a16,16,0,0,1,4-.45,3.18,3.18,0,0,1,2.7,2.77c.43,2.62-1,5-3.17,5.51-2.55.57-4-.72-5.08-4.46-.77,1.06-.75,1.54.37,6.88l-5.25-.76,3.32-6.1-.33-.14c-1,.89-2,2.25-3.13,2.53a5.72,5.72,0,0,1-4-.88c-1.54-1-1.52-4.29-.28-5.75C204.15,163.44,206.39,163.66,210.05,166.21Z" transform="translate(-55.33 -99.78)"/><path d="M336.34,332.29c0-1.14,0-2.29-.17-3.42s-.44-2.2-.71-3.44l5,.72c-1,2.09-2.05,4.13-3,6.11a26.48,26.48,0,0,1,4.51-2.61c.73-.25,2,.39,2.73,1,1.59,1.2,1.75,4,.52,5.7-1.42,1.93-3.75,1.79-7.5-.65l1.19,1.85c1.32,2,1.06,4.79-.57,6a4.28,4.28,0,0,1-5.94-.67c-1.47-1.87-1.14-4.31.82-6l1.06-.95s0-.11,0-.4c-2.69,1-5.49,1.83-6.62-1.84a4.48,4.48,0,0,1,2.56-5.5C332.74,327.32,334.11,328.31,336.34,332.29Z" transform="translate(-55.33 -99.78)"/><path d="M325.2,368.23c1.13.46,2.11.56,2.57,1.1a5.5,5.5,0,0,0,9.49-1.66,22.11,22.11,0,0,0,.64-2.33,29.3,29.3,0,0,1-4.14,1.13,6.74,6.74,0,0,1-7.56-5.35c-1-4.17.51-9.51,3.37-11.62,4.1-3,11.22-.14,11.76,4.91a28.57,28.57,0,0,1-2,14.24c-2.22,5.28-6.17,5.67-11,4.2C326.59,372.33,325.85,371.09,325.2,368.23Zm3.08-11.11a13.79,13.79,0,0,0,0,2c.31,2.59,1.83,4.42,3.89,4.77a5.53,5.53,0,0,0,6.19-3.16,7.39,7.39,0,0,0,.1-6.9,6,6,0,0,0-3.22-2.74C331.5,349.94,329,352.1,328.28,357.12Z" transform="translate(-55.33 -99.78)"/><path d="M222.71,133.63c-.66-.33-1.53-.5-1.94-1a5.55,5.55,0,0,0-9.43,1.12,25.43,25.43,0,0,0-.93,2.83c.72-.24,1.15-.35,1.54-.53,4.82-2.12,10,.64,10.26,5.86a18.92,18.92,0,0,1-1.36,7.66,6.1,6.1,0,0,1-7.32,4.07c-4.23-.81-6.68-3.11-6.77-6.94A31.71,31.71,0,0,1,209,133.31c2.29-5.38,6.6-6,11.25-4.19a4.57,4.57,0,0,1,2.86,3.92Zm-2.67,12a26.85,26.85,0,0,0-.08-3.17,5,5,0,0,0-3.56-4.5,5.31,5.31,0,0,0-5.66,1.73c-2,2.21-2,4.86-1.44,7.58A4.61,4.61,0,0,0,213,151c2,.5,3.93.25,5.19-1.46A20.19,20.19,0,0,0,220,145.67Z" transform="translate(-55.33 -99.78)"/><path class="cls-3" d="M328.28,357.12c.69-5,3.22-7.18,7-6a6,6,0,0,1,3.22,2.74,7.39,7.39,0,0,1-.1,6.9,5.53,5.53,0,0,1-6.19,3.16c-2.06-.35-3.58-2.18-3.89-4.77A13.79,13.79,0,0,1,328.28,357.12Z" transform="translate(-55.33 -99.78)"/><path class="cls-3" d="M220,145.67a20.19,20.19,0,0,1-1.88,3.9c-1.26,1.71-3.21,2-5.19,1.46a4.61,4.61,0,0,1-3.67-3.72c-.55-2.72-.52-5.37,1.44-7.58A5.31,5.31,0,0,1,216.4,138a5,5,0,0,1,3.56,4.5A26.85,26.85,0,0,1,220,145.67Z" transform="translate(-55.33 -99.78)"/></g><rect id="cardBorder-6" data-name="cardBorder" class="cls-4" x="185.37" y="124.5" width="180" height="251" rx="10.45" transform="translate(-16.78 -136.57) rotate(8.22)"/></g><g id="_3Clubs" data-name="3Clubs"><g class="cls-8"><path class="cls-3" d="M205.48,341.81q31-115.62,62-231.24a11.24,11.24,0,0,1,6.16-3.56l159.63,42.81c1,.74,2.23,1.29,2.88,2.26,1.37,2,3.47,1.92,5.5,2.57l.64-2.41c.1.09.3.2.29.27-.1.47-.24.93-.36,1.39L377.75,394.34q-86.14-23.1-172.29-46.22a8.15,8.15,0,0,1-1.47-.75,22.4,22.4,0,0,0,2.25.56c.4.06,1,0,1.2-.27a1.81,1.81,0,0,0,.19-1.43C207,344.73,206.21,343.28,205.48,341.81ZM338.13,181.27c-1,5.36-3.93,9.64-7.37,13.75l10.81,2.9c-1.25-9.92-1.16-13.61.34-15.52,2.26,8.19,6.1,11.78,11.64,10.84s9.47-5.54,9.07-10.55a10,10,0,0,0-3.16-6.68c-3.31-3.09-7.28-3-11.51-2a12.9,12.9,0,0,1,2.74-2.38c5-3.41,6.34-10.37,2.71-15-3.47-4.46-10.7-5.83-15.42-1.91-3.88,3.23-4.88,9.22-2.27,14.06a18,18,0,0,1,.72,1.76l-.39.28c-2.33-2.2-4.91-3.9-8.18-3.91a9,9,0,0,0-7.91,4.48c-2.82,4.3-1.89,10.7,2,13.66a10.07,10.07,0,0,0,7.45,1.94A11.1,11.1,0,0,0,338.13,181.27ZM305.94,332.54c7.28,5.12,11.91,5.22,15.84.33a10.39,10.39,0,0,0-1-14,9.75,9.75,0,0,0-7.12-2.44,10.93,10.93,0,0,0-9.36,5.49c.92-5.47,4.21-9.6,7.71-13.81l-10.88-2.92a33.79,33.79,0,0,1-.43,15.6c-.43-3.18-1.37-6.06-3.68-8.32a9.17,9.17,0,0,0-8.67-2.8c-5.94,1.31-8.49,5-8.55,9.8a10.84,10.84,0,0,0,2.26,6.23c3.08,4.06,7.6,4,12.39,3.15-6.91,4.43-10.79,9.75-5.42,17.52,2.59,3.75,8.76,5.13,12.86,3C309.57,345.44,308.9,339.24,305.94,332.54Zm10.17-84.61c-7.83-5.07-12-5.31-15.72-1.26-3.43,3.69-4,9.56-.5,13.26,6.37,6.65,12.37,4.47,17.81-1.81-1.13,5.34-4.23,9.56-7.6,13.67l10.66,2.85c-.21-2.7-.56-5.3-.59-7.9-.07-6,.05-6.45,1.15-7.56,1.83,7.75,5.37,11.38,10.8,11.06s10-4.22,9.85-9.55c-.33-9.28-6.6-11.05-14.75-9.74,6.66-4.41,10.58-9.62,5.59-17.35-2.41-3.73-8.55-5.45-12.75-3.41C312,234.12,312.7,240.58,316.11,247.93Zm-45.39-88.45c3.73-2.39,4.54-4.19,3.23-6.77a4.15,4.15,0,0,0-5.33-2c-2.46.94-2.8,2.78-1.43,7.62-3.53-2.36-5.63-2.64-7.09-.94s-1.39,4.46-.08,5.81c1.72,1.79,3.61,1.49,7.49-1L263.46,168l5,1.35,0-6.6H269c.91,3.93,2.41,5.34,5.1,4.77a4.76,4.76,0,0,0,3.35-5.25C277,159.78,275.2,159,270.72,159.48ZM375,344c2.91,2.86,5.14,3.33,7,1.67,1.56-1.41,1.94-4.23.55-5.68a6.58,6.58,0,0,0-2.77-1.45c-2.08-.63-3.15,1.08-4.4,2.31l-.41-.38,4-5.67-4.87-1.31c0,2.34-.08,4.59-.13,6.85h-.53c-.51-3.63-1.82-5.18-4.32-5.1a4.28,4.28,0,0,0-4.09,4.62c.23,4.26,3.32,4.07,6.91,3.29-3.9,2.69-4.77,4.74-3.37,7.13a4,4,0,0,0,5.43,1.63C376.34,350.88,376.66,348.87,375,344ZM270.43,125.33c2.06,1,2.06,1,3.49-1.77l7.09,1.9c-2.73,1.79-5.09,3.4-7.53,4.9-1.18.73-1.48,1.45-.41,2.63.57-.13,1.19-.29,1.83-.4a5.64,5.64,0,0,1,6.15,3.55,6.84,6.84,0,0,1-4,8.11,6.17,6.17,0,0,1-8-3.81c-.26-.64-.51-1.29-.78-2-.53.14-.87.21-1.2.33a7.69,7.69,0,0,0-.76.38,8.28,8.28,0,0,0,6.94,7.85c3.66.72,8.05-1.12,9.25-4.27a16.55,16.55,0,0,0,1.15-6.57c-.16-2.8-2.4-4.48-5-5.85,2.15-1.46,4.11-2.71,6-4.09a7,7,0,0,0,1.24-1.77,7.87,7.87,0,0,0-1.59-1c-1.53-.5-3.1-.89-4.66-1.32l-7.61-2c-.3.84-.54,1.45-.72,2.07C271,123.22,270.73,124.2,270.43,125.33Zm100,246.19c0-1.57-.64-1.74-2-1.6a7.56,7.56,0,0,1-4.23-.74c-2.31-1.26-2.9-3.4-2.22-6.22A5.9,5.9,0,0,1,367,358.1a6.23,6.23,0,0,1,6.35,3.1c.5.92.89,1.91,1.63,3.5.68-1.06,1.54-1.79,1.44-2.34a7.8,7.8,0,0,0-3.75-5.43c-4.29-2.51-10-1.29-12.14,2.65-2.67,4.89-2.07,9.89,3.31,12.42.07,0,.09.19.15.34-.17.14-.34.3-.53.43-1.79,1.19-3.63,2.33-5.36,3.6a3.1,3.1,0,0,0-1,1.74c0,.23.75.76,1.24.93,1.12.39,2.3.65,3.45,1l9.05,2.43,1.44-5.36-2.14-.57-1,2.64-7.36-2Z" transform="translate(-55.33 -99.78)"/><path d="M442.31,152.24l-.64,2.41c-2-.65-4.13-.53-5.5-2.57-.65-1-1.9-1.52-2.88-2.26Z" transform="translate(-55.33 -99.78)"/><path d="M205.48,341.81c.73,1.47,1.5,2.92,2.15,4.42a1.81,1.81,0,0,1-.19,1.43c-.17.25-.8.33-1.2.27a22.4,22.4,0,0,1-2.25-.56Z" transform="translate(-55.33 -99.78)"/><path d="M273.66,107a11.24,11.24,0,0,0-6.16,3.56l1.3-4.86Z" transform="translate(-55.33 -99.78)"/><path d="M338.13,181.27a11.1,11.1,0,0,1-8.74,5.69,10.07,10.07,0,0,1-7.45-1.94c-3.88-3-4.81-9.36-2-13.66a9,9,0,0,1,7.91-4.48c3.27,0,5.85,1.71,8.18,3.91l.39-.28a18,18,0,0,0-.72-1.76c-2.61-4.84-1.61-10.83,2.27-14.06,4.72-3.92,11.95-2.55,15.42,1.91,3.63,4.67,2.27,11.63-2.71,15A12.9,12.9,0,0,0,348,174c4.23-1,8.2-1.1,11.51,2a10,10,0,0,1,3.16,6.68c.4,5-3.59,9.63-9.07,10.55s-9.38-2.65-11.64-10.84c-1.5,1.91-1.59,5.6-.34,15.52L330.76,195C334.2,190.91,337.17,186.63,338.13,181.27Z" transform="translate(-55.33 -99.78)"/><path d="M305.94,332.54c3,6.7,3.63,12.9-4,16.85-4.1,2.11-10.27.73-12.86-3-5.37-7.77-1.49-13.09,5.42-17.52-4.79.85-9.31.91-12.39-3.15a10.84,10.84,0,0,1-2.26-6.23c.06-4.77,2.61-8.49,8.55-9.8a9.17,9.17,0,0,1,8.67,2.8c2.31,2.26,3.25,5.14,3.68,8.32a33.79,33.79,0,0,0,.43-15.6L312,308.11c-3.5,4.21-6.79,8.34-7.71,13.81a10.93,10.93,0,0,1,9.36-5.49,9.75,9.75,0,0,1,7.12,2.44,10.39,10.39,0,0,1,1,14C317.85,337.76,313.22,337.66,305.94,332.54Z" transform="translate(-55.33 -99.78)"/><path d="M316.11,247.93c-3.41-7.35-4.12-13.81,3.95-17.74,4.2-2,10.34-.32,12.75,3.41,5,7.73,1.07,12.94-5.59,17.35,8.15-1.31,14.42.46,14.75,9.74.19,5.33-4.56,9.24-9.85,9.55s-9-3.31-10.8-11.06c-1.1,1.11-1.22,1.53-1.15,7.56,0,2.6.38,5.2.59,7.9l-10.66-2.85c3.37-4.11,6.47-8.33,7.6-13.67-5.44,6.28-11.44,8.46-17.81,1.81-3.54-3.7-2.93-9.57.5-13.26C304.15,242.62,308.28,242.86,316.11,247.93Z" transform="translate(-55.33 -99.78)"/><path d="M270.72,159.48c4.48-.51,6.31.3,6.69,2.76a4.76,4.76,0,0,1-3.35,5.25c-2.69.57-4.19-.84-5.1-4.77h-.45l0,6.6-5-1.35,4.05-5.67c-3.88,2.44-5.77,2.74-7.49,1-1.31-1.35-1.27-4.25.08-5.81s3.56-1.42,7.09.94c-1.37-4.84-1-6.68,1.43-7.62a4.15,4.15,0,0,1,5.33,2C275.26,155.29,274.45,157.09,270.72,159.48Z" transform="translate(-55.33 -99.78)"/><path d="M375,344c1.64,4.84,1.32,6.85-1.07,7.9a4,4,0,0,1-5.43-1.63c-1.4-2.39-.53-4.44,3.37-7.13-3.59.78-6.68,1-6.91-3.29a4.28,4.28,0,0,1,4.09-4.62c2.5-.08,3.81,1.47,4.32,5.1h.53c.05-2.26.09-4.51.13-6.85l4.87,1.31-4,5.67.41.38c1.25-1.23,2.32-2.94,4.4-2.31a6.58,6.58,0,0,1,2.77,1.45c1.39,1.45,1,4.27-.55,5.68C380.16,347.36,377.93,346.89,375,344Z" transform="translate(-55.33 -99.78)"/><path d="M270.43,125.33c.3-1.13.55-2.11.84-3.09.18-.62.42-1.23.72-2.07l7.61,2c1.56.43,3.13.82,4.66,1.32a7.87,7.87,0,0,1,1.59,1,7,7,0,0,1-1.24,1.77c-1.86,1.38-3.82,2.63-6,4.09,2.61,1.37,4.85,3,5,5.85a16.55,16.55,0,0,1-1.15,6.57c-1.2,3.15-5.59,5-9.25,4.27a8.28,8.28,0,0,1-6.94-7.85,7.69,7.69,0,0,1,.76-.38c.33-.12.67-.19,1.2-.33.27.68.52,1.33.78,2a6.17,6.17,0,0,0,8,3.81,6.84,6.84,0,0,0,4-8.11,5.64,5.64,0,0,0-6.15-3.55c-.64.11-1.26.27-1.83.4-1.07-1.18-.77-1.9.41-2.63,2.44-1.5,4.8-3.11,7.53-4.9l-7.09-1.9C272.49,126.38,272.49,126.38,270.43,125.33Z" transform="translate(-55.33 -99.78)"/><path d="M370.41,371.52l-8.65,5.64,7.36,2,1-2.64,2.14.57-1.44,5.36L361.8,380c-1.15-.31-2.33-.57-3.45-1-.49-.17-1.28-.7-1.24-.93a3.1,3.1,0,0,1,1-1.74c1.73-1.27,3.57-2.41,5.36-3.6.19-.13.36-.29.53-.43-.06-.15-.08-.31-.15-.34-5.38-2.53-6-7.53-3.31-12.42,2.16-3.94,7.85-5.16,12.14-2.65a7.8,7.8,0,0,1,3.75,5.43c.1.55-.76,1.28-1.44,2.34-.74-1.59-1.13-2.58-1.63-3.5a6.23,6.23,0,0,0-6.35-3.1,5.9,5.9,0,0,0-5.09,4.86c-.68,2.82-.09,5,2.22,6.22a7.56,7.56,0,0,0,4.23.74C369.77,369.78,370.41,370,370.41,371.52Z" transform="translate(-55.33 -99.78)"/></g><rect id="border-2" data-name="border" class="cls-4" x="233.12" y="124.5" width="180" height="251" rx="10.45" transform="translate(20.46 -174.95) rotate(15.01)"/></g></g></svg>