<svg id="Layer_1" data-name="Layer 1" xmlns="http://www.w3.org/2000/svg" viewBox="0 0 500 500.5"><defs><style>.cls-1{fill:none;}.cls-2{fill:#f33;}.cls-3{fill:#ff4343;}</style></defs><rect class="cls-1" x="0.5" y="0.5" width="100" height="500"/><rect class="cls-1" x="100" width="100" height="500"/><rect class="cls-1" x="200" width="100" height="500"/><rect class="cls-1" x="300" width="100" height="500"/><rect class="cls-1" x="400" width="100" height="500"/><rect class="cls-1" width="500" height="100"/><rect class="cls-1" y="100" width="500" height="100"/><rect class="cls-1" y="200" width="500" height="100"/><rect class="cls-1" y="300" width="500" height="100"/><path d="M264.23,72.5a15.12,15.12,0,0,1-12.07-6.27,102.88,102.88,0,0,0,7.11,14.53c1,1.75-.09,4.24-2,4.24H239.67c-1.88,0-3-2.49-2-4.24a104,104,0,0,0,7.12-14.53c-5.58,7.41-15.51,8.39-22.18,2.19s-7.55-17.24-2-24.66a15.08,15.08,0,0,1,12.73-6.25c-2.48-9.26,2.25-19,10.59-21.78s17.1,2.51,19.58,11.77a19.31,19.31,0,0,1,0,10c8.69-.4,16,7.1,16.38,16.76s-6.39,17.81-15.08,18.21Z" transform="translate(0.5 0.5)"/><path class="cls-2" d="M221.61,242.08l23.93-30.23a5.23,5.23,0,0,1,7.06-.95,4.75,4.75,0,0,1,1,.95l23.93,30.23a4.56,4.56,0,0,1,0,5.73L253.6,278a5.22,5.22,0,0,1-7,1,4.84,4.84,0,0,1-1-1l-23.93-30.22A4.59,4.59,0,0,1,221.61,242.08Z" transform="translate(0.5 0.5)"/><path class="cls-3" d="M32.34,14.3c9.7,0,17.56,9,17.56,20,0-11,7.85-20,17.55-20s17.55,9,17.55,20C85,51,70.81,56.85,51.62,83.37a2.05,2.05,0,0,1-3.18.31,3.88,3.88,0,0,1-.26-.31C29,56.85,14.79,51,14.79,34.31,14.79,23.26,22.65,14.3,32.34,14.3Z" transform="translate(0.5 0.5)"/><path d="M445.3,262.48a17.11,17.11,0,0,1-23.65,2,16.15,16.15,0,0,1-6-12.52c0-7.48,5.47-12.29,12.76-18.7,6.36-5.6,14.11-12.43,20.82-23.3,6.7,10.87,14.45,17.7,20.81,23.3,7.29,6.41,12.76,11.22,12.76,18.7A16.57,16.57,0,0,1,466,268.33a17,17,0,0,1-12.87-5.85,92.56,92.56,0,0,0,7.59,13.57,2.56,2.56,0,0,1-2.1,3.95H439.81a2.56,2.56,0,0,1-2.1-3.95A91.65,91.65,0,0,0,445.3,262.48Z" transform="translate(0.5 0.5)"/><path d="M62.08,272.5A15.12,15.12,0,0,1,50,266.23a102.88,102.88,0,0,0,7.11,14.53c1,1.75-.09,4.24-2,4.24H37.52c-1.88,0-3-2.49-2-4.24a104,104,0,0,0,7.12-14.53c-5.58,7.41-15.51,8.39-22.18,2.19s-7.55-17.24-2-24.66a15.08,15.08,0,0,1,12.73-6.25c-2.48-9.26,2.26-19,10.59-21.78s17.1,2.51,19.58,11.77a19.31,19.31,0,0,1,0,10c8.69-.4,16,7.1,16.38,16.76s-6.39,17.81-15.08,18.21Z" transform="translate(0.5 0.5)"/><path d="M243.15,462.48a17.11,17.11,0,0,1-23.65,2,16.15,16.15,0,0,1-6-12.52c0-7.48,5.47-12.29,12.76-18.7,6.36-5.6,14.11-12.43,20.82-23.3,6.7,10.87,14.45,17.7,20.81,23.3,7.29,6.41,12.76,11.22,12.76,18.7a16.57,16.57,0,0,1-16.79,16.33A17,17,0,0,1,251,462.48a92.56,92.56,0,0,0,7.59,13.57,2.56,2.56,0,0,1-2.1,3.95H237.66a2.56,2.56,0,0,1-2.1-3.95A91.65,91.65,0,0,0,243.15,462.48Z" transform="translate(0.5 0.5)"/><path class="cls-3" d="M431.24,414.39c9.7,0,17.55,9,17.55,20,0-11.05,7.86-20,17.55-20s17.56,9,17.56,20c0,16.66-14.2,22.54-33.39,49a2,2,0,0,1-3.17.32,2.08,2.08,0,0,1-.27-.32c-19.19-26.51-33.38-32.39-33.38-49C413.69,423.36,421.54,414.39,431.24,414.39Z" transform="translate(0.5 0.5)"/><path class="cls-2" d="M421.83,45.69l23.93-30.23a5.22,5.22,0,0,1,7.05-1,4.81,4.81,0,0,1,1,1l23.93,30.23a4.59,4.59,0,0,1,0,5.73L453.82,81.64a5.22,5.22,0,0,1-7.05,1,5.11,5.11,0,0,1-1-1L421.83,51.42A4.59,4.59,0,0,1,421.83,45.69Z" transform="translate(0.5 0.5)"/><path d="M365.32,371.5a15.12,15.12,0,0,1-12.07-6.27,102.88,102.88,0,0,0,7.11,14.53c1,1.75-.09,4.24-2,4.24H340.76c-1.88,0-3-2.49-2-4.24a104,104,0,0,0,7.12-14.53c-5.58,7.41-15.51,8.39-22.18,2.19s-7.55-17.24-2-24.66a15.08,15.08,0,0,1,12.73-6.25c-2.48-9.26,2.26-19,10.59-21.78s17.1,2.51,19.58,11.77a19.31,19.31,0,0,1,0,10c8.69-.4,16,7.1,16.38,16.76s-6.39,17.81-15.08,18.21Z" transform="translate(0.5 0.5)"/><path d="M145.88,164.48a17.11,17.11,0,0,1-23.65,2,16.15,16.15,0,0,1-6-12.52c0-7.48,5.46-12.29,12.75-18.7,6.36-5.6,14.12-12.43,20.82-23.3,6.71,10.87,14.46,17.7,20.82,23.3,7.29,6.41,12.76,11.22,12.76,18.7a16.57,16.57,0,0,1-16.79,16.33,17,17,0,0,1-12.87-5.85,91.59,91.59,0,0,0,7.58,13.57,2.56,2.56,0,0,1-2.1,3.95h-18.8a2.56,2.56,0,0,1-2.1-3.95A92.56,92.56,0,0,0,145.88,164.48Z" transform="translate(0.5 0.5)"/><path class="cls-3" d="M332.24,114.39c9.7,0,17.55,9,17.55,20,0-11,7.86-20,17.55-20s17.56,9,17.56,20c0,16.66-14.2,22.54-33.39,49.05a2,2,0,0,1-3.17.32,2.08,2.08,0,0,1-.27-.32c-19.19-26.51-33.38-32.39-33.38-49.05C314.69,123.36,322.54,114.39,332.24,114.39Z" transform="translate(0.5 0.5)"/><path class="cls-3" d="M132.24,314.39c9.7,0,17.55,9,17.55,20,0-11.05,7.86-20,17.55-20s17.56,9,17.56,20c0,16.66-14.2,22.54-33.39,49a2,2,0,0,1-3.17.32,2.08,2.08,0,0,1-.27-.32c-19.19-26.51-33.38-32.39-33.38-49C114.69,323.36,122.54,314.39,132.24,314.39Z" transform="translate(0.5 0.5)"/><path class="cls-2" d="M18.83,445.69l23.93-30.23a5.22,5.22,0,0,1,7.05-.95,4.81,4.81,0,0,1,1,.95l23.93,30.23a4.59,4.59,0,0,1,0,5.73L50.82,481.64a5.22,5.22,0,0,1-7,1,5.11,5.11,0,0,1-1-1L18.83,451.42A4.59,4.59,0,0,1,18.83,445.69Z" transform="translate(0.5 0.5)"/></svg>